<svg width="24" height="23" viewBox="0 0 24 23" fill="none" xmlns="http://www.w3.org/2000/svg">
<path d="M6.1671 0C6.66355 0 7.14885 0.147214 7.56164 0.423026C7.97442 0.698839 8.29615 1.09086 8.48613 1.54952C8.67611 2.00818 8.72582 2.51287 8.62897 2.99978C8.53212 3.48669 8.29305 3.93395 7.94201 4.28499C7.59097 4.63603 7.14371 4.8751 6.65679 4.97195C6.16988 5.0688 5.66518 5.01909 5.20652 4.82911C4.74786 4.63913 4.35584 4.3174 4.08002 3.90462C3.80421 3.49184 3.65699 3.00654 3.65699 2.51009C3.657 1.84437 3.92146 1.20592 4.39219 0.735192C4.86293 0.26446 5.50138 3.52293e-06 6.1671 0ZM0.735091 12.9046H2.85441L2.01433 11.164L2.86716 9.39788L3.1503 8.81171V12.9046H9.18383V8.44575C9.20508 8.46612 9.22526 8.48758 9.24428 8.51005L9.46701 8.81238L10.8926 10.7471C10.9721 10.8553 11.0736 10.9456 11.1903 11.0119C11.307 11.0782 11.4364 11.1192 11.5701 11.1321C11.7037 11.1451 11.8386 11.1296 11.9659 11.0869C12.0932 11.0441 12.21 10.975 12.3087 10.884L15.4209 8.02635C15.5137 7.94164 15.5888 7.83944 15.6421 7.72563C15.6953 7.61181 15.7255 7.48861 15.731 7.36309C15.7366 7.23757 15.7173 7.11219 15.6742 6.99414C15.6312 6.87609 15.5653 6.7677 15.4803 6.67517C15.3953 6.58263 15.2929 6.50778 15.1789 6.45491C15.0649 6.40203 14.9416 6.37217 14.8161 6.36703C14.6906 6.3619 14.5652 6.38158 14.4473 6.42497C14.3294 6.46835 14.2212 6.53458 14.1289 6.61986L11.7996 8.75827L10.7813 7.37721C10.5227 7.02783 10.1861 6.74373 9.79823 6.5476C9.41036 6.35146 8.982 6.24872 8.54736 6.24758H4.00954C3.48771 6.24927 2.97685 6.39753 2.53519 6.67546C2.09353 6.95339 1.73884 7.34982 1.51155 7.81955L0.0954661 10.7503C0.0326413 10.8797 0 11.0217 0 11.1656C0 11.3095 0.0326413 11.4515 0.0954661 11.5809L0.735091 12.9046ZM5.64996e-05 22.5647C5.64996e-05 23.1451 7.22545 23.1451 7.22545 22.5647C7.22545 20.9091 5.60806 19.5667 3.61262 19.5667C1.61718 19.5667 5.64996e-05 20.9091 5.64996e-05 22.5647ZM5.29641 17.3192C5.29641 16.9862 5.19766 16.6607 5.01266 16.3839C4.82765 16.107 4.5647 15.8912 4.25705 15.7638C3.9494 15.6363 3.61088 15.603 3.28428 15.668C2.95769 15.7329 2.65769 15.8933 2.42223 16.1287C2.18677 16.3642 2.02642 16.6642 1.96145 16.9908C1.89649 17.3174 1.92983 17.6559 2.05727 17.9636C2.1847 18.2712 2.4005 18.5341 2.67737 18.7191C2.95425 18.9041 3.27976 19.0029 3.61276 19.0029C4.05929 19.0029 4.48753 18.8255 4.80328 18.5097C5.11903 18.194 5.29641 17.7658 5.29641 17.3192ZM16.6848 22.5647C16.6848 23.1451 23.9102 23.1451 23.9102 22.5647C23.9102 20.9091 22.293 19.5667 20.2976 19.5667C18.3021 19.5667 16.6848 20.9091 16.6848 22.5647ZM21.9811 17.3192C21.9811 16.9862 21.8824 16.6607 21.6974 16.3838C21.5124 16.107 21.2494 15.8912 20.9418 15.7637C20.6341 15.6363 20.2956 15.603 19.969 15.6679C19.6424 15.7329 19.3424 15.8932 19.1069 16.1287C18.8714 16.3642 18.7111 16.6642 18.6461 16.9908C18.5812 17.3174 18.6145 17.6559 18.7419 17.9635C18.8694 18.2712 19.0852 18.5341 19.362 18.7191C19.6389 18.9041 19.9644 19.0029 20.2974 19.0029C20.5185 19.0029 20.7375 18.9593 20.9417 18.8747C21.146 18.7901 21.3316 18.6661 21.488 18.5098C21.6443 18.3534 21.7683 18.1678 21.8529 17.9635C21.9376 17.7593 21.9811 17.5403 21.9811 17.3192ZM15.5678 22.5647C15.5678 20.9091 13.9507 19.5667 11.9553 19.5667C9.95982 19.5667 8.34239 20.9091 8.34239 22.5647C8.34239 23.1451 15.5678 23.1451 15.5678 22.5647ZM10.2714 17.3192C10.2714 17.6522 10.3702 17.9777 10.5552 18.2546C10.7402 18.5315 11.0031 18.7473 11.3108 18.8747C11.6184 19.0022 11.957 19.0355 12.2836 18.9705C12.6102 18.9056 12.9102 18.7452 13.1456 18.5098C13.3811 18.2743 13.5415 17.9743 13.6064 17.6477C13.6714 17.3211 13.6381 16.9826 13.5106 16.6749C13.3832 16.3673 13.1674 16.1043 12.8905 15.9193C12.6136 15.7343 12.2881 15.6356 11.9551 15.6356C11.734 15.6356 11.5151 15.6791 11.3108 15.7637C11.1065 15.8483 10.9209 15.9724 10.7646 16.1287C10.6082 16.285 10.4842 16.4706 10.3996 16.6749C10.315 16.8792 10.2714 17.0981 10.2714 17.3192Z" fill="#34A853"/>
<path fill-rule="evenodd" clip-rule="evenodd" d="M10.7303 12.0564C11.0971 12.4828 11.6406 12.7528 12.2472 12.7528H21.9101C23.0147 12.7528 23.9101 11.8574 23.9101 10.7528V2.22852C23.9101 1.12395 23.0147 0.228516 21.9101 0.228516H12.2472C11.1426 0.228516 10.2472 1.12395 10.2472 2.22852V5.49953C10.2689 5.50999 10.2905 5.52067 10.312 5.53154C10.8582 5.80777 11.3323 6.20789 11.6965 6.69994L11.6976 6.70153L11.9635 7.06211L13.3561 5.78369L13.3578 5.78213C13.5597 5.59593 13.7963 5.45127 14.0541 5.35642C14.3126 5.26131 14.5874 5.21815 14.8626 5.22941C15.1378 5.24067 15.4081 5.30614 15.658 5.42206C15.9079 5.53799 16.1324 5.70208 16.3187 5.90494C16.5051 6.1078 16.6495 6.34545 16.7439 6.60425C16.8382 6.86305 16.8805 7.13792 16.8684 7.41311C16.8563 7.6883 16.79 7.9584 16.6734 8.20792C16.557 8.45681 16.3927 8.68035 16.19 8.8658L16.1885 8.86721L13.0802 11.7213L13.0797 11.7218C12.8633 11.921 12.6073 12.0725 12.3284 12.1662C12.0493 12.2599 11.7536 12.2938 11.4605 12.2654C11.2061 12.2408 10.9586 12.1699 10.7303 12.0564ZM10.2472 9.87121V6.83134C10.4487 6.98743 10.6286 7.17095 10.7812 7.37721L11.7995 8.75827L14.1289 6.61986C14.2211 6.53458 14.3293 6.46835 14.4472 6.42497C14.5652 6.38158 14.6905 6.3619 14.816 6.36703C14.9416 6.37217 15.0648 6.40203 15.1788 6.45491C15.2928 6.50778 15.3952 6.58263 15.4802 6.67517C15.5652 6.7677 15.6311 6.87609 15.6741 6.99414C15.7172 7.11219 15.7365 7.23757 15.7309 7.36309C15.7254 7.48861 15.6952 7.61181 15.642 7.72563C15.5887 7.83944 15.5136 7.94164 15.4208 8.02635L12.3086 10.884C12.2099 10.975 12.0931 11.0441 11.9658 11.0869C11.8385 11.1296 11.7037 11.1451 11.57 11.1321C11.4364 11.1192 11.307 11.0782 11.1902 11.0119C11.0735 10.9456 10.9721 10.8553 10.8926 10.7471L10.2472 9.87121Z" fill="#34A853"/>
</svg>
