<svg width="21" height="22" viewBox="0 0 21 22" fill="none" xmlns="http://www.w3.org/2000/svg">
<path d="M10.9863 21.6756C10.9863 21.8609 11.1253 21.9998 11.3105 21.9998H14.5063C14.6916 21.9998 14.8305 21.8609 14.8305 21.6756V19.9619H10.9863V21.6756Z" fill="#4285F4"/>
<path d="M20.2263 9.95802C20.1105 9.77276 19.9253 9.65697 19.6937 9.61065C19.4158 9.56433 19.1147 9.68012 18.9295 9.9117L17.5168 11.9264C17.5632 11.9728 17.5863 12.0191 17.6326 12.0654C18.0032 12.6212 17.9568 13.3391 17.5168 13.8485L17.4242 13.9643C16.8453 14.6128 16.22 15.238 15.5484 15.7938L14.9926 16.2338C14.8305 16.3728 14.5758 16.3496 14.4368 16.1875C14.2979 16.0254 14.3211 15.7706 14.4832 15.6317L15.039 15.1917C15.6874 14.6591 16.2895 14.0801 16.8221 13.4549L16.9147 13.3391C17.1232 13.1075 17.1232 12.7833 16.9611 12.5285C16.8684 12.3896 16.7063 12.2738 16.5211 12.2507C16.3358 12.2275 16.1737 12.2507 16.0116 12.3664L12.9547 14.497C12.6074 14.7285 12.3526 15.0991 12.2368 15.4928L11.1021 19.1749H15.1547L17.8642 17.5306C18.3505 17.2296 18.6747 16.7896 18.8137 16.257L20.319 10.6064C20.3653 10.3517 20.3421 10.1433 20.2263 9.95802Z" fill="#4285F4"/>
<path d="M8.11475 15.47C7.99896 15.0763 7.74422 14.7289 7.39685 14.4742L4.31685 12.3205C4.17791 12.2279 3.99264 12.1816 3.80738 12.2047C3.62212 12.2279 3.48317 12.3437 3.36738 12.4826C3.22843 12.7605 3.25159 13.0847 3.43685 13.3163L3.52948 13.4321C4.06212 14.0574 4.66422 14.6363 5.31264 15.1689L5.86843 15.6089C6.03054 15.7479 6.0537 16.0026 5.91475 16.1647C5.7758 16.3268 5.52106 16.35 5.35896 16.211L4.80317 15.771C4.13159 15.2153 3.48317 14.6132 2.92738 13.9416L2.83475 13.8258C2.39475 13.3163 2.34843 12.5984 2.71896 12.0426C2.74212 11.9963 2.78843 11.95 2.83475 11.9037L1.39896 9.9121C1.26001 9.70368 1.00527 9.58789 0.773695 9.58789C0.727379 9.58789 0.681063 9.58789 0.657905 9.58789C0.449484 9.63421 0.264221 9.75 0.125274 9.93526C0.0094841 10.1205 -0.0368317 10.3289 0.032642 10.5605L1.53791 16.211C1.67685 16.7437 2.02422 17.2068 2.48738 17.4847L5.19685 19.1289H9.24948L8.11475 15.47Z" fill="#4285F4"/>
<path d="M5.49792 21.6756C5.49792 21.8609 5.63687 21.9998 5.82214 21.9998H9.01793C9.20319 21.9998 9.34214 21.8609 9.34214 21.6756V19.9619H5.49792V21.6756Z" fill="#4285F4"/>
<path d="M4.66425 6.71582V10.2358C4.66425 10.8611 5.17372 11.3706 5.79898 11.3706H14.5527C15.1779 11.3706 15.6874 10.8611 15.6874 10.2358V6.71582C14.46 6.92424 13.1169 7.01687 11.9358 7.08635V7.15582C11.9358 7.85056 11.3569 8.4295 10.6621 8.4295H9.68951C8.99477 8.4295 8.41582 7.85056 8.41582 7.15582V7.08635C7.23477 7.01687 5.89161 6.92424 4.66425 6.71582Z" fill="#4285F4"/>
<path d="M4.10846 5.69684C5.22004 5.90526 6.65583 6.09053 8.43899 6.18316C8.43899 5.48842 8.99478 4.93263 9.71267 4.93263H10.6853C11.38 4.93263 11.9358 5.48842 11.959 6.18316C13.719 6.11368 15.1548 5.92842 16.2895 5.69684C16.4516 5.67368 16.5443 5.53474 16.5443 5.37263V3.61263C16.5443 2.98737 16.0348 2.47789 15.4095 2.47789H12.8621V1.62105C12.8621 0.717895 12.1211 0 11.2411 0H9.15688C8.25372 0 7.53583 0.741053 7.53583 1.62105V2.45474H4.9653C4.34004 2.45474 3.83057 2.96421 3.83057 3.58947V5.34947C3.83057 5.53474 3.94636 5.67368 4.10846 5.69684ZM8.78636 1.62105C8.78636 1.43579 8.94846 1.27368 9.13372 1.27368H11.2179C11.4032 1.27368 11.5653 1.43579 11.5653 1.62105V2.45474H8.78636V1.62105Z" fill="#4285F4"/>
<path d="M10.6621 7.52646C10.8705 7.52646 11.0326 7.36436 11.0326 7.15594V6.20646C11.0326 5.99804 10.8705 5.83594 10.6621 5.83594H9.71263C9.50421 5.83594 9.3421 5.99804 9.3421 6.20646V7.15594C9.3421 7.36436 9.50421 7.52646 9.71263 7.52646H10.6621Z" fill="#4285F4"/>
</svg>
