<svg width="30" height="22" viewBox="0 0 30 22" fill="none" xmlns="http://www.w3.org/2000/svg">
<path d="M3 3.14286C3 1.40937 4.34531 0 6 0H24C25.6547 0 27 1.40937 27 3.14286V15.7143H24V3.14286H6V15.7143H3V3.14286ZM0 18.2286C0 17.708 0.403125 17.2857 0.9 17.2857H29.1C29.5969 17.2857 30 17.708 30 18.2286C30 20.3107 28.3875 22 26.4 22H3.6C1.6125 22 0 20.3107 0 18.2286ZM13.1719 8.69196L11.7188 10.2143L13.1719 11.7366C13.6125 12.1982 13.6125 12.9446 13.1719 13.4013C12.7312 13.858 12.0188 13.8629 11.5828 13.4013L9.33281 11.0442C8.89219 10.5826 8.89219 9.83616 9.33281 9.37946L11.5828 7.02232C12.0234 6.56071 12.7359 6.56071 13.1719 7.02232C13.6078 7.48393 13.6125 8.23036 13.1719 8.68705V8.69196ZM18.4219 7.02232L20.6719 9.37946C21.1125 9.84107 21.1125 10.5875 20.6719 11.0442L18.4219 13.4013C17.9813 13.8629 17.2688 13.8629 16.8328 13.4013C16.3969 12.9397 16.3922 12.1933 16.8328 11.7366L18.2859 10.2143L16.8328 8.69196C16.3922 8.23036 16.3922 7.48393 16.8328 7.02723C17.2734 6.57054 17.9859 6.56563 18.4219 7.02723V7.02232Z" fill="#34A853"/>
</svg>
