<svg width="32" height="32" viewBox="0 0 32 32" fill="none" xmlns="http://www.w3.org/2000/svg">
<rect x="0.5" y="0.5" width="31" height="31" rx="15.5" stroke="#656C73"/>
<path d="M24.1 9.00593C24.0234 8.99802 23.9461 8.99802 23.8694 9.00593H8.11941C8.01847 9.00748 7.91819 9.02262 7.82129 9.05093L15.9494 17.1453L24.1 9.00593Z" fill="#656C73"/>
<path d="M24.9325 9.78796L16.7425 17.9442C16.5317 18.1537 16.2466 18.2714 15.9494 18.2714C15.6522 18.2714 15.367 18.1537 15.1562 17.9442L7.03938 9.84984C7.01442 9.94155 7.00119 10.0361 7 10.1311V21.3811C7 21.6795 7.11853 21.9656 7.3295 22.1766C7.54048 22.3876 7.82663 22.5061 8.125 22.5061H23.875C24.1734 22.5061 24.4595 22.3876 24.6705 22.1766C24.8815 21.9656 25 21.6795 25 21.3811V10.1311C24.9955 10.0139 24.9727 9.89812 24.9325 9.78796ZM8.89563 21.3811H8.11375V20.5767L12.2031 16.5211L12.9963 17.3142L8.89563 21.3811ZM23.8638 21.3811H23.0763L18.9756 17.3142L19.7687 16.5211L23.8581 20.5767L23.8638 21.3811Z" fill="#656C73"/>
</svg>
