<svg width="1920" height="705" viewBox="0 0 1920 705" fill="none" xmlns="http://www.w3.org/2000/svg">
<rect width="1920" height="705" fill="#FAFAFA"/>
<mask id="mask0_56_5" style="mask-type:alpha" maskUnits="userSpaceOnUse" x="0" y="2" width="1920" height="703">
<rect y="2" width="1920" height="703" fill="#D9D9D9"/>
</mask>
<g mask="url(#mask0_56_5)">
<line x1="1346" y1="705" x2="-14" y2="705" stroke="#E7E7E7" stroke-width="2"/>
<rect x="194" y="642" width="63" height="62" fill="#FFB5AF"/>
<rect x="322" y="642" width="63" height="62" fill="#EA4335"/>
<rect x="322" y="513" width="63" height="63" fill="#EA4335"/>
<rect x="193.75" y="449.5" width="63" height="63" fill="#EA4335"/>
<rect x="130" y="449.5" width="63" height="63" fill="#FFB5AF"/>
<rect x="2" y="513" width="63" height="63" fill="#FFB5AF"/>
<rect x="65" y="577" width="63" height="63" fill="#FFB5AF"/>
<rect x="194" y="578" width="63" height="63" fill="#FFB5AF"/>
<rect x="1" y="385" width="63" height="63" fill="#FFB5AF"/>
<rect x="66" y="321" width="63" height="63" fill="#FFB5AF"/>
<rect x="130" y="513.25" width="63" height="63" fill="#EA4335"/>
<rect x="1" y="641" width="63" height="63" fill="#EA4335"/>
<rect x="130" y="641" width="63" height="63" fill="#EA4335"/>
<rect x="66" y="449" width="63" height="63" fill="#EA4335"/>
<rect x="130" y="385.75" width="63" height="63" fill="#EA4335"/>
<rect x="257.5" y="578.138" width="63" height="63" fill="#EA4335"/>
<rect x="257.5" y="513.25" width="63" height="63" fill="#FFB5AF"/>
<line x1="0.999634" y1="-448.333" x2="0.999606" y2="193.645" stroke="#E7E7E7" stroke-width="2"/>
<line x1="64.9998" y1="-448.333" x2="64.9997" y2="193.645" stroke="#E7E7E7" stroke-width="2"/>
<line x1="128.999" y1="-448.333" x2="128.999" y2="193.645" stroke="#E7E7E7" stroke-width="2"/>
<line x1="193" y1="-448.333" x2="193" y2="193.645" stroke="#E7E7E7" stroke-width="2"/>
<line x1="257" y1="-448.333" x2="257" y2="193.645" stroke="#E7E7E7" stroke-width="2"/>
<line x1="321.001" y1="-448.333" x2="321.001" y2="193.645" stroke="#E7E7E7" stroke-width="2"/>
<line x1="385.003" y1="-448.333" x2="385.003" y2="193.645" stroke="#E7E7E7" stroke-width="2"/>
<line x1="513.002" y1="-448.333" x2="513.002" y2="193.645" stroke="#E7E7E7" stroke-width="2"/>
<line x1="577.004" y1="-448.333" x2="577.004" y2="193.645" stroke="#E7E7E7" stroke-width="2"/>
<line x1="449.002" y1="-448.333" x2="449.002" y2="193.645" stroke="#E7E7E7" stroke-width="2"/>
<line x1="576.004" y1="128.874" x2="-66.032" y2="128.874" stroke="#E7E7E7" stroke-width="2"/>
<line x1="576.004" y1="192.897" x2="-66.032" y2="192.897" stroke="#E7E7E7" stroke-width="2"/>
<line x1="576.004" y1="64.8511" x2="-66.032" y2="64.851" stroke="#E7E7E7" stroke-width="2"/>
<line x1="641.003" y1="-448.333" x2="641.003" y2="193.645" stroke="#E7E7E7" stroke-width="2"/>
<line x1="705.006" y1="-448.333" x2="705.006" y2="193.645" stroke="#E7E7E7" stroke-width="2"/>
<line x1="769.003" y1="-448.333" x2="769.003" y2="193.645" stroke="#E7E7E7" stroke-width="2"/>
<line x1="833.004" y1="-448.333" x2="833.004" y2="193.645" stroke="#E7E7E7" stroke-width="2"/>
<line x1="897.006" y1="-448.333" x2="897.006" y2="193.645" stroke="#E7E7E7" stroke-width="2"/>
<line x1="961.007" y1="-448.333" x2="961.007" y2="193.645" stroke="#E7E7E7" stroke-width="2"/>
<line x1="1025.01" y1="-448.333" x2="1025.01" y2="193.645" stroke="#E7E7E7" stroke-width="2"/>
<line x1="1153.01" y1="-448.333" x2="1153.01" y2="193.645" stroke="#E7E7E7" stroke-width="2"/>
<line x1="1217.01" y1="-448.333" x2="1217.01" y2="193.645" stroke="#E7E7E7" stroke-width="2"/>
<line x1="1089.01" y1="-448.333" x2="1089.01" y2="193.645" stroke="#E7E7E7" stroke-width="2"/>
<line x1="1216.01" y1="128.874" x2="573.975" y2="128.874" stroke="#E7E7E7" stroke-width="2"/>
<line x1="1216.01" y1="192.897" x2="573.975" y2="192.897" stroke="#E7E7E7" stroke-width="2"/>
<line x1="1216.01" y1="64.8511" x2="573.975" y2="64.851" stroke="#E7E7E7" stroke-width="2"/>
<line x1="0.999634" y1="191.899" x2="0.999606" y2="833.878" stroke="#E7E7E7" stroke-width="2"/>
<line x1="64.9998" y1="191.899" x2="64.9997" y2="833.878" stroke="#E7E7E7" stroke-width="2"/>
<line x1="128.999" y1="191.899" x2="128.999" y2="833.878" stroke="#E7E7E7" stroke-width="2"/>
<line x1="193" y1="191.899" x2="193" y2="833.878" stroke="#E7E7E7" stroke-width="2"/>
<line x1="257" y1="191.899" x2="257" y2="833.878" stroke="#E7E7E7" stroke-width="2"/>
<line x1="321.001" y1="191.899" x2="321.001" y2="833.878" stroke="#E7E7E7" stroke-width="2"/>
<line x1="385.003" y1="191.899" x2="385.003" y2="833.878" stroke="#E7E7E7" stroke-width="2"/>
<line x1="513.002" y1="191.899" x2="513.002" y2="833.878" stroke="#E7E7E7" stroke-width="2"/>
<line x1="577.004" y1="191.899" x2="577.004" y2="833.878" stroke="#E7E7E7" stroke-width="2"/>
<line x1="449.002" y1="191.899" x2="449.002" y2="833.878" stroke="#E7E7E7" stroke-width="2"/>
<line x1="576.004" y1="192.899" x2="-66.032" y2="192.899" stroke="#E7E7E7" stroke-width="2"/>
<line x1="576.004" y1="256.922" x2="-66.032" y2="256.922" stroke="#E7E7E7" stroke-width="2"/>
<line x1="576.004" y1="320.946" x2="-66.032" y2="320.946" stroke="#E7E7E7" stroke-width="2"/>
<line x1="576.004" y1="384.968" x2="-66.032" y2="384.968" stroke="#E7E7E7" stroke-width="2"/>
<line x1="576.004" y1="448.992" x2="-66.032" y2="448.992" stroke="#E7E7E7" stroke-width="2"/>
<line x1="576.004" y1="513.015" x2="-66.032" y2="513.015" stroke="#E7E7E7" stroke-width="2"/>
<line x1="576.004" y1="577.038" x2="-66.032" y2="577.038" stroke="#E7E7E7" stroke-width="2"/>
<line x1="576.004" y1="641.061" x2="-66.032" y2="641.061" stroke="#E7E7E7" stroke-width="2"/>
<line x1="641.003" y1="191.9" x2="641.003" y2="833.878" stroke="#E7E7E7" stroke-width="2"/>
<line x1="705.005" y1="191.9" x2="705.005" y2="833.878" stroke="#E7E7E7" stroke-width="2"/>
<line x1="769.003" y1="191.9" x2="769.003" y2="833.878" stroke="#E7E7E7" stroke-width="2"/>
<line x1="833.004" y1="191.9" x2="833.004" y2="833.878" stroke="#E7E7E7" stroke-width="2"/>
<line x1="897.006" y1="191.9" x2="897.006" y2="833.878" stroke="#E7E7E7" stroke-width="2"/>
<line x1="961.007" y1="191.9" x2="961.007" y2="833.878" stroke="#E7E7E7" stroke-width="2"/>
<line x1="1025.01" y1="191.9" x2="1025.01" y2="833.878" stroke="#E7E7E7" stroke-width="2"/>
<line x1="1153.01" y1="191.9" x2="1153.01" y2="833.878" stroke="#E7E7E7" stroke-width="2"/>
<line x1="1217.01" y1="191.9" x2="1217.01" y2="833.878" stroke="#E7E7E7" stroke-width="2"/>
<line x1="1089.01" y1="191.9" x2="1089.01" y2="833.878" stroke="#E7E7E7" stroke-width="2"/>
<line x1="1216.01" y1="256.923" x2="573.975" y2="256.922" stroke="#E7E7E7" stroke-width="2"/>
<line x1="1216.01" y1="320.945" x2="573.975" y2="320.945" stroke="#E7E7E7" stroke-width="2"/>
<line x1="1216.01" y1="384.968" x2="573.975" y2="384.968" stroke="#E7E7E7" stroke-width="2"/>
<line x1="1216.01" y1="448.992" x2="573.975" y2="448.992" stroke="#E7E7E7" stroke-width="2"/>
<line x1="1216.01" y1="513.015" x2="573.975" y2="513.015" stroke="#E7E7E7" stroke-width="2"/>
<line x1="1216.01" y1="577.038" x2="573.975" y2="577.038" stroke="#E7E7E7" stroke-width="2"/>
<line x1="1216.01" y1="641.061" x2="573.975" y2="641.061" stroke="#E7E7E7" stroke-width="2"/>
<line x1="1216.01" y1="705.083" x2="573.975" y2="705.083" stroke="#E7E7E7" stroke-width="2"/>
<line x1="1280.99" y1="-448.333" x2="1280.99" y2="193.645" stroke="#E7E7E7" stroke-width="2"/>
<line x1="1344.99" y1="-448.333" x2="1344.99" y2="193.645" stroke="#E7E7E7" stroke-width="2"/>
<line x1="1408.99" y1="-448.333" x2="1408.99" y2="193.645" stroke="#E7E7E7" stroke-width="2"/>
<line x1="1472.99" y1="-448.333" x2="1472.99" y2="193.645" stroke="#E7E7E7" stroke-width="2"/>
<line x1="1536.99" y1="-448.333" x2="1536.99" y2="193.645" stroke="#E7E7E7" stroke-width="2"/>
<line x1="1600.99" y1="-448.333" x2="1600.99" y2="193.645" stroke="#E7E7E7" stroke-width="2"/>
<line x1="1664.99" y1="-448.333" x2="1664.99" y2="193.645" stroke="#E7E7E7" stroke-width="2"/>
<line x1="1792.99" y1="-448.333" x2="1792.99" y2="193.645" stroke="#E7E7E7" stroke-width="2"/>
<line x1="1856.99" y1="-448.333" x2="1856.99" y2="193.645" stroke="#E7E7E7" stroke-width="2"/>
<line x1="1728.99" y1="-448.333" x2="1728.99" y2="193.645" stroke="#E7E7E7" stroke-width="2"/>
<line x1="1855.99" y1="128.874" x2="1213.96" y2="128.874" stroke="#E7E7E7" stroke-width="2"/>
<line x1="1855.99" y1="192.897" x2="1213.96" y2="192.897" stroke="#E7E7E7" stroke-width="2"/>
<line x1="1855.99" y1="64.8505" x2="1213.96" y2="64.8504" stroke="#E7E7E7" stroke-width="2"/>
<line x1="1920.99" y1="-448.333" x2="1920.99" y2="193.645" stroke="#E7E7E7" stroke-width="2"/>
<line x1="2496" y1="128.874" x2="1853.96" y2="128.874" stroke="#E7E7E7" stroke-width="2"/>
<line x1="2496" y1="192.897" x2="1853.96" y2="192.897" stroke="#E7E7E7" stroke-width="2"/>
<line x1="2496" y1="64.8507" x2="1853.96" y2="64.8507" stroke="#E7E7E7" stroke-width="2"/>
<line x1="1280.99" y1="191.899" x2="1280.99" y2="833.877" stroke="#E7E7E7" stroke-width="2"/>
<line x1="1344.99" y1="191.899" x2="1344.99" y2="833.877" stroke="#E7E7E7" stroke-width="2"/>
<line x1="1408.99" y1="191.899" x2="1408.99" y2="833.877" stroke="#E7E7E7" stroke-width="2"/>
<line x1="1472.99" y1="191.899" x2="1472.99" y2="833.877" stroke="#E7E7E7" stroke-width="2"/>
<line x1="1536.99" y1="191.899" x2="1536.99" y2="833.877" stroke="#E7E7E7" stroke-width="2"/>
<line x1="1600.99" y1="191.899" x2="1600.99" y2="833.877" stroke="#E7E7E7" stroke-width="2"/>
<line x1="1664.99" y1="191.899" x2="1664.99" y2="833.877" stroke="#E7E7E7" stroke-width="2"/>
<line x1="1792.99" y1="191.899" x2="1792.99" y2="833.877" stroke="#E7E7E7" stroke-width="2"/>
<line x1="1856.99" y1="191.899" x2="1856.99" y2="833.877" stroke="#E7E7E7" stroke-width="2"/>
<line x1="1728.99" y1="191.899" x2="1728.99" y2="833.877" stroke="#E7E7E7" stroke-width="2"/>
<line x1="1855.99" y1="256.922" x2="1213.96" y2="256.922" stroke="#E7E7E7" stroke-width="2"/>
<line x1="1855.99" y1="320.945" x2="1213.96" y2="320.945" stroke="#E7E7E7" stroke-width="2"/>
<line x1="1855.99" y1="384.967" x2="1213.96" y2="384.967" stroke="#E7E7E7" stroke-width="2"/>
<line x1="1855.99" y1="448.991" x2="1213.96" y2="448.991" stroke="#E7E7E7" stroke-width="2"/>
<line x1="1855.99" y1="513.014" x2="1213.96" y2="513.014" stroke="#E7E7E7" stroke-width="2"/>
<line x1="1855.99" y1="577.037" x2="1213.96" y2="577.037" stroke="#E7E7E7" stroke-width="2"/>
<line x1="1855.99" y1="641.06" x2="1213.96" y2="641.06" stroke="#E7E7E7" stroke-width="2"/>
<line x1="1855.99" y1="705.083" x2="1213.96" y2="705.083" stroke="#E7E7E7" stroke-width="2"/>
<line x1="1920.99" y1="191.899" x2="1920.99" y2="833.877" stroke="#E7E7E7" stroke-width="2"/>
<line x1="2496" y1="256.922" x2="1853.96" y2="256.922" stroke="#E7E7E7" stroke-width="2"/>
<line x1="2496" y1="320.945" x2="1853.96" y2="320.945" stroke="#E7E7E7" stroke-width="2"/>
<line x1="2496" y1="384.968" x2="1853.96" y2="384.967" stroke="#E7E7E7" stroke-width="2"/>
<line x1="2496" y1="448.991" x2="1853.96" y2="448.991" stroke="#E7E7E7" stroke-width="2"/>
<line x1="2496" y1="513.014" x2="1853.96" y2="513.014" stroke="#E7E7E7" stroke-width="2"/>
<line x1="2496" y1="577.037" x2="1853.96" y2="577.037" stroke="#E7E7E7" stroke-width="2"/>
<line x1="2496" y1="641.061" x2="1853.96" y2="641.061" stroke="#E7E7E7" stroke-width="2"/>
<line x1="2496" y1="705.083" x2="1853.96" y2="705.083" stroke="#E7E7E7" stroke-width="2"/>
<rect x="450" y="2" width="1010" height="254" fill="#FAFAFA"/>
<rect x="130" y="2" width="1662" height="126" fill="#FAFAFA"/>
<rect x="1218" y="175" width="254" height="209" fill="#FAFAFA"/>
<rect x="1026" y="175" width="308" height="145" fill="#FAFAFA"/>
<rect x="1337" y="4" width="263" height="252" fill="#FAFAFA"/>
<path d="M1401.78 643.889C1401.78 722.252 1338.25 785.778 1259.89 785.778C1181.53 785.778 1118 722.252 1118 643.889C1118 565.526 1181.53 502 1259.89 502C1338.25 502 1401.78 565.526 1401.78 643.889Z" stroke="#FBBC04" stroke-width="4"/>
<path d="M443 662.333L1269.67 662.889L1328.56 705.667L443 740.111V662.333Z" fill="#4285F4"/>
<g clip-path="url(#clip0_56_5)">
<path d="M587.149 370.559L590.395 662.398L386.333 667.262V451.625C426.823 435.28 560.699 381.236 587.149 370.559Z" fill="#C99105"/>
<path d="M514.111 680.111L1053 685.111L1005.22 711.222H514.111V680.111Z" fill="#3768B9"/>
<path d="M587.149 370.559L661.812 399.743V670.437L590.395 662.398L587.149 370.559Z" fill="#FBBC04"/>
<path d="M469.548 418.033V479.458H478.671V414.35L469.548 418.033Z" fill="#C4342D"/>
<path d="M453.246 424.614V479.458H469.548V418.033L453.246 424.614Z" fill="#C99105"/>
<path d="M408.423 442.709L453.246 424.614V479.458L408.423 456.084V442.709Z" fill="#C4342D"/>
<path d="M531.557 456.084V447.573L507.21 445.546V452.045L531.557 456.084Z" fill="white"/>
<path d="M1134.54 552.148L1259.93 571.603V650.239H1134.54V552.148Z" fill="#FBBC04"/>
<path d="M1167.94 557.33V610.246L1151.45 608.083L1150.55 554.631L1167.94 557.33Z" fill="#C4342D"/>
<path d="M1178.05 558.898V601.193H1187.97V560.439L1178.05 558.898Z" fill="#C4342D"/>
<path d="M1195.89 561.667V601.193H1205.01V563.083L1195.89 561.667Z" fill="#C4342D"/>
<path d="M1211.58 564.102V592.681H1219.35V565.307L1211.58 564.102Z" fill="#C4342D"/>
<path d="M1226.58 566.428L1228.01 597.815L1259.93 610.246V571.603L1226.58 566.428Z" fill="#C4342D"/>
<path d="M705.635 356.778L587.148 396.5L590.395 662.398L705.635 675.369V356.778Z" fill="#C99105"/>
<path d="M688.604 362.487L681.278 672.628L705.635 675.369V356.778L688.604 362.487Z" fill="#C4342D"/>
<path d="M629.619 410.011L628.267 478.107L615.282 477.026L616.635 414.335L629.619 410.011Z" fill="#336BBC"/>
<path d="M629.349 411.093V423.252L620.016 425.684V414.335L629.349 411.093Z" fill="white"/>
<path d="M705.635 356.778L1139.01 477.567L1144.69 651.86L705.635 675.369V356.778Z" fill="#EA4335"/>
<path d="M1029.25 441.765V420.01L959.111 398.932V421.389L1029.25 441.765Z" fill="#FBBC04"/>
<path d="M959.111 398.932L906.631 411.363V434.061L959.111 421.389V398.932Z" fill="#FBBC04"/>
<path d="M1127.37 470.27L779.487 369.207L775.7 689.15L1127.37 664.29V470.27Z" fill="#FBBC04"/>
<path d="M779.487 369.207L767.584 374.613L763.797 682.125L775.7 689.15L779.487 369.207Z" fill="#C99105"/>
<path d="M835.214 413.524V455.949L812.22 451.625V408.12L835.214 413.524Z" fill="#4285F4"/>
<path d="M899.326 428.656V470L878.767 465.406V424.334L899.326 428.656Z" fill="#4285F4"/>
<path d="M835.214 505.94V552.148L812.22 549.176V502.427L835.214 505.94Z" fill="#4285F4"/>
<path d="M878.767 512.154L899.326 514.857V560.795L878.767 558.093V512.154Z" fill="#4285F4"/>
<path d="M984.269 451.085L985.352 504.589L973.99 503.508L972.908 448.653L984.269 451.085Z" fill="#4285F4"/>
<path d="M1009.16 457.03L1018.35 459.732L1019.71 512.154L1009.16 509.453V457.03Z" fill="#4285F4"/>
<path d="M1082.47 476.621V507.292L1070.63 504.589V473.31L1082.47 476.621Z" fill="#4285F4"/>
<path d="M1104.51 481.62L1114.86 484.593V514.857L1104.51 512.154V481.62Z" fill="#4285F4"/>
<path d="M1115.88 545.866L1105.73 543.839V564.105L1115.88 566.739V545.866Z" fill="#4285F4"/>
<path d="M1083.82 542.42L1071.65 540.799V564.714L1083.82 565.524V542.42Z" fill="#4285F4"/>
<path d="M831.224 426.495V453.855L813.166 451.22V423.658L831.224 426.495Z" fill="white"/>
<path d="M894.931 439.669V467.636L879.917 464.799V437.236L894.931 439.669Z" fill="white"/>
<path d="M832.644 519.113L813.166 516.478V545.257L832.644 547.892V519.113Z" fill="white"/>
<path d="M879.917 525.801L896.351 527.828V552.148L879.917 550.016V525.801Z" fill="white"/>
<path d="M981.158 462.164L973.855 459.935V501.482L981.158 502.495V462.164Z" fill="white"/>
<path d="M1015.45 470.473L1008.75 469.46L1009.56 508.575H1015.45V470.473Z" fill="white"/>
<path d="M1078.68 486.484L1071.92 484.998V503.913L1078.68 504.859V486.484Z" fill="white"/>
<path d="M1111.28 494.321L1105.33 493.509V510.534L1111.82 511.344L1111.28 494.321Z" fill="white"/>
<path d="M639.088 475.946L636.045 698.353L387.348 717.809L386.333 442.708L639.088 475.946Z" fill="#FBBC04"/>
<path d="M639.088 475.946L630.972 468.245L386.333 436.223V442.708L639.088 475.946Z" fill="#C4342D"/>
<path d="M639.088 475.946L602.71 471.161L602.884 700.726L636.162 698.552L639.088 475.946Z" fill="#EA4335"/>
<path d="M555.556 464.961L553.734 704.793L501.235 708.899L504.655 458.267L555.556 464.961Z" fill="#EA4335"/>
<path d="M445.667 450.815L442.085 713.527L386.333 717.889V442.708L445.667 450.815Z" fill="#EA4335"/>
<path d="M602.71 511.412V549.31L554.93 547.481L555.075 507.359L602.71 510.399V511.412Z" fill="white"/>
<path d="M503.896 503.617L503.473 544.936L444.431 541.498L444.723 499.766L503.896 503.617Z" fill="white"/>
<path d="M474.513 506.244L448.543 503.609V539.279L474.513 540.697V506.244Z" stroke="#4285F4" stroke-width="2" stroke-miterlimit="10"/>
<path d="M500.077 508.676L474.513 506.244V540.697L500.077 542.724V508.676Z" stroke="#4285F4" stroke-width="2" stroke-miterlimit="10"/>
<path d="M502.621 607.325L502.058 648.64L442.977 648.142L443.546 606.399L502.621 607.325Z" fill="white"/>
<path d="M474.391 610.719L447.205 609.165V644.833L474.391 645.172V610.719Z" stroke="#4285F4" stroke-width="2" stroke-miterlimit="10"/>
<path d="M499.955 610.719H474.391V645.172L499.955 644.766V610.719Z" stroke="#4285F4" stroke-width="2" stroke-miterlimit="10"/>
<path d="M602.71 607.273V648.617L554.327 647.873V606.125L602.71 607.273Z" fill="white"/>
<path d="M578.018 610.719L556.14 610.246V645.915L578.018 645.172V610.719Z" stroke="#4285F4" stroke-width="2" stroke-miterlimit="10"/>
<path d="M601.248 610.719H578.627V645.172L601.248 644.766V610.719Z" stroke="#4285F4" stroke-width="2" stroke-miterlimit="10"/>
<path d="M600.854 515.845L577.049 513.954L577.444 546.222L600.854 547.333L600.854 515.845Z" stroke="#4285F4" stroke-width="2" stroke-miterlimit="10"/>
<path d="M577.049 513.954L557.167 512.468V545.164L577.049 546.222V513.954Z" stroke="#4285F4" stroke-width="2" stroke-miterlimit="10"/>
<path d="M441.243 482.333L440.82 500.366L454.25 498.857L453.087 487.882L441.243 482.333Z" fill="#0C753E"/>
<path d="M441.243 482.333L447.907 492.423C447.907 492.423 450.943 496.158 447.788 497.489L440.82 500.366L507.032 506.785C507.032 506.785 522.004 508.758 511.56 495.437L507.441 489.36L441.243 482.333Z" fill="#0F9D58"/>
<path d="M549.895 493.444L560.699 500.052L560.537 506.941L549.504 510.127L549.895 493.444Z" fill="#0C753E"/>
<path d="M549.895 493.444L605.195 497.852C605.195 497.852 619.787 516.034 607.877 513.322L549.504 510.127C549.504 510.127 567.206 508.174 549.895 493.444Z" fill="#0F9D58"/>
<path d="M622.451 559.038L763.661 542.825V707.795L622.451 699.688V559.038Z" fill="#0C753E"/>
<path d="M763.661 542.825L975.121 561.936L974.908 685.928L763.661 707.795V542.825Z" fill="#0F9D58"/>
<path d="M763.661 538.096V542.825L975.121 561.936L974.908 558.438L763.661 538.096Z" fill="#EA4335"/>
<path d="M763.661 538.096L622.451 555.39V559.038L763.661 542.825V538.096Z" fill="#C4342D"/>
<path d="M691.433 601.395V654.494L652.479 651.454V599.268L691.433 601.395Z" fill="#4285F4"/>
<path d="M657.145 648.617V602.815H691.433V651.252L657.145 648.617Z" fill="white"/>
<path d="M693.056 580.926L675.405 595.721H635.232L651.058 582.75L693.056 580.926Z" fill="#EA4335"/>
<path d="M693.056 601.395H675.811L675.405 595.721L693.056 580.926V601.395Z" fill="#C4342D"/>
<path d="M635.232 602.815L675.811 601.395L675.405 595.721H635.232V602.815Z" fill="#C4342D"/>
<path d="M755.141 581.94V601.395L740.126 600.382V580.926L755.141 581.94Z" fill="#4285F4"/>
<path d="M742.765 583.764H755.141V601.395L742.765 600.56V583.764Z" fill="white"/>
<path d="M954.58 602.915V648.617L918.263 650.846V601.801L954.58 602.915Z" fill="#4285F4"/>
<path d="M951.334 646.996L919.683 648.617V604.841H951.334V646.996Z" fill="white"/>
<path d="M957.42 588.447H914.814L929.219 599.572L968.579 600.585L957.42 588.447Z" fill="#EA4335"/>
<path d="M914.814 606.259V588.447L929.219 599.572V606.259H914.814Z" fill="#C4342D"/>
<path d="M968.579 600.585V606.259H929.219V599.572L968.579 600.585Z" fill="#C4342D"/>
<path d="M1072.19 656.723H1017.27V683.475L1032.15 694.824C1032.15 694.824 1086.26 693.473 1108.44 685.907V682.124H1102.76V678.072H1096.26V672.126H1091.94L1091.9 669.424H1088.42L1087.88 666.451H1083.28L1082.47 662.398L1072.19 656.724L1072.19 656.723Z" fill="#0F9D58"/>
<path d="M1035.4 693.744V691.041L1032.15 688.61V683.476L1029.72 682.125V678.341L1027.01 677.26V673.478L1021.99 671.451L1006.72 662.398L1022.14 687.259L1032.15 694.824H1035.4V693.744Z" fill="#0C753E"/>
<path d="M1070 548.794L1220.43 574.036V576.062L1106.75 566.211L1070 548.794Z" fill="#EA4335"/>
<path d="M1040.54 555.661C1040.54 555.661 1079.9 534.606 1106.75 566.211H1038.78L1040.54 555.661H1040.54Z" fill="#C4342D"/>
<path d="M1090.85 566.211C1090.85 566.211 1080.89 554.58 1057.19 554.58L962.088 542.42L918.669 551.743V554.315L956.406 557.012L982.377 559.475L1090.85 566.212V566.211Z" fill="#EA4335"/>
<path d="M974.908 685.928L1022.14 687.259L1020.92 560.254L975.121 561.936L974.908 685.928Z" fill="#0C753E"/>
<path d="M1022.14 687.259L1027.01 691.041V592.141L1090.85 594.517V568.091L1020.92 560.254L1022.14 687.259Z" fill="#EA4335"/>
<path d="M1178.76 665.296L1112.36 672.126V597.354L1178.96 599.515L1178.76 665.296Z" fill="url(#paint0_linear_56_5)"/>
<path d="M1172.76 652.938L1167.17 653.722V610.141L1172.78 610.762L1172.76 652.938Z" fill="white"/>
<path d="M1166 653.733L1160.41 654.548V609.316L1166.01 609.961L1166 653.733Z" fill="white"/>
<path d="M1145.83 656.209L1140.24 657.115V606.748L1145.84 607.467L1145.83 656.209Z" fill="white"/>
<path d="M1139.06 657.126L1133.48 658.067V605.797L1139.08 606.542L1139.06 657.126Z" fill="white"/>
<path d="M1118.89 656.86L1113.31 657.791V606.072L1118.91 606.81L1118.89 656.86Z" fill="white"/>
<path d="M1111.74 608.79V649.309L1106.78 650.282V609.6L1111.74 608.79Z" fill="#000008"/>
<path d="M1090.85 594.517L1091.94 672.126H1096.26V678.071H1102.76V682.125H1108.44L1106.54 568.091H1090.85V594.517Z" fill="#C4342D"/>
<path d="M975.121 561.936L1020.92 560.254V557.011L974.927 558.768L975.121 561.936Z" fill="#C99105"/>
<path d="M1020.92 560.254L1090.85 568.091V566.211L1020.92 557.011V560.254Z" fill="#FBBC04"/>
<path d="M1090.85 566.211H1106.75L1106.54 568.091H1090.85V566.211Z" fill="#C99105"/>
<path d="M1090.85 594.517L1048.11 597.354L1050.55 662.398H1082.47L1083.28 666.451H1087.88L1088.42 669.424H1091.9L1090.85 594.517Z" fill="white"/>
<path d="M1048.11 597.354H1027.01V592.141L1087.38 594.747L1048.11 597.354Z" fill="#C4342D"/>
<path d="M1050.55 662.398H1027.01V597.354H1048.11L1050.55 662.398Z" fill="white"/>
<path d="M1218.34 672.734L1112.36 685.57V672.126L1178.76 665.296L1218.34 672.734Z" fill="#F7FFF9"/>
<path d="M1178.76 599.505V665.296L1218.34 672.734V600.788L1178.76 599.505Z" fill="#BCBCBC"/>
<path d="M1220.43 672.531L1247.55 667.87L1245.32 581.332L1220.43 579.507V672.531Z" fill="#C4342D"/>
<path d="M1240.99 668.998V604.233L1222.87 602.949V672.126L1240.99 668.998Z" fill="white"/>
<path d="M1108.44 685.907L1112.36 685.57V597.354L1218.34 600.788V672.734L1220.43 672.531V579.507L1106.54 568.091L1108.44 685.907Z" fill="#EA4335"/>
<path d="M1247.55 667.87L1269.67 663.074V588.447L1245.46 586.699L1247.55 667.87Z" fill="#0F9D58"/>
<path d="M1106.54 568.091L1220.43 579.507V576.062L1106.75 566.211L1106.54 568.091Z" fill="#FBBC04"/>
<path d="M1220.33 579.486L1245.46 581.387V577.943L1220.43 576.062L1220.33 579.486Z" fill="#C99105"/>
</g>
<path d="M1825 337.111C1813.95 337.111 1805 346.065 1805 357.111H1845C1845 346.065 1836.05 337.111 1825 337.111Z" fill="#34A853"/>
<path d="M1825 303.778C1813.95 303.778 1805 312.732 1805 323.778H1845C1845 312.732 1836.05 303.778 1825 303.778Z" fill="#EA4335"/>
<path d="M1825 270.444C1813.95 270.444 1805 279.399 1805 290.444H1845C1845 279.399 1836.05 270.444 1825 270.444Z" fill="#4285F4"/>
<ellipse cx="1808.89" cy="208.778" rx="2.77778" ry="2.77778" fill="#656C73"/>
<ellipse cx="1825.56" cy="208.778" rx="2.77778" ry="2.77778" fill="#656C73"/>
<ellipse cx="1842.22" cy="208.778" rx="2.77778" ry="2.77778" fill="#656C73"/>
<ellipse cx="1808.89" cy="225.444" rx="2.77778" ry="2.77778" fill="#656C73"/>
<ellipse cx="1825.56" cy="225.444" rx="2.77778" ry="2.77778" fill="#656C73"/>
<ellipse cx="1842.22" cy="225.444" rx="2.77778" ry="2.77778" fill="#656C73"/>
<ellipse cx="1808.89" cy="242.111" rx="2.77778" ry="2.77778" fill="#656C73"/>
<ellipse cx="1825.56" cy="242.111" rx="2.77778" ry="2.77778" fill="#656C73"/>
<ellipse cx="1842.22" cy="242.111" rx="2.77778" ry="2.77778" fill="#656C73"/>
<ellipse cx="1391.33" cy="294.917" rx="15.5316" ry="15.4229" transform="rotate(-165 1391.33 294.917)" fill="#34A853"/>
<path d="M1404.67 309.833C1412.58 338.194 1396.98 368.102 1368.75 377.613C1340.51 387.125 1309.99 372.756 1299.13 345.39L1404.67 309.833Z" stroke="#656C73" stroke-width="6"/>
<ellipse cx="1307.13" cy="309.758" rx="28.1315" ry="28.1315" fill="#FBBC04"/>
<line x1="1536.56" y1="2" x2="1536.56" y2="182" stroke="#656C73" stroke-width="2"/>
<line x1="1502.11" y1="2" x2="1502.11" y2="110.889" stroke="#656C73" stroke-width="2"/>
<circle cx="1536.67" cy="180.889" r="14.4444" fill="#FBBC04"/>
<ellipse cx="1502.22" cy="115.333" rx="11.1111" ry="11.1111" fill="#4285F4"/>
<mask id="path-259-inside-1_56_5" fill="white">
<path d="M0 249L-2.18557e-06 199L229.444 199C243.252 199 254.444 210.193 254.444 224C254.444 237.807 243.252 249 229.444 249L0 249Z"/>
</mask>
<path d="M0 249L-2.18557e-06 199L0 249ZM229.444 196C244.908 196 257.444 208.536 257.444 224C257.444 239.464 244.908 252 229.444 252L229.444 246C241.595 246 251.444 236.15 251.444 224C251.444 211.85 241.595 202 229.444 202L229.444 196ZM257.444 224C257.444 239.464 244.908 252 229.444 252L1.31134e-07 252L-1.31134e-07 246L229.444 246C241.595 246 251.444 236.15 251.444 224L257.444 224ZM-2.3167e-06 196L229.444 196C244.908 196 257.444 208.536 257.444 224L251.444 224C251.444 211.85 241.595 202 229.444 202L-2.05443e-06 202L-2.3167e-06 196Z" fill="#656C73" mask="url(#path-259-inside-1_56_5)"/>
<path d="M130 224.556C130 218.419 125.025 213.444 118.889 213.444L118.889 235.667C125.025 235.667 130 230.692 130 224.556Z" fill="#EA4335"/>
<path d="M163.333 224.556C163.333 218.419 158.359 213.444 152.222 213.444L152.222 235.667C158.359 235.667 163.333 230.692 163.333 224.556Z" fill="#4285F4"/>
<path d="M196.667 224.556C196.667 218.419 191.692 213.444 185.556 213.444L185.556 235.667C191.692 235.667 196.667 230.692 196.667 224.556Z" fill="#FBBC04"/>
<path d="M232.222 216.778L216.667 232.333" stroke="#656C73" stroke-width="3" stroke-linecap="round"/>
<path d="M232.222 232.333L216.667 216.778" stroke="#656C73" stroke-width="3" stroke-linecap="round"/>
<ellipse cx="62.7778" cy="216.222" rx="2.77778" ry="2.77778" fill="#656C73"/>
<ellipse cx="12.7778" cy="216.222" rx="2.77778" ry="2.77778" fill="#656C73"/>
<ellipse cx="79.4444" cy="216.222" rx="2.77778" ry="2.77778" fill="#656C73"/>
<ellipse cx="29.4444" cy="216.222" rx="2.77778" ry="2.77778" fill="#656C73"/>
<ellipse cx="96.1112" cy="216.222" rx="2.77778" ry="2.77778" fill="#656C73"/>
<ellipse cx="46.1112" cy="216.222" rx="2.77778" ry="2.77778" fill="#656C73"/>
<ellipse cx="62.7778" cy="232.889" rx="2.77778" ry="2.77778" fill="#656C73"/>
<ellipse cx="12.7778" cy="232.889" rx="2.77778" ry="2.77778" fill="#656C73"/>
<ellipse cx="79.4444" cy="232.889" rx="2.77778" ry="2.77778" fill="#656C73"/>
<ellipse cx="29.4444" cy="232.889" rx="2.77778" ry="2.77778" fill="#656C73"/>
<ellipse cx="96.1112" cy="232.889" rx="2.77778" ry="2.77778" fill="#656C73"/>
<ellipse cx="46.1112" cy="232.889" rx="2.77778" ry="2.77778" fill="#656C73"/>
<path d="M1643.54 551.557L1636.99 545.005L1643.54 538.454C1644.64 537.352 1644.64 535.567 1643.54 534.465C1642.44 533.362 1640.66 533.364 1639.55 534.467L1633 541.018L1626.45 534.468C1625.35 533.366 1623.57 533.366 1622.47 534.466C1621.36 535.568 1621.36 537.353 1622.47 538.455L1629.02 545.005L1622.47 551.554C1621.36 552.656 1621.36 554.441 1622.46 555.541C1623.57 556.644 1625.35 556.644 1626.45 555.541L1633 548.992L1639.55 555.544C1640.66 556.647 1642.44 556.645 1643.54 555.542C1644.64 554.445 1644.64 552.66 1643.54 551.557Z" fill="#4285F4"/>
<path d="M1689.38 471.54L1695.93 478.092L1702.48 471.54C1703.58 470.439 1705.37 470.439 1706.47 471.54C1707.57 472.643 1707.57 474.426 1706.47 475.527L1699.92 482.079L1706.47 488.629C1707.57 489.732 1707.57 491.515 1706.47 492.616C1705.37 493.719 1703.58 493.717 1702.48 492.616L1695.93 486.066L1689.38 492.616C1688.28 493.719 1686.5 493.719 1685.39 492.616C1684.29 491.513 1684.29 489.729 1685.39 488.629L1691.94 482.079L1685.39 475.527C1684.29 474.423 1684.29 472.64 1685.39 471.54C1686.5 470.436 1688.28 470.439 1689.38 471.54Z" fill="#4285F4"/>
<path d="M1563.53 597.396L1570.08 603.948L1576.63 597.397C1577.73 596.294 1579.52 596.294 1580.62 597.395C1581.72 598.497 1581.72 600.282 1580.62 601.384L1574.06 607.935L1580.61 614.485C1581.72 615.588 1581.71 617.37 1580.61 618.472C1579.51 619.575 1577.73 619.572 1576.63 618.472L1570.08 611.922L1563.53 618.471C1562.43 619.574 1560.64 619.574 1559.54 618.471C1558.44 617.368 1558.44 615.586 1559.54 614.484L1566.09 607.935L1559.54 601.383C1558.44 600.28 1558.44 598.496 1559.54 597.396C1560.64 596.293 1562.42 596.293 1563.53 597.396Z" fill="#4285F4"/>
<path d="M1583.58 481.724C1583.58 489.21 1577.51 495.279 1570.02 495.279C1562.54 495.279 1556.47 489.21 1556.47 481.724C1556.47 474.237 1562.54 468.168 1570.02 468.168C1577.51 468.168 1583.58 474.237 1583.58 481.724Z" stroke="#FBBC04" stroke-width="4"/>
<path d="M1646.91 481.724C1646.91 489.21 1640.84 495.279 1633.36 495.279C1625.87 495.279 1619.8 489.21 1619.8 481.724C1619.8 474.237 1625.87 468.168 1633.36 468.168C1640.84 468.168 1646.91 474.237 1646.91 481.724Z" stroke="#FBBC04" stroke-width="4"/>
<path d="M1710.25 545.057C1710.25 552.544 1704.18 558.613 1696.69 558.613C1689.2 558.613 1683.13 552.544 1683.13 545.057C1683.13 537.571 1689.2 531.501 1696.69 531.501C1704.18 531.501 1710.25 537.571 1710.25 545.057Z" stroke="#FBBC04" stroke-width="4"/>
<path d="M1583.58 545.057C1583.58 552.544 1577.51 558.613 1570.02 558.613C1562.54 558.613 1556.47 552.544 1556.47 545.057C1556.47 537.571 1562.54 531.501 1570.02 531.501C1577.51 531.501 1583.58 537.571 1583.58 545.057Z" stroke="#FBBC04" stroke-width="4"/>
<path d="M1646.91 608.39C1646.91 615.877 1640.84 621.946 1633.36 621.946C1625.87 621.946 1619.8 615.877 1619.8 608.39C1619.8 600.904 1625.87 594.835 1633.36 594.835C1640.84 594.835 1646.91 600.904 1646.91 608.39Z" stroke="#FBBC04" stroke-width="4"/>
<path d="M1709.13 608.39C1709.13 615.877 1703.07 621.946 1695.58 621.946C1688.09 621.946 1682.02 615.877 1682.02 608.39C1682.02 600.904 1688.09 594.835 1695.58 594.835C1703.07 594.835 1709.13 600.904 1709.13 608.39Z" stroke="#FBBC04" stroke-width="4"/>
<path d="M191.383 69.4824C191.24 69.4954 191.132 69.5443 191.061 69.6289C190.995 69.707 190.963 69.7982 190.963 69.9023V74.5215C190.559 74.6712 190.13 74.8047 189.674 74.9219C189.283 75.026 188.834 75.1172 188.326 75.1953C187.825 75.2799 187.304 75.3223 186.764 75.3223C186.021 75.3223 185.331 75.2344 184.693 75.0586C184.062 74.8828 183.486 74.6354 182.965 74.3164C182.451 73.9974 181.995 73.6198 181.598 73.1836C181.201 72.7409 180.865 72.2591 180.592 71.7383C180.325 71.2174 180.123 70.6641 179.986 70.0781C179.85 69.4857 179.781 68.8802 179.781 68.2617C179.781 67.2135 179.947 66.2598 180.279 65.4004C180.611 64.5345 181.09 63.7956 181.715 63.1836C182.34 62.5716 183.098 62.0996 183.99 61.7676C184.889 61.429 185.898 61.2598 187.018 61.2598C187.356 61.2598 187.682 61.2793 187.994 61.3184C188.313 61.3509 188.619 61.3965 188.912 61.4551C189.205 61.5072 189.492 61.569 189.771 61.6406L190.611 61.8555L190.943 61.9434V65.1758H189.742L189.42 63.3789C189.4 63.2617 189.352 63.1641 189.273 63.0859C189.195 63.0013 189.111 62.9395 189.02 62.9004C188.993 62.8939 188.954 62.8776 188.902 62.8516C188.798 62.806 188.678 62.7572 188.541 62.7051C188.404 62.653 188.251 62.6042 188.082 62.5586C187.919 62.5065 187.74 62.4642 187.545 62.4316C187.356 62.3991 187.154 62.3828 186.939 62.3828C186.217 62.3828 185.556 62.5098 184.957 62.7637C184.358 63.0176 183.844 63.3887 183.414 63.877C182.984 64.3652 182.649 64.9707 182.408 65.6934C182.174 66.4095 182.057 67.2331 182.057 68.1641C182.057 69.1211 182.177 69.974 182.418 70.7227C182.659 71.4714 183.001 72.1029 183.443 72.6172C183.893 73.1315 184.433 73.5254 185.064 73.7988C185.696 74.0658 186.402 74.1992 187.184 74.1992C187.405 74.1992 187.617 74.1829 187.818 74.1504C188.02 74.1178 188.199 74.0853 188.355 74.0527C188.512 74.0137 188.642 73.9779 188.746 73.9453C188.85 73.9128 188.915 73.8965 188.941 73.8965V69.9023C188.941 69.7982 188.906 69.707 188.834 69.6289C188.769 69.5443 188.665 69.4954 188.521 69.4824L187.184 69.3848V68.5156H192.398V69.3848L191.383 69.4824ZM206.051 68.2617C206.051 68.8411 205.995 69.4108 205.885 69.9707C205.774 70.5306 205.602 71.0612 205.367 71.5625C205.133 72.0638 204.83 72.526 204.459 72.9492C204.094 73.3659 203.655 73.7272 203.141 74.0332C202.626 74.3392 202.034 74.5768 201.363 74.7461C200.693 74.9154 199.941 75 199.107 75H193.551V74.1406L194.605 74.0625C194.749 74.0495 194.856 73.9974 194.928 73.9062C195.006 73.8151 195.045 73.7207 195.045 73.623V62.959C195.045 62.8613 195.006 62.7669 194.928 62.6758C194.856 62.5846 194.749 62.5326 194.605 62.5195L193.551 62.4414V61.582H198.707C199.755 61.582 200.729 61.7155 201.627 61.9824C202.525 62.2428 203.3 62.6465 203.951 63.1934C204.609 63.7402 205.123 64.4336 205.494 65.2734C205.865 66.1133 206.051 67.1094 206.051 68.2617ZM203.785 68.3008C203.785 67.2526 203.661 66.3639 203.414 65.6348C203.173 64.8991 202.825 64.3034 202.369 63.8477C201.92 63.3854 201.373 63.0534 200.729 62.8516C200.09 62.6432 199.378 62.5391 198.59 62.5391H197.066V74.043L198.688 74.0234C199.456 74.0169 200.152 73.9095 200.777 73.7012C201.409 73.4863 201.946 73.151 202.389 72.6953C202.831 72.2396 203.173 71.6504 203.414 70.9277C203.661 70.2051 203.785 69.3294 203.785 68.3008ZM216.471 71.2402C216.471 71.748 216.37 72.2461 216.168 72.7344C215.973 73.2227 215.66 73.6589 215.23 74.043C214.801 74.4271 214.251 74.7363 213.58 74.9707C212.91 75.2051 212.105 75.3223 211.168 75.3223C210.621 75.3223 210.13 75.2832 209.693 75.2051C209.264 75.127 208.893 75.0423 208.58 74.9512C208.222 74.8405 207.9 74.7168 207.613 74.5801V71.0352H208.873L209.137 73.3008C209.15 73.3789 209.189 73.4635 209.254 73.5547C209.326 73.6458 209.397 73.7077 209.469 73.7402L209.635 73.8281C209.732 73.8737 209.866 73.9258 210.035 73.9844C210.204 74.0365 210.41 74.0853 210.65 74.1309C210.898 74.1764 211.178 74.1992 211.49 74.1992C211.913 74.1992 212.304 74.1471 212.662 74.043C213.027 73.9323 213.339 73.776 213.6 73.5742C213.86 73.3724 214.062 73.125 214.205 72.832C214.355 72.5391 214.43 72.207 214.43 71.8359C214.43 71.4323 214.312 71.0807 214.078 70.7812C213.85 70.4753 213.561 70.2051 213.209 69.9707C212.864 69.7298 212.486 69.515 212.076 69.3262C211.666 69.1374 211.279 68.9551 210.914 68.7793C210.504 68.584 210.11 68.3822 209.732 68.1738C209.361 67.9655 209.033 67.7246 208.746 67.4512C208.466 67.1777 208.242 66.8587 208.072 66.4941C207.91 66.123 207.828 65.6836 207.828 65.1758C207.828 64.5833 207.945 64.0462 208.18 63.5645C208.414 63.0827 208.736 62.6725 209.146 62.334C209.563 61.9889 210.051 61.7253 210.611 61.543C211.178 61.3542 211.79 61.2598 212.447 61.2598C212.805 61.2598 213.141 61.2793 213.453 61.3184C213.766 61.3574 214.059 61.4095 214.332 61.4746C214.612 61.5332 214.872 61.6016 215.113 61.6797C215.354 61.7513 215.582 61.8197 215.797 61.8848L215.973 61.9434V65.0586H214.83L214.527 63.1445C214.514 63.0534 214.472 62.9883 214.4 62.9492C214.335 62.9036 214.273 62.8516 214.215 62.793C214.189 62.7734 214.137 62.7409 214.059 62.6953C213.98 62.6432 213.87 62.5911 213.727 62.5391C213.59 62.487 213.417 62.4414 213.209 62.4023C213.001 62.3633 212.757 62.3438 212.477 62.3438C212.073 62.3438 211.712 62.4023 211.393 62.5195C211.074 62.6367 210.803 62.8027 210.582 63.0176C210.361 63.2259 210.188 63.4733 210.064 63.7598C209.947 64.0462 209.889 64.3587 209.889 64.6973C209.889 65.0033 209.947 65.2832 210.064 65.5371C210.188 65.7845 210.367 66.0156 210.602 66.2305C210.842 66.4388 211.135 66.6341 211.48 66.8164C211.826 66.9987 212.223 67.1745 212.672 67.3438C213.277 67.5716 213.814 67.8092 214.283 68.0566C214.758 68.304 215.156 68.5807 215.475 68.8867C215.8 69.1927 216.048 69.5378 216.217 69.9219C216.386 70.2995 216.471 70.7389 216.471 71.2402ZM229.02 74.541C228.993 74.554 228.867 74.6029 228.639 74.6875C228.411 74.7656 228.115 74.8535 227.75 74.9512C227.385 75.0423 226.965 75.127 226.49 75.2051C226.021 75.2832 225.533 75.3223 225.025 75.3223C224.277 75.3223 223.583 75.2311 222.945 75.0488C222.314 74.873 221.738 74.6257 221.217 74.3066C220.702 73.9876 220.247 73.6068 219.85 73.1641C219.459 72.7214 219.127 72.2396 218.854 71.7188C218.587 71.1979 218.385 70.6445 218.248 70.0586C218.111 69.4727 218.043 68.8737 218.043 68.2617C218.043 67.2266 218.212 66.2793 218.551 65.4199C218.889 64.5605 219.365 63.8249 219.977 63.2129C220.589 62.5944 221.324 62.1159 222.184 61.7773C223.043 61.4323 223.997 61.2598 225.045 61.2598C225.37 61.2598 225.683 61.2793 225.982 61.3184C226.288 61.3509 226.598 61.3997 226.91 61.4648C227.223 61.5299 227.551 61.6113 227.896 61.709C228.242 61.8066 228.616 61.9173 229.02 62.041V65.1758H227.818L227.525 63.3594C227.499 63.2487 227.451 63.1543 227.379 63.0762C227.307 62.9915 227.242 62.9329 227.184 62.9004L227.105 62.8613C227.021 62.8223 226.913 62.7767 226.783 62.7246C226.653 62.666 226.503 62.6139 226.334 62.5684C226.171 62.5163 225.989 62.474 225.787 62.4414C225.585 62.4023 225.37 62.3828 225.143 62.3828C224.459 62.3828 223.824 62.5098 223.238 62.7637C222.652 63.0176 222.145 63.3919 221.715 63.8867C221.285 64.3815 220.947 64.9967 220.699 65.7324C220.458 66.4616 220.338 67.3047 220.338 68.2617C220.338 69.1927 220.452 70.026 220.68 70.7617C220.914 71.4974 221.249 72.1224 221.686 72.6367C222.122 73.151 222.652 73.5449 223.277 73.8184C223.902 74.0853 224.612 74.2188 225.406 74.2188C225.641 74.2188 225.852 74.2025 226.041 74.1699C226.236 74.1374 226.406 74.1016 226.549 74.0625C226.692 74.0169 226.803 73.9779 226.881 73.9453C226.959 73.9062 227.005 73.8835 227.018 73.877C227.122 73.8379 227.206 73.7826 227.271 73.7109C227.337 73.6393 227.379 73.5612 227.398 73.4766L227.857 71.2988H229.02V74.541ZM231.002 71.1426V69.6777H235.924V71.1426H231.002ZM250.289 68.2617C250.289 68.8411 250.234 69.4108 250.123 69.9707C250.012 70.5306 249.84 71.0612 249.605 71.5625C249.371 72.0638 249.068 72.526 248.697 72.9492C248.333 73.3659 247.893 73.7272 247.379 74.0332C246.865 74.3392 246.272 74.5768 245.602 74.7461C244.931 74.9154 244.179 75 243.346 75H237.789V74.1406L238.844 74.0625C238.987 74.0495 239.094 73.9974 239.166 73.9062C239.244 73.8151 239.283 73.7207 239.283 73.623V62.959C239.283 62.8613 239.244 62.7669 239.166 62.6758C239.094 62.5846 238.987 62.5326 238.844 62.5195L237.789 62.4414V61.582H242.945C243.993 61.582 244.967 61.7155 245.865 61.9824C246.764 62.2428 247.538 62.6465 248.189 63.1934C248.847 63.7402 249.361 64.4336 249.732 65.2734C250.104 66.1133 250.289 67.1094 250.289 68.2617ZM248.023 68.3008C248.023 67.2526 247.9 66.3639 247.652 65.6348C247.411 64.8991 247.063 64.3034 246.607 63.8477C246.158 63.3854 245.611 63.0534 244.967 62.8516C244.329 62.6432 243.616 62.5391 242.828 62.5391H241.305V74.043L242.926 74.0234C243.694 74.0169 244.391 73.9095 245.016 73.7012C245.647 73.4863 246.184 73.151 246.627 72.6953C247.07 72.2396 247.411 71.6504 247.652 70.9277C247.9 70.2051 248.023 69.3294 248.023 68.3008ZM260.709 71.2402C260.709 71.748 260.608 72.2461 260.406 72.7344C260.211 73.2227 259.898 73.6589 259.469 74.043C259.039 74.4271 258.489 74.7363 257.818 74.9707C257.148 75.2051 256.344 75.3223 255.406 75.3223C254.859 75.3223 254.368 75.2832 253.932 75.2051C253.502 75.127 253.131 75.0423 252.818 74.9512C252.46 74.8405 252.138 74.7168 251.852 74.5801V71.0352H253.111L253.375 73.3008C253.388 73.3789 253.427 73.4635 253.492 73.5547C253.564 73.6458 253.635 73.7077 253.707 73.7402L253.873 73.8281C253.971 73.8737 254.104 73.9258 254.273 73.9844C254.443 74.0365 254.648 74.0853 254.889 74.1309C255.136 74.1764 255.416 74.1992 255.729 74.1992C256.152 74.1992 256.542 74.1471 256.9 74.043C257.265 73.9323 257.577 73.776 257.838 73.5742C258.098 73.3724 258.3 73.125 258.443 72.832C258.593 72.5391 258.668 72.207 258.668 71.8359C258.668 71.4323 258.551 71.0807 258.316 70.7812C258.089 70.4753 257.799 70.2051 257.447 69.9707C257.102 69.7298 256.725 69.515 256.314 69.3262C255.904 69.1374 255.517 68.9551 255.152 68.7793C254.742 68.584 254.348 68.3822 253.971 68.1738C253.6 67.9655 253.271 67.7246 252.984 67.4512C252.704 67.1777 252.48 66.8587 252.311 66.4941C252.148 66.123 252.066 65.6836 252.066 65.1758C252.066 64.5833 252.184 64.0462 252.418 63.5645C252.652 63.0827 252.975 62.6725 253.385 62.334C253.801 61.9889 254.29 61.7253 254.85 61.543C255.416 61.3542 256.028 61.2598 256.686 61.2598C257.044 61.2598 257.379 61.2793 257.691 61.3184C258.004 61.3574 258.297 61.4095 258.57 61.4746C258.85 61.5332 259.111 61.6016 259.352 61.6797C259.592 61.7513 259.82 61.8197 260.035 61.8848L260.211 61.9434V65.0586H259.068L258.766 63.1445C258.753 63.0534 258.71 62.9883 258.639 62.9492C258.574 62.9036 258.512 62.8516 258.453 62.793C258.427 62.7734 258.375 62.7409 258.297 62.6953C258.219 62.6432 258.108 62.5911 257.965 62.5391C257.828 62.487 257.656 62.4414 257.447 62.4023C257.239 62.3633 256.995 62.3438 256.715 62.3438C256.311 62.3438 255.95 62.4023 255.631 62.5195C255.312 62.6367 255.042 62.8027 254.82 63.0176C254.599 63.2259 254.426 63.4733 254.303 63.7598C254.186 64.0462 254.127 64.3587 254.127 64.6973C254.127 65.0033 254.186 65.2832 254.303 65.5371C254.426 65.7845 254.605 66.0156 254.84 66.2305C255.081 66.4388 255.374 66.6341 255.719 66.8164C256.064 66.9987 256.461 67.1745 256.91 67.3438C257.516 67.5716 258.053 67.8092 258.521 68.0566C258.997 68.304 259.394 68.5807 259.713 68.8867C260.038 69.1927 260.286 69.5378 260.455 69.9219C260.624 70.2995 260.709 70.7389 260.709 71.2402ZM274.039 62.5195C273.896 62.5326 273.788 62.5846 273.717 62.6758C273.652 62.7669 273.619 62.8613 273.619 62.959V70.5566C273.619 71.377 273.508 72.0866 273.287 72.6855C273.066 73.2845 272.737 73.7793 272.301 74.1699C271.871 74.5605 271.334 74.8503 270.689 75.0391C270.051 75.2279 269.316 75.3223 268.482 75.3223C266.829 75.3223 265.602 74.9219 264.801 74.1211C264 73.3203 263.6 72.1322 263.6 70.5566V62.959C263.6 62.8613 263.564 62.7669 263.492 62.6758C263.427 62.5846 263.323 62.5326 263.18 62.5195L262.115 62.4414V61.582H267.203V62.4414L266.061 62.5195C265.917 62.5326 265.81 62.5846 265.738 62.6758C265.673 62.7669 265.641 62.8613 265.641 62.959V70.0391C265.641 70.625 265.686 71.1621 265.777 71.6504C265.868 72.1322 266.038 72.5456 266.285 72.8906C266.533 73.2357 266.874 73.5059 267.311 73.7012C267.753 73.89 268.323 73.9844 269.02 73.9844C269.71 73.9844 270.276 73.8835 270.719 73.6816C271.161 73.4798 271.51 73.2031 271.764 72.8516C272.018 72.4935 272.193 72.0736 272.291 71.5918C272.389 71.11 272.438 70.5924 272.438 70.0391V62.959C272.438 62.8613 272.398 62.7669 272.32 62.6758C272.249 62.5846 272.141 62.5326 271.998 62.5195L270.855 62.4414V61.582H275.201V62.4414L274.039 62.5195ZM285.377 71.543C285.377 71.8945 285.309 72.2396 285.172 72.5781C285.035 72.9102 284.84 73.2194 284.586 73.5059C284.339 73.7923 284.033 74.0495 283.668 74.2773C283.31 74.5052 282.906 74.681 282.457 74.8047V76.0156H281.383V74.9805C281.298 74.9935 281.214 75 281.129 75H280.602V76.0156H279.518V74.8242C279.094 74.707 278.707 74.5378 278.355 74.3164C278.004 74.0951 277.698 73.8281 277.438 73.5156C277.177 73.1966 276.975 72.8353 276.832 72.4316C276.689 72.0215 276.617 71.5723 276.617 71.084H278.463C278.463 71.4941 278.551 71.8848 278.727 72.2559C278.909 72.627 279.173 72.9297 279.518 73.1641V68.7793C279.094 68.6426 278.704 68.4831 278.346 68.3008C277.988 68.1185 277.678 67.9004 277.418 67.6465C277.158 67.3926 276.956 67.0964 276.812 66.7578C276.669 66.4193 276.598 66.0254 276.598 65.5762C276.598 65.1595 276.669 64.7819 276.812 64.4434C276.956 64.1048 277.154 63.8053 277.408 63.5449C277.669 63.278 277.978 63.0566 278.336 62.8809C278.694 62.6986 279.088 62.5586 279.518 62.4609V61.2793H280.602V62.3242H281.168C281.24 62.3242 281.311 62.3307 281.383 62.3438V61.2793H282.457V62.5C282.835 62.5977 283.186 62.7376 283.512 62.9199C283.837 63.0957 284.124 63.3138 284.371 63.5742C284.618 63.8281 284.82 64.1211 284.977 64.4531C285.133 64.7852 285.234 65.153 285.279 65.5566H283.639C283.58 65.2246 283.45 64.9219 283.248 64.6484C283.046 64.3685 282.783 64.1406 282.457 63.9648V68.0957C283.408 68.4212 284.13 68.8704 284.625 69.4434C285.126 70.0163 285.377 70.7161 285.377 71.543ZM281.383 69.2969L280.602 69.0625V73.5645C280.654 73.5775 280.702 73.584 280.748 73.584H281.139C281.217 73.584 281.298 73.5775 281.383 73.5645V69.2969ZM281.383 67.7832C281.383 67.347 281.38 66.9141 281.373 66.4844C281.373 66.0547 281.37 65.6576 281.363 65.293C281.363 64.9219 281.357 64.5931 281.344 64.3066C281.337 64.0137 281.327 63.7858 281.314 63.623H281.266C281.201 63.61 281.139 63.6003 281.08 63.5938C281.021 63.5872 280.96 63.584 280.895 63.584H280.602V67.5195C280.719 67.5716 280.842 67.6172 280.973 67.6562C281.103 67.6953 281.24 67.7376 281.383 67.7832ZM279.518 63.8379C279.166 64.0072 278.909 64.2415 278.746 64.541C278.583 64.834 278.502 65.1595 278.502 65.5176C278.502 65.6868 278.515 65.8431 278.541 65.9863C278.574 66.123 278.629 66.2565 278.707 66.3867C278.785 66.5104 278.889 66.6309 279.02 66.748C279.15 66.8587 279.316 66.9694 279.518 67.0801V63.8379ZM283.395 71.416C283.395 71.1035 283.323 70.8171 283.18 70.5566C283.043 70.2897 282.802 70.0456 282.457 69.8242V73.1836C282.789 72.9753 283.027 72.7116 283.17 72.3926C283.32 72.0736 283.395 71.748 283.395 71.416ZM302.066 75V74.2188L302.906 74.1602C303.023 74.1471 303.121 74.1016 303.199 74.0234C303.284 73.9453 303.326 73.8444 303.326 73.7207V68.5156C303.326 67.8841 303.18 67.4056 302.887 67.0801C302.594 66.748 302.099 66.582 301.402 66.582C301.018 66.582 300.641 66.6374 300.27 66.748C299.898 66.8522 299.544 66.9889 299.205 67.1582V73.7207C299.205 73.8444 299.244 73.9453 299.322 74.0234C299.4 74.1016 299.501 74.1471 299.625 74.1602L300.465 74.2188V75H295.943V74.2188L296.92 74.1602C297.044 74.1471 297.145 74.1016 297.223 74.0234C297.301 73.9453 297.34 73.8444 297.34 73.7207V66.7773H295.943V66.123L298.385 65.3613H299.205V66.3574C299.485 66.2012 299.768 66.0482 300.055 65.8984C300.348 65.7487 300.637 65.6152 300.924 65.498C301.21 65.3809 301.487 65.2897 301.754 65.2246C302.021 65.153 302.271 65.1172 302.506 65.1172C303.378 65.1172 304.042 65.3874 304.498 65.9277C304.954 66.4681 305.182 67.2266 305.182 68.2031V73.7207C305.182 73.8444 305.221 73.9453 305.299 74.0234C305.383 74.1016 305.484 74.1471 305.602 74.1602L306.48 74.2188V75H302.066ZM317.389 70.0391C317.389 70.8268 317.271 71.543 317.037 72.1875C316.809 72.8255 316.477 73.3724 316.041 73.8281C315.611 74.2773 315.081 74.6257 314.449 74.873C313.824 75.1204 313.118 75.2441 312.33 75.2441C312.148 75.2441 311.952 75.2344 311.744 75.2148C311.536 75.2018 311.344 75.1823 311.168 75.1562C310.96 75.1302 310.755 75.0977 310.553 75.0586V78.0371C310.553 78.1608 310.595 78.2585 310.68 78.3301C310.764 78.4017 310.868 78.444 310.992 78.457L312.174 78.584V79.3555H307.311V78.584L308.268 78.457C308.391 78.444 308.492 78.4017 308.57 78.3301C308.648 78.2585 308.688 78.1608 308.688 78.0371V66.7773H307.311V66.123L309.771 65.3613H310.553V66.3574C310.839 66.1296 311.145 65.9245 311.471 65.7422C311.751 65.5859 312.073 65.4427 312.438 65.3125C312.802 65.1823 313.18 65.1172 313.57 65.1172C314.085 65.1172 314.573 65.2344 315.035 65.4688C315.497 65.7031 315.901 66.0352 316.246 66.4648C316.598 66.8945 316.874 67.4121 317.076 68.0176C317.285 68.623 317.389 69.2969 317.389 70.0391ZM315.387 70.3223C315.387 69.8079 315.325 69.3229 315.201 68.8672C315.084 68.4049 314.908 68.0013 314.674 67.6562C314.439 67.3047 314.146 67.028 313.795 66.8262C313.45 66.6243 313.049 66.5234 312.594 66.5234C312.34 66.5234 312.089 66.556 311.842 66.6211C311.601 66.6862 311.386 66.7546 311.197 66.8262C310.976 66.9108 310.761 67.0085 310.553 67.1191V74.0039C310.709 74.0625 310.875 74.1146 311.051 74.1602C311.201 74.1992 311.373 74.235 311.568 74.2676C311.764 74.3001 311.965 74.3164 312.174 74.3164C312.721 74.3164 313.196 74.2057 313.6 73.9844C314.003 73.763 314.335 73.4701 314.596 73.1055C314.863 72.7344 315.061 72.3079 315.191 71.8262C315.322 71.3444 315.387 70.8431 315.387 70.3223ZM330.162 75V74.2188L331.002 74.1602C331.126 74.1471 331.227 74.1016 331.305 74.0234C331.383 73.9453 331.422 73.8444 331.422 73.7207V68.623C331.422 68.3105 331.393 68.0306 331.334 67.7832C331.275 67.5293 331.174 67.3145 331.031 67.1387C330.895 66.9629 330.712 66.8262 330.484 66.7285C330.257 66.6309 329.977 66.582 329.645 66.582C329.475 66.582 329.296 66.5983 329.107 66.6309C328.925 66.6569 328.74 66.696 328.551 66.748C328.368 66.7936 328.186 66.8522 328.004 66.9238C327.828 66.9889 327.662 67.0605 327.506 67.1387V73.7207C327.506 73.8444 327.545 73.9453 327.623 74.0234C327.701 74.1016 327.802 74.1471 327.926 74.1602L328.766 74.2188V75H324.381V74.2188L325.221 74.1602C325.344 74.1471 325.445 74.1016 325.523 74.0234C325.602 73.9453 325.641 73.8444 325.641 73.7207V68.4961C325.641 68.2161 325.608 67.959 325.543 67.7246C325.484 67.4837 325.383 67.2819 325.24 67.1191C325.104 66.9499 324.921 66.8197 324.693 66.7285C324.472 66.6309 324.202 66.582 323.883 66.582C323.694 66.582 323.495 66.6016 323.287 66.6406C323.085 66.6732 322.89 66.7188 322.701 66.7773C322.512 66.8294 322.333 66.8913 322.164 66.9629C322.001 67.028 321.861 67.0931 321.744 67.1582V73.7207C321.744 73.8444 321.783 73.9453 321.861 74.0234C321.939 74.1016 322.04 74.1471 322.164 74.1602L323.004 74.2188V75H318.482V74.2188L319.459 74.1602C319.583 74.1471 319.684 74.1016 319.762 74.0234C319.84 73.9453 319.879 73.8444 319.879 73.7207V66.7773H318.502V66.123L320.924 65.3613H321.744V66.3574C321.965 66.2207 322.21 66.0807 322.477 65.9375C322.75 65.7943 323.03 65.6608 323.316 65.5371C323.603 65.4134 323.889 65.3125 324.176 65.2344C324.469 65.1562 324.745 65.1172 325.006 65.1172C325.292 65.1172 325.553 65.1595 325.787 65.2441C326.021 65.3223 326.227 65.4297 326.402 65.5664C326.585 65.6966 326.741 65.8464 326.871 66.0156C327.008 66.1784 327.118 66.3411 327.203 66.5039C327.405 66.3802 327.649 66.237 327.936 66.0742C328.222 65.9115 328.525 65.7617 328.844 65.625C329.163 65.4818 329.482 65.3613 329.801 65.2637C330.12 65.166 330.413 65.1172 330.68 65.1172C331.207 65.1172 331.637 65.2148 331.969 65.4102C332.301 65.599 332.561 65.8431 332.75 66.1426C332.945 66.4355 333.079 66.7643 333.15 67.1289C333.222 67.4935 333.258 67.8451 333.258 68.1836V73.7207C333.258 73.8444 333.297 73.9453 333.375 74.0234C333.46 74.1016 333.561 74.1471 333.678 74.1602L334.645 74.2188V75H330.162ZM350.934 67.4023C350.803 67.2526 350.654 67.1257 350.484 67.0215C350.315 66.9108 350.107 66.8555 349.859 66.8555C349.534 66.8555 349.205 66.9661 348.873 67.1875C348.541 67.4023 348.202 67.7051 347.857 68.0957V73.7207C347.857 73.8444 347.896 73.9486 347.975 74.0332C348.053 74.1113 348.154 74.1536 348.277 74.1602L349.596 74.2188V75H344.596V74.2383L345.582 74.1602C345.699 74.1471 345.797 74.1016 345.875 74.0234C345.96 73.9453 346.002 73.8444 346.002 73.7207V66.7773H344.557V66.123L347.037 65.3613H347.857V67.1387C348.001 66.9824 348.173 66.7904 348.375 66.5625C348.583 66.3281 348.805 66.1035 349.039 65.8887C349.273 65.6738 349.514 65.4915 349.762 65.3418C350.016 65.1921 350.26 65.1172 350.494 65.1172C350.598 65.1172 350.709 65.127 350.826 65.1465C350.943 65.166 351.057 65.1921 351.168 65.2246C351.279 65.2507 351.38 65.2832 351.471 65.3223C351.568 65.3548 351.65 65.3874 351.715 65.4199V67.4023H350.934ZM359.713 75V73.8574C359.544 73.9876 359.335 74.1341 359.088 74.2969C358.847 74.4596 358.583 74.6126 358.297 74.7559C358.017 74.8926 357.721 75.0065 357.408 75.0977C357.102 75.1953 356.803 75.2441 356.51 75.2441C356.08 75.2441 355.693 75.179 355.348 75.0488C355.009 74.9251 354.719 74.7331 354.479 74.4727C354.244 74.2057 354.062 73.8704 353.932 73.4668C353.808 73.0566 353.746 72.5684 353.746 72.002V66.582H352.35V65.8984L354.811 65.1172H355.611V71.6211C355.611 71.9727 355.644 72.2884 355.709 72.5684C355.781 72.8483 355.891 73.0859 356.041 73.2812C356.197 73.4766 356.399 73.6263 356.646 73.7305C356.894 73.8281 357.193 73.877 357.545 73.877C357.747 73.877 357.952 73.8574 358.16 73.8184C358.368 73.7793 358.567 73.7305 358.756 73.6719C358.945 73.6068 359.12 73.5417 359.283 73.4766C359.452 73.4049 359.596 73.3398 359.713 73.2812V66.582H358.307V65.8984L360.748 65.1172H361.568V73.7207C361.568 73.8444 361.611 73.9453 361.695 74.0234C361.786 74.1016 361.891 74.1471 362.008 74.1602L362.887 74.2188V75H359.713ZM369.84 75V74.2188L370.68 74.1602C370.797 74.1471 370.895 74.1016 370.973 74.0234C371.057 73.9453 371.1 73.8444 371.1 73.7207V68.5156C371.1 67.8841 370.953 67.4056 370.66 67.0801C370.367 66.748 369.872 66.582 369.176 66.582C368.792 66.582 368.414 66.6374 368.043 66.748C367.672 66.8522 367.317 66.9889 366.979 67.1582V73.7207C366.979 73.8444 367.018 73.9453 367.096 74.0234C367.174 74.1016 367.275 74.1471 367.398 74.1602L368.238 74.2188V75H363.717V74.2188L364.693 74.1602C364.817 74.1471 364.918 74.1016 364.996 74.0234C365.074 73.9453 365.113 73.8444 365.113 73.7207V66.7773H363.717V66.123L366.158 65.3613H366.979V66.3574C367.258 66.2012 367.542 66.0482 367.828 65.8984C368.121 65.7487 368.411 65.6152 368.697 65.498C368.984 65.3809 369.26 65.2897 369.527 65.2246C369.794 65.153 370.045 65.1172 370.279 65.1172C371.152 65.1172 371.816 65.3874 372.271 65.9277C372.727 66.4681 372.955 67.2266 372.955 68.2031V73.7207C372.955 73.8444 372.994 73.9453 373.072 74.0234C373.157 74.1016 373.258 74.1471 373.375 74.1602L374.254 74.2188V75H369.84Z" fill="#656C73"/>
<rect x="392" y="58" width="12.2222" height="16.6667" fill="#656C73"/>
<rect x="1702" y="74.9691" width="13.9692" height="53.083" fill="#EA4335"/>
<path d="M1720.67 110.398C1730.56 127.522 1752.83 133.171 1770.43 123.014L1734.62 61C1717.03 71.157 1710.78 93.2732 1720.67 110.398Z" fill="#FBBC04"/>
<rect x="1318" y="503" width="40" height="40" rx="20" fill="#EA4335" stroke="#FAFAFA" stroke-width="4"/>
</g>
<path d="M1288.37 113.511C1287.14 112.865 1286.1 111.911 1285.36 110.744H1285.19V113.922H1281.63V83.0691H1285.34V92.7769L1285.19 95.6093H1285.36C1286.12 94.4646 1287.16 93.5276 1288.39 92.885C1289.78 92.1321 1291.35 91.7519 1292.93 91.7824C1294.78 91.824 1296.58 92.4032 1298.09 93.4472C1299.69 94.4496 1300.99 95.8522 1301.87 97.5119C1302.81 99.309 1303.28 101.307 1303.25 103.328C1303.28 105.349 1302.8 107.346 1301.87 109.144C1300.98 110.797 1299.68 112.198 1298.09 113.209C1296.56 114.192 1294.76 114.71 1292.93 114.701C1291.34 114.732 1289.77 114.352 1288.37 113.598V113.511ZM1295.92 110.398C1297.04 109.708 1297.95 108.729 1298.55 107.566C1299.25 106.23 1299.59 104.742 1299.54 103.241C1299.59 101.741 1299.25 100.252 1298.55 98.9173C1297.95 97.7544 1297.04 96.775 1295.92 96.0849C1294.85 95.4258 1293.62 95.0807 1292.36 95.0904C1291.11 95.0824 1289.88 95.4194 1288.81 96.0633C1287.68 96.7396 1286.77 97.7133 1286.17 98.874C1285.48 100.211 1285.14 101.698 1285.19 103.198C1285.15 104.698 1285.49 106.184 1286.17 107.522C1286.77 108.689 1287.68 109.67 1288.81 110.355C1289.88 110.983 1291.11 111.312 1292.36 111.306C1293.62 111.322 1294.85 110.985 1295.92 110.333" fill="#656C73"/>
<path d="M1308.58 112.906C1307.04 111.834 1305.87 110.326 1305.22 108.582L1308.49 107.155C1309.01 108.402 1309.86 109.482 1310.97 110.268C1311.99 110.966 1313.2 111.336 1314.44 111.328C1315.67 111.381 1316.88 111.073 1317.93 110.441C1318.33 110.227 1318.67 109.916 1318.91 109.538C1319.15 109.159 1319.29 108.726 1319.31 108.279C1319.33 107.864 1319.24 107.451 1319.06 107.074C1318.88 106.698 1318.62 106.37 1318.28 106.117C1317.21 105.413 1316.01 104.934 1314.75 104.712L1311.78 103.977C1310.25 103.643 1308.82 102.946 1307.62 101.944C1307.05 101.471 1306.59 100.877 1306.29 100.207C1305.99 99.5359 1305.85 98.8066 1305.88 98.0741C1305.84 96.8354 1306.26 95.6242 1307.04 94.658C1307.85 93.6737 1308.91 92.9258 1310.12 92.4959C1311.45 91.9935 1312.88 91.7441 1314.31 91.7608C1316.1 91.7331 1317.86 92.1732 1319.42 93.0364C1320.9 93.8236 1322.04 95.093 1322.67 96.6255L1319.4 98.0093C1318.96 97.0209 1318.18 96.2122 1317.21 95.7174C1316.22 95.2237 1315.13 94.9715 1314.02 94.9823C1312.94 94.9749 1311.88 95.259 1310.95 95.8039C1310.54 96.0015 1310.19 96.3086 1309.95 96.6907C1309.7 97.0727 1309.57 97.5145 1309.57 97.966C1309.57 98.3072 1309.65 98.6437 1309.8 98.9481C1309.96 99.2524 1310.19 99.516 1310.47 99.7173C1311.35 100.272 1312.32 100.667 1313.34 100.885L1316.57 101.663C1318.38 102.024 1320.05 102.869 1321.4 104.106C1321.92 104.607 1322.33 105.206 1322.6 105.868C1322.88 106.53 1323.01 107.24 1323 107.955C1323.01 109.159 1322.62 110.333 1321.9 111.306C1321.12 112.354 1320.07 113.176 1318.85 113.684C1317.47 114.272 1315.97 114.566 1314.46 114.549C1312.37 114.61 1310.32 114.004 1308.6 112.82" fill="#656C73"/>
<path d="M710.69 112.495C708.226 111.117 706.186 109.107 704.787 106.679C703.326 104.198 702.568 101.375 702.592 98.5066C702.565 95.6307 703.323 92.8005 704.787 90.3122C706.186 87.8846 708.226 85.8749 710.69 84.4962C713.16 83.0741 715.971 82.3276 718.832 82.3341C721.086 82.3106 723.322 82.7219 725.416 83.5449C727.308 84.2802 728.993 85.4517 730.331 86.961L727.676 89.6204C726.653 88.4288 725.339 87.5136 723.857 86.961C722.265 86.3091 720.556 85.9783 718.832 85.988C716.682 85.98 714.566 86.516 712.687 87.5447C710.782 88.5996 709.199 90.1375 708.1 91.9987C706.924 94.0081 706.324 96.2952 706.367 98.6147C706.327 100.927 706.926 103.206 708.1 105.209C709.199 107.07 710.782 108.608 712.687 109.663C715.064 111.061 717.85 111.627 720.595 111.27C723.339 110.913 725.881 109.653 727.808 107.696C728.591 106.837 729.215 105.849 729.651 104.777C730.129 103.575 730.403 102.304 730.463 101.015H718.92V97.512H733.974C734.113 98.2248 734.187 98.9484 734.194 99.6741C734.197 101.564 733.885 103.441 733.272 105.231C732.674 107.004 731.667 108.617 730.331 109.944C728.856 111.472 727.068 112.673 725.085 113.467C723.102 114.261 720.971 114.63 718.832 114.549C715.971 114.556 713.16 113.809 710.69 112.387" fill="#656C73"/>
<path d="M742.358 113.122C740.684 112.145 739.317 110.731 738.407 109.036C737.451 107.251 736.961 105.26 736.981 103.241C736.958 101.223 737.448 99.2308 738.407 97.447C739.318 95.7753 740.686 94.3892 742.358 93.4471C744.092 92.4418 746.074 91.9257 748.086 91.9553C750.111 91.9277 752.106 92.4434 753.857 93.4471C755.547 94.4122 756.924 95.8291 757.83 97.5335C758.797 99.2857 759.31 101.247 759.322 103.241C759.342 105.26 758.852 107.251 757.895 109.036C756.977 110.731 755.603 112.145 753.923 113.122C752.172 114.126 750.177 114.642 748.151 114.614C746.139 114.644 744.158 114.128 742.424 113.122H742.358ZM751.838 110.312C752.992 109.631 753.933 108.651 754.56 107.479C755.29 106.154 755.646 104.661 755.591 103.155C755.649 101.648 755.293 100.154 754.56 98.8308C753.933 97.6586 752.992 96.6788 751.838 95.9984C750.725 95.3395 749.45 94.9954 748.151 95.0038C746.875 95.0017 745.622 95.3458 744.53 95.9984C743.336 96.7193 742.377 97.7622 741.765 99.0037C741.032 100.327 740.676 101.821 740.734 103.328C740.679 104.834 741.035 106.327 741.765 107.652C742.391 108.824 743.333 109.804 744.486 110.484C745.584 111.121 746.834 111.457 748.108 111.457C749.403 111.463 750.675 111.127 751.794 110.484" fill="#656C73"/>
<path d="M767.157 113.122C765.483 112.145 764.116 110.731 763.206 109.036C762.25 107.251 761.759 105.26 761.78 103.242C761.757 101.223 762.247 99.231 763.206 97.4472C764.116 95.7754 765.485 94.3894 767.157 93.4473C768.906 92.4694 770.884 91.9554 772.895 91.9554C774.907 91.9554 776.884 92.4694 778.634 93.4473C780.33 94.4111 781.715 95.8277 782.628 97.5336C783.581 99.3191 784.064 101.311 784.033 103.328C784.061 105.345 783.578 107.336 782.628 109.123C781.69 110.788 780.309 112.17 778.634 113.122C776.884 114.1 774.907 114.614 772.895 114.614C770.884 114.614 768.906 114.1 767.157 113.122ZM776.571 110.312C777.725 109.631 778.666 108.651 779.293 107.479C780.013 106.151 780.368 104.66 780.324 103.155C780.368 101.65 780.013 100.159 779.293 98.8309C778.666 97.6588 777.725 96.6789 776.571 95.9986C775.458 95.3396 774.183 94.9955 772.884 95.004C771.608 95.0019 770.355 95.3459 769.263 95.9986C768.108 96.6836 767.161 97.6618 766.52 98.8309C765.808 100.161 765.46 101.652 765.511 103.155C765.46 104.658 765.808 106.149 766.52 107.479C767.161 108.648 768.108 109.627 769.263 110.312C770.361 110.949 771.611 111.285 772.884 111.285C774.179 111.29 775.452 110.954 776.571 110.312Z" fill="#656C73"/>
<path d="M790.902 122.073C789.368 120.996 788.198 119.49 787.544 117.749L790.989 116.344C791.429 117.577 792.251 118.643 793.338 119.392C794.503 120.205 795.905 120.622 797.332 120.582C798.31 120.642 799.29 120.496 800.206 120.153C801.122 119.81 801.953 119.278 802.643 118.592C803.97 117.064 804.639 115.086 804.508 113.079V110.744H804.332C803.581 111.888 802.546 112.826 801.326 113.468C799.978 114.186 798.469 114.558 796.937 114.549C795.125 114.55 793.351 114.039 791.823 113.079C790.224 112.082 788.927 110.677 788.071 109.014C787.114 107.215 786.631 105.208 786.666 103.177C786.631 101.146 787.114 99.1383 788.071 97.339C788.928 95.7501 790.191 94.4087 791.736 93.4472C793.259 92.4779 795.036 91.967 796.849 91.977C798.382 91.9593 799.894 92.3317 801.238 93.0581C802.467 93.6446 803.53 94.521 804.332 95.6093H804.508V92.5608H808.041V113.057C808.107 115.137 807.631 117.199 806.659 119.047C805.781 120.623 804.443 121.904 802.818 122.722C801.111 123.54 799.23 123.948 797.332 123.911C795.042 124.01 792.782 123.364 790.902 122.073ZM801.019 110.312C802.122 109.63 803.017 108.666 803.608 107.523C804.301 106.186 804.641 104.699 804.596 103.198C804.631 101.699 804.292 100.214 803.608 98.8741C803.011 97.7466 802.116 96.7982 801.019 96.1282C799.943 95.5001 798.714 95.1714 797.463 95.1769C796.216 95.1649 794.991 95.5023 793.93 96.1499C792.815 96.8336 791.912 97.8059 791.319 98.9606C790.626 100.297 790.286 101.785 790.331 103.285C790.286 104.785 790.626 106.272 791.319 107.609C791.919 108.753 792.821 109.717 793.93 110.398C794.991 111.046 796.216 111.383 797.463 111.371C798.726 111.353 799.958 110.986 801.019 110.312Z" fill="#656C73"/>
<path d="M816.798 83.0691H813.089V113.922H816.798V83.0691Z" fill="#656C73"/>
<path d="M825.598 113.144C823.962 112.167 822.626 110.769 821.735 109.101C820.786 107.291 820.304 105.279 820.331 103.242C820.308 101.264 820.759 99.308 821.648 97.5337C822.496 95.8596 823.794 94.4464 825.4 93.4474C827.068 92.417 829.006 91.8909 830.975 91.9339C832.911 91.8929 834.823 92.3712 836.505 93.3176C838.084 94.26 839.349 95.6348 840.148 97.2743C841.031 99.1028 841.466 101.109 841.421 103.134C841.465 103.42 841.465 103.712 841.421 103.998H824.193C824.188 105.437 824.599 106.847 825.378 108.063C826.046 109.115 826.985 109.973 828.1 110.55C829.153 111.078 830.319 111.352 831.501 111.35C832.829 111.358 834.132 110.989 835.252 110.287C836.373 109.586 837.265 108.581 837.822 107.393L841.114 108.95C840.213 110.64 838.882 112.071 837.251 113.101C835.476 114.189 833.415 114.738 831.326 114.679C829.345 114.707 827.394 114.199 825.686 113.209L825.598 113.144ZM837.58 100.928C837.507 100.03 837.253 99.1559 836.834 98.3553C836.318 97.4501 835.558 96.7021 834.64 96.1932C833.508 95.5492 832.214 95.2344 830.909 95.2852C829.341 95.2581 827.821 95.8139 826.651 96.8419C825.463 97.9312 824.688 99.3885 824.457 100.971L837.58 100.928Z" fill="#656C73"/>
<path d="M855.62 83.069H865.123C868.042 83.0059 870.929 83.6834 873.506 85.0365C875.847 86.2785 877.763 88.174 879.014 90.485C880.34 92.9534 881.005 95.7143 880.945 98.5064C881.005 101.292 880.34 104.046 879.014 106.506C877.745 108.826 875.805 110.723 873.44 111.955C870.867 113.317 867.977 113.995 865.057 113.922H855.554L855.62 83.069ZM865.123 110.441C866.726 110.525 868.33 110.288 869.839 109.746C871.347 109.204 872.729 108.366 873.901 107.285C875.024 106.119 875.892 104.738 876.451 103.228C877.01 101.718 877.247 100.111 877.149 98.5064C877.248 96.8987 877.011 95.2881 876.452 93.7744C875.893 92.2607 875.025 90.8762 873.901 89.7067C872.727 88.6288 871.345 87.7955 869.836 87.2568C868.328 86.7181 866.725 86.485 865.123 86.5716H859.351V110.355L865.123 110.441Z" fill="#656C73"/>
<path d="M889.373 113.144C887.73 112.167 886.388 110.77 885.488 109.101C884.546 107.289 884.071 105.277 884.106 103.241C884.09 101.267 884.533 99.3143 885.4 97.5335C886.249 95.8594 887.547 94.4462 889.153 93.4472C890.823 92.4203 892.759 91.8945 894.727 91.9337C896.664 91.8894 898.577 92.3679 900.258 93.3174C901.841 94.2538 903.109 95.6303 903.901 97.2741C904.783 99.1026 905.219 101.109 905.174 103.133C905.218 103.42 905.218 103.712 905.174 103.998H887.946C887.962 105.434 888.371 106.838 889.131 108.063C889.805 109.109 890.743 109.966 891.852 110.549C892.907 111.075 894.072 111.35 895.254 111.349C896.585 111.356 897.889 110.987 899.013 110.286C900.137 109.585 901.034 108.581 901.596 107.393L904.866 108.949C903.974 110.645 902.641 112.077 901.004 113.101C899.259 114.115 897.273 114.659 895.247 114.678C893.22 114.697 891.225 114.191 889.46 113.209L889.373 113.144ZM901.333 100.928C901.259 100.03 901.006 99.1557 900.587 98.3551C900.077 97.445 899.316 96.6955 898.392 96.193C897.262 95.5468 895.967 95.2318 894.661 95.285C893.101 95.2591 891.588 95.8151 890.426 96.8417C889.239 97.9321 888.465 99.3888 888.231 100.971L901.333 100.928Z" fill="#656C73"/>
<path d="M906.051 92.5608H910.067L916.717 109.62H916.804L923.542 92.5608H927.47L918.604 113.922H914.851L906.051 92.5608Z" fill="#656C73"/>
<path d="M934.274 113.144C932.665 112.161 931.359 110.763 930.499 109.101C929.539 107.295 929.056 105.28 929.094 103.242C929.072 101.263 929.523 99.3079 930.411 97.5337C931.234 95.8761 932.492 94.4653 934.054 93.4473C935.725 92.4228 937.661 91.8971 939.628 91.9338C941.566 91.8873 943.479 92.3659 945.159 93.3176C946.749 94.2527 948.024 95.6289 948.824 97.2742C949.696 99.1062 950.131 101.11 950.096 103.134C950.13 103.421 950.13 103.711 950.096 103.998H932.693C932.709 105.434 933.119 106.838 933.879 108.063C934.555 109.115 935.501 109.973 936.622 110.55C937.668 111.075 938.827 111.349 940.001 111.349C941.332 111.357 942.637 110.988 943.761 110.286C944.885 109.585 945.781 108.581 946.344 107.393L949.636 108.95C948.749 110.605 947.45 112.011 945.861 113.036C944.088 114.127 942.026 114.677 939.936 114.614C937.961 114.642 936.018 114.133 934.317 113.144H934.274ZM946.19 100.863C946.126 99.9639 945.872 99.0876 945.444 98.2904C944.93 97.3831 944.17 96.6345 943.249 96.1283C942.11 95.4847 940.809 95.17 939.497 95.2202C937.937 95.1986 936.425 95.7541 935.261 96.7769C934.081 97.8726 933.308 99.3268 933.067 100.907L946.19 100.863Z" fill="#656C73"/>
<path d="M957.558 83.0691H953.849V113.922H957.558V83.0691Z" fill="#656C73"/>
<path d="M966.49 113.122C964.816 112.145 963.449 110.731 962.54 109.036C961.574 107.255 961.083 105.261 961.113 103.242C961.08 101.222 961.571 99.2272 962.54 97.4471C963.45 95.7754 964.819 94.3894 966.49 93.4472C968.209 92.4155 970.183 91.8695 972.196 91.8689C974.215 91.8409 976.203 92.3568 977.946 93.3608C979.64 94.3192 981.019 95.7377 981.918 97.4471C982.877 99.2309 983.368 101.223 983.345 103.242C983.365 105.26 982.875 107.251 981.918 109.036C981.007 110.736 979.631 112.152 977.946 113.122C976.203 114.126 974.215 114.642 972.196 114.614C970.184 114.644 968.203 114.128 966.468 113.122H966.49ZM975.861 110.312C977.021 109.633 977.97 108.653 978.604 107.479C979.324 106.151 979.68 104.66 979.636 103.155C979.68 101.65 979.324 100.159 978.604 98.8309C977.97 97.6572 977.021 96.6775 975.861 95.9985C974.757 95.3469 973.494 95.0028 972.207 95.0028C970.92 95.0028 969.657 95.3469 968.553 95.9985C967.404 96.6849 966.464 97.6632 965.832 98.8309C965.112 100.159 964.756 101.65 964.8 103.155C964.756 104.66 965.112 106.151 965.832 107.479C966.464 108.647 967.404 109.625 968.553 110.312C969.663 110.948 970.923 111.283 972.207 111.283C973.491 111.283 974.752 110.948 975.861 110.312Z" fill="#656C73"/>
<path d="M986.746 92.5607H990.279V95.6093H990.455C991.212 94.4697 992.245 93.5335 993.461 92.885C994.858 92.1294 996.433 91.7491 998.026 91.7823C999.856 91.7728 1001.65 92.2914 1003.18 93.2742C1004.78 94.278 1006.07 95.6807 1006.94 97.3389C1007.89 99.1305 1008.38 101.131 1008.34 103.155C1008.37 105.179 1007.89 107.179 1006.94 108.971C1006.07 110.625 1004.77 112.026 1003.18 113.036C1001.65 114.019 999.856 114.537 998.026 114.528C996.426 114.559 994.845 114.179 993.439 113.425C992.225 112.802 991.196 111.878 990.455 110.744H990.279L990.455 113.706V123.219H986.746V92.5607ZM1001.01 110.312C1002.13 109.621 1003.04 108.642 1003.64 107.479C1004.33 106.141 1004.66 104.654 1004.61 103.155C1004.67 101.656 1004.33 100.168 1003.64 98.8308C1003.04 97.6679 1002.13 96.6885 1001.01 95.9984C999.946 95.3393 998.713 94.9942 997.455 95.0039C996.195 94.9953 994.956 95.3322 993.878 95.9768C992.758 96.6544 991.853 97.6283 991.267 98.7875C990.574 100.124 990.234 101.611 990.279 103.112C990.239 104.612 990.578 106.098 991.267 107.436C991.853 108.601 992.757 109.582 993.878 110.268C994.962 110.896 996.198 111.225 997.455 111.22C998.709 111.225 999.94 110.889 1001.01 110.247" fill="#656C73"/>
<path d="M1017.01 113.144C1015.37 112.167 1014.04 110.769 1013.15 109.101C1012.2 107.291 1011.72 105.279 1011.74 103.241C1011.72 101.263 1012.17 99.3077 1013.06 97.5335C1013.91 95.8652 1015.2 94.4533 1016.79 93.4471C1018.46 92.4226 1020.4 91.8969 1022.36 91.9336C1024.31 91.8898 1026.23 92.3681 1027.92 93.3174C1029.49 94.2597 1030.76 95.6346 1031.56 97.274C1032.43 99.106 1032.87 101.11 1032.83 103.133C1032.87 103.421 1032.87 103.711 1032.83 103.998H1015.6C1015.6 105.433 1016.01 106.84 1016.77 108.063C1017.45 109.111 1018.39 109.967 1019.51 110.549C1020.56 111.075 1021.72 111.349 1022.89 111.349C1024.23 111.358 1025.55 110.982 1026.68 110.268C1027.81 109.554 1028.7 108.533 1029.26 107.328L1032.55 108.885C1031.64 110.576 1030.3 112.007 1028.66 113.036C1026.89 114.127 1024.83 114.677 1022.74 114.614C1020.76 114.641 1018.82 114.133 1017.12 113.144H1017.01ZM1028.99 100.863C1028.93 99.9666 1028.68 99.092 1028.27 98.2902C1027.75 97.385 1026.99 96.637 1026.07 96.1281C1024.93 95.4812 1023.63 95.1663 1022.32 95.22C1020.76 95.1984 1019.25 95.7539 1018.08 96.7768C1016.9 97.8661 1016.12 99.3234 1015.89 100.906L1028.99 100.863Z" fill="#656C73"/>
<path d="M1036.58 92.5608H1040.23V96.0418C1040.7 94.7988 1041.59 93.7532 1042.75 93.0797C1043.86 92.3154 1045.17 91.8938 1046.53 91.8689C1047.39 91.8537 1048.26 92.0004 1049.07 92.3013V96.2147C1048.12 95.7445 1047.06 95.5212 1046 95.5661C1044.98 95.5708 1043.98 95.8798 1043.15 96.4526C1042.22 97.0395 1041.47 97.8511 1040.95 98.8092C1040.43 99.8266 1040.18 100.957 1040.23 102.096V114.009H1036.52L1036.58 92.5608Z" fill="#656C73"/>
<path d="M1065.42 113.641C1063.87 112.956 1062.5 111.935 1061.4 110.655C1060.31 109.375 1059.52 107.868 1059.1 106.247L1062.66 104.842C1063.09 106.585 1064.05 108.159 1065.4 109.36C1066.68 110.506 1068.35 111.132 1070.07 111.112C1071.74 111.167 1073.38 110.664 1074.73 109.685C1075.34 109.22 1075.82 108.618 1076.15 107.929C1076.47 107.241 1076.62 106.486 1076.59 105.728C1076.61 105.059 1076.48 104.394 1076.2 103.782C1075.93 103.169 1075.52 102.623 1075.01 102.182C1073.45 101.002 1071.68 100.115 1069.79 99.566L1067.81 98.8958C1065.81 98.2493 1063.97 97.2043 1062.39 95.8256C1061.66 95.1607 1061.08 94.3458 1060.7 93.4382C1060.33 92.5306 1060.15 91.5521 1060.2 90.5717C1060.2 89.1276 1060.62 87.7146 1061.43 86.5069C1062.27 85.2344 1063.44 84.199 1064.81 83.5016C1066.32 82.7426 1068 82.3568 1069.7 82.3773C1071.34 82.3491 1072.96 82.6893 1074.44 83.3719C1075.68 83.945 1076.78 84.7704 1077.67 85.7934C1078.4 86.6062 1078.96 87.5543 1079.31 88.5825L1075.85 90.0528C1075.46 88.7901 1074.65 87.6929 1073.55 86.9365C1072.45 86.1801 1071.13 85.8081 1069.79 85.8799C1068.3 85.8324 1066.83 86.3073 1065.66 87.2204C1065.13 87.605 1064.69 88.1095 1064.4 88.6923C1064.1 89.2751 1063.95 89.9193 1063.95 90.5717C1063.96 91.1366 1064.1 91.6919 1064.37 92.1918C1064.63 92.6917 1065.02 93.122 1065.49 93.4473C1066.81 94.4127 1068.3 95.1443 1069.88 95.6094L1071.87 96.3012C1074.18 97.075 1076.31 98.3118 1078.11 99.9336C1078.86 100.695 1079.45 101.604 1079.83 102.602C1080.2 103.6 1080.37 104.665 1080.3 105.728C1080.36 107.524 1079.81 109.287 1078.74 110.744C1077.74 112.063 1076.39 113.087 1074.84 113.706C1073.27 114.33 1071.61 114.653 1069.92 114.657C1068.35 114.656 1066.79 114.324 1065.36 113.685" fill="#656C73"/>
<path d="M1089.39 114.182C1088.68 113.907 1088.03 113.504 1087.48 112.993C1086.9 112.442 1086.47 111.769 1086.2 111.025C1085.9 110.178 1085.76 109.284 1085.79 108.387V95.8688H1081.92V92.5608H1085.79V86.1826H1089.45V92.5608H1094.79V95.8688H1089.45V107.501C1089.38 108.473 1089.64 109.44 1090.2 110.247C1090.46 110.564 1090.8 110.815 1091.18 110.98C1091.56 111.146 1091.98 111.22 1092.39 111.198C1093.22 111.224 1094.03 111.022 1094.74 110.614V114.139C1094.32 114.306 1093.88 114.429 1093.42 114.506C1092.86 114.583 1092.3 114.619 1091.73 114.614C1090.9 114.619 1090.08 114.472 1089.3 114.182" fill="#656C73"/>
<path d="M1100.58 112.322C1099.11 110.541 1098.37 108.279 1098.52 105.987V92.5608H1102.22V105.382C1102.22 109.339 1104.02 111.285 1107.6 111.285C1108.75 111.298 1109.88 110.958 1110.83 110.312C1111.78 109.649 1112.53 108.755 1113.02 107.717C1113.53 106.67 1113.79 105.525 1113.79 104.366V92.5608H1117.46V113.922H1113.97V110.744H1113.79C1113.09 111.896 1112.09 112.843 1110.89 113.49C1109.63 114.232 1108.18 114.62 1106.7 114.614C1105.58 114.694 1104.45 114.531 1103.39 114.135C1102.34 113.739 1101.39 113.12 1100.6 112.322" fill="#656C73"/>
<path d="M1126.19 113.144C1124.59 112.147 1123.29 110.742 1122.44 109.079C1121.48 107.278 1121 105.272 1121.03 103.241C1121 101.21 1121.48 99.2031 1122.44 97.4038C1123.3 95.7761 1124.6 94.4091 1126.19 93.4472C1127.73 92.4709 1129.52 91.9597 1131.35 91.9769C1132.93 91.9515 1134.5 92.3314 1135.89 93.0796C1137.12 93.6466 1138.19 94.5179 1138.98 95.6093H1139.16L1138.98 92.7769V83.0691H1142.65V113.922H1139.16V110.744H1138.98C1138.24 111.911 1137.19 112.866 1135.96 113.511C1134.56 114.26 1133 114.64 1131.41 114.614C1129.59 114.62 1127.8 114.11 1126.26 113.144H1126.19ZM1135.54 110.333C1136.67 109.648 1137.58 108.668 1138.17 107.501C1138.86 106.163 1139.2 104.676 1139.16 103.177C1139.2 101.676 1138.86 100.189 1138.17 98.8524C1137.58 97.6917 1136.67 96.718 1135.54 96.0417C1134.47 95.3902 1133.24 95.0526 1131.98 95.0688C1130.73 95.0591 1129.49 95.4042 1128.43 96.0633C1127.3 96.7859 1126.39 97.804 1125.82 99.0038C1125.12 100.339 1124.78 101.827 1124.83 103.328C1124.78 104.828 1125.12 106.316 1125.82 107.652C1126.42 108.815 1127.33 109.794 1128.45 110.485C1129.52 111.128 1130.75 111.465 1132.01 111.457C1133.26 111.48 1134.49 111.15 1135.56 110.506" fill="#656C73"/>
<path d="M1151.45 113.144C1149.81 112.167 1148.46 110.77 1147.56 109.101C1146.62 107.289 1146.15 105.277 1146.18 103.242C1146.17 101.267 1146.61 99.3144 1147.48 97.5337C1148.33 95.8595 1149.62 94.4463 1151.23 93.4473C1152.9 92.4205 1154.84 91.8946 1156.8 91.9338C1158.74 91.8873 1160.65 92.3659 1162.33 93.3176C1163.92 94.2539 1165.19 95.6305 1165.98 97.2742C1166.86 99.1027 1167.3 101.109 1167.25 103.134C1167.29 103.42 1167.29 103.712 1167.25 103.998H1149.96C1149.97 105.434 1150.38 106.838 1151.14 108.063C1151.82 109.109 1152.75 109.966 1153.86 110.55C1154.92 111.076 1156.08 111.35 1157.26 111.349C1158.6 111.357 1159.9 110.988 1161.02 110.286C1162.15 109.585 1163.04 108.581 1163.61 107.393L1166.88 108.95C1165.98 110.645 1164.65 112.078 1163.01 113.101C1161.27 114.115 1159.28 114.66 1157.26 114.679C1155.23 114.698 1153.24 114.191 1151.47 113.209L1151.45 113.144ZM1163.34 100.928C1163.27 100.03 1163.02 99.1558 1162.6 98.3553C1162.09 97.4451 1161.33 96.6956 1160.4 96.1932C1159.27 95.5469 1157.98 95.2319 1156.67 95.2851C1155.11 95.2549 1153.6 95.8115 1152.44 96.8418C1151.25 97.9322 1150.48 99.389 1150.24 100.971L1163.34 100.928Z" fill="#656C73"/>
<path d="M1171 92.5608H1174.56V95.7391H1174.73C1175.42 94.5835 1176.41 93.6342 1177.61 92.9932C1178.88 92.2506 1180.34 91.8621 1181.82 91.8689C1182.94 91.7925 1184.06 91.956 1185.1 92.348C1186.15 92.74 1187.1 93.3511 1187.88 94.1391C1189.34 95.8942 1190.07 98.1238 1189.94 100.388V113.922H1186.28V100.95C1186.28 97.1012 1184.46 95.1769 1180.81 95.1769C1179.68 95.1644 1178.57 95.5132 1177.65 96.1715C1176.7 96.8302 1175.94 97.7254 1175.46 98.766C1174.94 99.8098 1174.68 100.957 1174.69 102.117V113.922H1170.96L1171 92.5608Z" fill="#656C73"/>
<path d="M1199.64 114.182C1198.94 113.907 1198.29 113.504 1197.73 112.993C1197.15 112.443 1196.71 111.77 1196.44 111.025C1196.15 110.175 1196.01 109.283 1196.02 108.387V95.8688H1192.18V92.5608H1196.04V86.1826H1199.73V92.5608H1205.06V95.8688H1199.73V107.501C1199.66 108.473 1199.92 109.44 1200.48 110.247C1200.74 110.566 1201.07 110.82 1201.46 110.985C1201.84 111.151 1202.25 111.224 1202.67 111.198C1203.5 111.216 1204.32 111.014 1205.04 110.614V114.139C1204.61 114.303 1204.16 114.426 1203.7 114.506C1203.14 114.584 1202.58 114.62 1202.01 114.614C1201.19 114.62 1200.37 114.474 1199.6 114.182" fill="#656C73"/>
<path d="M1224.92 112.495C1222.48 111.114 1220.46 109.104 1219.09 106.679C1217.64 104.191 1216.89 101.373 1216.89 98.5067C1216.88 95.6331 1217.64 92.8077 1219.09 90.3123C1220.46 87.8878 1222.48 85.8774 1224.92 84.4962C1227.42 83.0661 1230.26 82.3196 1233.15 82.3341C1235.38 82.3088 1237.58 82.7588 1239.61 83.653C1241.53 84.5267 1243.24 85.8031 1244.61 87.3935L1242 89.9231C1240.93 88.6584 1239.59 87.6461 1238.07 86.961C1236.53 86.2736 1234.85 85.9338 1233.15 85.9665C1230.98 85.9482 1228.84 86.4846 1226.94 87.5232C1225.05 88.5445 1223.47 90.0541 1222.38 91.8906C1221.23 93.9079 1220.64 96.1923 1220.69 98.5067C1220.65 100.814 1221.23 103.09 1222.38 105.101C1223.44 106.964 1225.01 108.504 1226.9 109.555C1228.8 110.594 1230.94 111.13 1233.11 111.112C1234.99 111.116 1236.85 110.695 1238.54 109.882C1240.22 109.069 1241.7 107.884 1242.85 106.42L1245.53 109.014C1244.08 110.726 1242.25 112.099 1240.2 113.036C1237.77 114.131 1235.11 114.645 1232.44 114.536C1229.77 114.427 1227.17 113.698 1224.84 112.409" fill="#656C73"/>
<path d="M1252.86 83.0691H1249.15V113.922H1252.86V83.0691Z" fill="#656C73"/>
<path d="M1259.69 112.322C1258.16 110.565 1257.37 108.298 1257.49 105.987V92.5608H1261.2V105.382C1261.2 109.339 1263 111.285 1266.58 111.285C1267.73 111.301 1268.86 110.96 1269.8 110.312C1270.74 109.641 1271.5 108.749 1272 107.717C1272.5 106.668 1272.75 105.524 1272.74 104.366V92.5608H1276.43V113.922H1272.92V110.744H1272.85C1272.15 111.896 1271.15 112.843 1269.96 113.49C1268.7 114.232 1267.25 114.621 1265.79 114.614C1264.66 114.696 1263.53 114.533 1262.48 114.137C1261.42 113.741 1260.47 113.121 1259.69 112.322Z" fill="#656C73"/>
<path d="M617.464 98.9606L631.488 91.0041C633.074 90.1038 634.232 88.6196 634.707 86.8781C635.182 85.1366 634.936 83.2804 634.022 81.7178C633.109 80.1553 631.602 79.0143 629.834 78.546C628.067 78.0777 626.183 78.3203 624.597 79.2206L600.456 92.9932L617.464 98.9606Z" fill="#EA4335"/>
<path d="M628.042 119.393C629.56 119.393 631.035 118.9 632.239 117.99C633.443 117.08 634.308 115.805 634.701 114.36C635.094 112.916 634.992 111.385 634.411 110.004C633.83 108.623 632.802 107.47 631.488 106.723L607.347 92.9284C605.761 92.0282 603.877 91.7855 602.109 92.2538C600.342 92.7221 598.835 93.8631 597.922 95.4257C597.008 96.9882 596.761 98.8445 597.237 100.586C597.712 102.327 598.87 103.812 600.456 104.712L624.597 118.484C625.641 119.088 626.832 119.401 628.042 119.393Z" fill="#4285F4"/>
<path d="M652.138 119.392C653.348 119.396 654.537 119.083 655.584 118.484L679.724 104.712L662.914 98.6794L648.671 106.787C647.387 107.549 646.39 108.702 645.831 110.072C645.272 111.442 645.182 112.955 645.574 114.38C645.966 115.805 646.819 117.065 648.003 117.97C649.188 118.875 650.64 119.374 652.138 119.392Z" fill="#FBBC04"/>
<path d="M676.345 105.685C677.86 105.676 679.33 105.177 680.53 104.264C681.729 103.352 682.59 102.076 682.982 100.634C683.374 99.1917 683.273 97.6627 682.697 96.2822C682.12 94.9016 681.099 93.746 679.79 92.9931L655.584 79.2205C654.797 78.7296 653.918 78.4004 652.999 78.2526C652.079 78.1048 651.139 78.1416 650.235 78.3607C649.33 78.5798 648.48 78.9767 647.735 79.5275C646.99 80.0784 646.366 80.7718 645.9 81.5662C645.434 82.3607 645.136 83.2397 645.023 84.1506C644.911 85.0614 644.986 85.9853 645.245 86.8667C645.503 87.7482 645.94 88.569 646.529 89.28C647.118 89.9909 647.847 90.5773 648.671 91.004L672.811 104.777C673.861 105.367 675.048 105.68 676.257 105.685" fill="#34A853"/>
<path d="M814.56 134.009H821.472C823.819 134.009 825.867 134.5 827.616 135.481C829.365 136.441 830.709 137.785 831.648 139.513C832.587 141.241 833.056 143.225 833.056 145.465C833.056 147.705 832.587 149.689 831.648 151.417C830.709 153.145 829.365 154.5 827.616 155.481C825.867 156.441 823.819 156.921 821.472 156.921H814.56V134.009ZM821.472 154.329C824.181 154.329 826.325 153.55 827.904 151.993C829.504 150.436 830.304 148.26 830.304 145.465C830.304 142.67 829.504 140.494 827.904 138.937C826.325 137.38 824.181 136.601 821.472 136.601H817.248V154.329H821.472ZM837.06 134.009H839.748V143.929H851.588V134.009H854.276V156.921H851.588V146.489H839.748V156.921H837.06V134.009ZM865.996 134.009H869.068L877.772 156.921H874.796L872.492 150.617H862.604L860.3 156.921H857.324L865.996 134.009ZM871.564 148.057L868.524 139.801L867.596 137.337H867.468L866.572 139.801L863.532 148.057H871.564ZM893.679 157.433C891.887 157.433 890.244 156.889 888.751 155.801C887.257 154.713 886.233 153.188 885.679 151.225L888.271 150.169C888.633 151.534 889.305 152.654 890.287 153.529C891.268 154.404 892.42 154.841 893.743 154.841C895.065 154.841 896.185 154.489 897.103 153.785C898.02 153.06 898.479 152.078 898.479 150.841C898.479 149.774 898.084 148.9 897.295 148.217C896.527 147.513 895.257 146.862 893.487 146.265L892.047 145.753C890.425 145.177 889.103 144.42 888.079 143.481C887.055 142.542 886.543 141.241 886.543 139.577C886.543 138.489 886.841 137.486 887.439 136.569C888.036 135.63 888.868 134.884 889.935 134.329C891.001 133.774 892.196 133.497 893.519 133.497C894.841 133.497 895.993 133.742 896.975 134.233C897.956 134.724 898.735 135.321 899.311 136.025C899.908 136.729 900.324 137.422 900.559 138.105L897.999 139.193C897.785 138.404 897.295 137.689 896.527 137.049C895.78 136.409 894.788 136.089 893.551 136.089C892.377 136.089 891.375 136.42 890.543 137.081C889.711 137.742 889.295 138.574 889.295 139.577C889.295 140.473 889.647 141.209 890.351 141.785C891.055 142.34 892.121 142.862 893.551 143.353L895.055 143.865C896.996 144.569 898.511 145.454 899.599 146.521C900.687 147.566 901.231 148.996 901.231 150.809C901.231 152.281 900.847 153.518 900.079 154.521C899.332 155.524 898.383 156.26 897.231 156.729C896.079 157.198 894.895 157.433 893.679 157.433ZM910.124 157.433C908.161 157.433 906.657 156.857 905.612 155.705C904.588 154.553 904.076 152.942 904.076 150.873V140.601H906.796V150.457C906.796 152.014 907.148 153.156 907.852 153.881C908.556 154.606 909.505 154.969 910.7 154.969C911.617 154.969 912.428 154.724 913.132 154.233C913.857 153.742 914.412 153.102 914.796 152.313C915.201 151.524 915.404 150.692 915.404 149.817V140.601H918.124V156.921H915.532V154.553H915.404C914.956 155.364 914.241 156.046 913.26 156.601C912.278 157.156 911.233 157.433 910.124 157.433ZM924.185 143.065H921.177V140.601H924.185V138.841C924.185 137.817 924.42 136.921 924.889 136.153C925.359 135.385 925.988 134.798 926.777 134.393C927.567 133.966 928.441 133.753 929.401 133.753C930.319 133.753 931.119 133.881 931.801 134.137V136.793C931.417 136.644 931.055 136.526 930.713 136.441C930.372 136.334 929.967 136.281 929.497 136.281C928.793 136.281 928.185 136.537 927.673 137.049C927.161 137.54 926.905 138.233 926.905 139.129V140.601H934.329V138.841C934.329 137.817 934.553 136.921 935.001 136.153C935.471 135.385 936.1 134.798 936.889 134.393C937.7 133.966 938.585 133.753 939.545 133.753C940.42 133.753 941.22 133.881 941.945 134.137V136.793C941.519 136.622 941.135 136.494 940.793 136.409C940.473 136.324 940.079 136.281 939.609 136.281C938.905 136.281 938.297 136.537 937.785 137.049C937.273 137.54 937.017 138.233 937.017 139.129V140.601H941.209V143.065H937.017V156.921H934.329V143.065H926.905V156.921H924.185V143.065ZM949.138 157.433C947.944 157.433 946.877 157.198 945.938 156.729C945 156.26 944.274 155.62 943.762 154.809C943.25 153.977 942.994 153.038 942.994 151.993C942.994 150.265 943.645 148.921 944.946 147.961C946.248 146.98 947.89 146.489 949.874 146.489C950.856 146.489 951.762 146.596 952.594 146.809C953.448 147.022 954.098 147.268 954.546 147.545V146.553C954.546 145.337 954.12 144.366 953.266 143.641C952.413 142.894 951.336 142.521 950.034 142.521C949.117 142.521 948.274 142.724 947.506 143.129C946.738 143.513 946.13 144.057 945.682 144.761L943.634 143.225C944.274 142.244 945.149 141.476 946.258 140.921C947.389 140.366 948.637 140.089 950.002 140.089C952.221 140.089 953.96 140.676 955.218 141.849C956.498 143.001 957.138 144.58 957.138 146.585V156.921H954.546V154.585H954.418C953.949 155.374 953.245 156.046 952.306 156.601C951.368 157.156 950.312 157.433 949.138 157.433ZM949.394 155.033C950.312 155.033 951.165 154.798 951.954 154.329C952.744 153.86 953.373 153.23 953.842 152.441C954.312 151.652 954.546 150.788 954.546 149.849C954.034 149.508 953.405 149.23 952.658 149.017C951.912 148.804 951.122 148.697 950.29 148.697C948.797 148.697 947.666 149.006 946.898 149.625C946.152 150.244 945.778 151.044 945.778 152.025C945.778 152.921 946.12 153.646 946.802 154.201C947.485 154.756 948.349 155.033 949.394 155.033ZM976.279 157.433C974.636 157.433 973.175 157.06 971.895 156.313C970.615 155.545 969.623 154.489 968.919 153.145C968.215 151.78 967.863 150.212 967.863 148.441V134.009H970.583V148.569C970.583 150.425 971.073 151.94 972.055 153.113C973.036 154.265 974.444 154.841 976.279 154.841C978.113 154.841 979.521 154.265 980.503 153.113C981.505 151.94 982.007 150.425 982.007 148.569V134.009H984.695V148.441C984.695 150.212 984.353 151.78 983.671 153.145C983.009 154.51 982.039 155.566 980.759 156.313C979.5 157.06 978.007 157.433 976.279 157.433ZM988.61 140.601H991.202V143.001H991.33C991.778 142.19 992.492 141.508 993.474 140.953C994.455 140.377 995.5 140.089 996.61 140.089C998.572 140.089 1000.07 140.665 1001.09 141.817C1002.14 142.948 1002.66 144.494 1002.66 146.457V156.921H999.938V146.873C999.938 145.358 999.575 144.26 998.85 143.577C998.124 142.894 997.132 142.553 995.874 142.553C994.999 142.553 994.21 142.798 993.506 143.289C992.823 143.78 992.29 144.43 991.906 145.241C991.522 146.03 991.33 146.862 991.33 147.737V156.921H988.61V140.601ZM1008.15 137.593C1007.61 137.593 1007.16 137.401 1006.77 137.017C1006.39 136.633 1006.2 136.174 1006.2 135.641C1006.2 135.108 1006.39 134.66 1006.77 134.297C1007.16 133.913 1007.61 133.721 1008.15 133.721C1008.68 133.721 1009.14 133.913 1009.52 134.297C1009.91 134.66 1010.1 135.108 1010.1 135.641C1010.1 136.174 1009.91 136.633 1009.52 137.017C1009.16 137.401 1008.7 137.593 1008.15 137.593ZM1006.8 140.601H1009.49V156.921H1006.8V140.601ZM1011.97 140.601H1014.89L1019.94 153.721H1020.01L1025.13 140.601H1027.97L1021.32 156.921H1018.57L1011.97 140.601ZM1037 157.433C1035.44 157.433 1034.04 157.06 1032.81 156.313C1031.57 155.566 1030.6 154.542 1029.89 153.241C1029.21 151.918 1028.87 150.436 1028.87 148.793C1028.87 147.214 1029.19 145.764 1029.83 144.441C1030.49 143.118 1031.42 142.062 1032.61 141.273C1033.81 140.484 1035.2 140.089 1036.77 140.089C1038.37 140.089 1039.76 140.452 1040.93 141.177C1042.11 141.881 1043 142.862 1043.62 144.121C1044.26 145.38 1044.58 146.82 1044.58 148.441C1044.58 148.761 1044.55 149.038 1044.49 149.273H1031.59C1031.65 150.51 1031.95 151.556 1032.49 152.409C1033.02 153.262 1033.69 153.902 1034.5 154.329C1035.33 154.756 1036.2 154.969 1037.09 154.969C1039.19 154.969 1040.8 153.988 1041.93 152.025L1044.23 153.145C1043.53 154.468 1042.57 155.513 1041.35 156.281C1040.16 157.049 1038.71 157.433 1037 157.433ZM1041.7 147.033C1041.66 146.35 1041.47 145.668 1041.13 144.985C1040.79 144.302 1040.24 143.726 1039.49 143.257C1038.77 142.788 1037.85 142.553 1036.74 142.553C1035.46 142.553 1034.37 142.969 1033.48 143.801C1032.6 144.612 1032.03 145.689 1031.75 147.033H1041.7ZM1047.77 140.601H1050.36V143.225H1050.49C1050.81 142.329 1051.42 141.593 1052.34 141.017C1053.26 140.42 1054.22 140.121 1055.22 140.121C1055.97 140.121 1056.61 140.228 1057.14 140.441V143.385C1056.46 143.044 1055.69 142.873 1054.84 142.873C1054.05 142.873 1053.32 143.097 1052.66 143.545C1052 143.993 1051.47 144.601 1051.06 145.369C1050.68 146.116 1050.49 146.926 1050.49 147.801V156.921H1047.77V140.601ZM1064.84 157.433C1063.09 157.433 1061.63 157.028 1060.45 156.217C1059.28 155.385 1058.45 154.329 1057.96 153.049L1060.39 151.961C1060.79 152.942 1061.39 153.7 1062.18 154.233C1062.99 154.766 1063.88 155.033 1064.84 155.033C1065.86 155.033 1066.74 154.83 1067.46 154.425C1068.19 153.998 1068.55 153.401 1068.55 152.633C1068.55 151.95 1068.26 151.406 1067.69 151.001C1067.11 150.574 1066.2 150.212 1064.97 149.913L1062.98 149.401C1061.68 149.081 1060.61 148.537 1059.78 147.769C1058.95 147.001 1058.53 146.009 1058.53 144.793C1058.53 143.854 1058.81 143.033 1059.37 142.329C1059.94 141.604 1060.7 141.049 1061.64 140.665C1062.58 140.281 1063.59 140.089 1064.68 140.089C1066.11 140.089 1067.38 140.398 1068.49 141.017C1069.62 141.636 1070.42 142.5 1070.89 143.609L1068.52 144.697C1067.79 143.246 1066.5 142.521 1064.65 142.521C1063.75 142.521 1062.96 142.734 1062.28 143.161C1061.62 143.566 1061.29 144.089 1061.29 144.729C1061.29 145.326 1061.52 145.817 1061.99 146.201C1062.46 146.564 1063.16 146.862 1064.1 147.097L1066.47 147.705C1068.07 148.11 1069.27 148.718 1070.09 149.529C1070.9 150.318 1071.3 151.289 1071.3 152.441C1071.3 153.444 1071.01 154.329 1070.44 155.097C1069.86 155.844 1069.08 156.42 1068.1 156.825C1067.12 157.23 1066.03 157.433 1064.84 157.433ZM1075.71 137.593C1075.18 137.593 1074.72 137.401 1074.33 137.017C1073.95 136.633 1073.76 136.174 1073.76 135.641C1073.76 135.108 1073.95 134.66 1074.33 134.297C1074.72 133.913 1075.18 133.721 1075.71 133.721C1076.24 133.721 1076.7 133.913 1077.09 134.297C1077.47 134.66 1077.66 135.108 1077.66 135.641C1077.66 136.174 1077.47 136.633 1077.09 137.017C1076.72 137.401 1076.26 137.593 1075.71 137.593ZM1074.37 140.601H1077.05V156.921H1074.37V140.601ZM1087.44 157.177C1086.78 157.177 1086.16 157.07 1085.59 156.857C1085.03 156.644 1084.56 156.356 1084.18 155.993C1083.75 155.588 1083.43 155.118 1083.22 154.585C1083.01 154.052 1082.9 153.401 1082.9 152.633V143.065H1080.05V140.601H1082.9V135.993H1085.62V140.601H1089.59V143.065H1085.62V151.961C1085.62 152.857 1085.79 153.518 1086.13 153.945C1086.54 154.414 1087.12 154.649 1087.89 154.649C1088.51 154.649 1089.11 154.468 1089.68 154.105V156.761C1089.36 156.91 1089.03 157.017 1088.69 157.081C1088.37 157.145 1087.96 157.177 1087.44 157.177ZM1098.04 155.897L1091.29 140.601H1094.23L1099.35 152.729H1099.42L1104.34 140.601H1107.29L1097.21 163.833H1094.39L1098.04 155.897Z" fill="#656C73"/>
<defs>
<linearGradient id="paint0_linear_56_5" x1="1190.82" y1="637.144" x2="1124.89" y2="635.119" gradientUnits="userSpaceOnUse">
<stop stop-color="#BCBCBC"/>
<stop offset="0.13" stop-color="#C7C7C7"/>
<stop offset="0.37" stop-color="#D8D8D8"/>
<stop offset="0.65" stop-color="#E1E1E1"/>
<stop offset="1" stop-color="#E5E5E5"/>
</linearGradient>
<clipPath id="clip0_56_5">
<rect width="883.333" height="361.111" fill="white" transform="matrix(-1 0 0 1 1269.67 356.778)"/>
</clipPath>
</defs>
</svg>
