<svg xmlns="http://www.w3.org/2000/svg" fill="none" viewBox="4 0 32 32">
<g filter="url(#filter0_d_389_679)">
<rect x="4.5" y="0.5" width="31" height="31" rx="15.5" stroke="#656C73"/>
<path d="M20 7C17.5576 7 17.2505 7.01125 16.2909 7.054C15.3313 7.099 14.6776 7.24975 14.105 7.4725C13.5041 7.69787 12.9599 8.05232 12.5109 8.51088C12.0523 8.95991 11.6979 9.50407 11.4725 10.105C11.2497 10.6765 11.0979 11.3312 11.054 12.2875C11.0113 13.2494 11 13.5554 11 16.0011C11 18.4446 11.0113 18.7506 11.054 19.7103C11.099 20.6688 11.2497 21.3224 11.4725 21.895C11.7031 22.4867 12.0103 22.9885 12.5109 23.4891C13.0104 23.9897 13.5121 24.298 14.1039 24.5275C14.6776 24.7502 15.3301 24.9021 16.2886 24.946C17.2494 24.9888 17.5554 25 20 25C22.4446 25 22.7495 24.9888 23.7103 24.946C24.6676 24.901 25.3235 24.7502 25.8961 24.5275C26.4966 24.302 27.0404 23.9475 27.4891 23.4891C27.9897 22.9885 28.2969 22.4867 28.5275 21.895C28.7491 21.3224 28.901 20.6688 28.946 19.7103C28.9888 18.7506 29 18.4446 29 16C29 13.5554 28.9888 13.2494 28.946 12.2886C28.901 11.3313 28.7491 10.6765 28.5275 10.105C28.3021 9.50407 27.9477 8.95991 27.4891 8.51088C27.0401 8.05232 26.4959 7.69787 25.895 7.4725C25.3212 7.24975 24.6665 7.09787 23.7091 7.054C22.7484 7.01125 22.4435 7 19.9978 7H20ZM19.1934 8.62225H20.0011C22.4041 8.62225 22.6887 8.63013 23.6371 8.674C24.5146 8.71338 24.9916 8.86075 25.3089 8.98338C25.7285 9.1465 26.0289 9.34225 26.3439 9.65725C26.6589 9.97225 26.8535 10.2715 27.0166 10.6923C27.1404 11.0084 27.2866 11.4854 27.326 12.3629C27.3699 13.3113 27.3789 13.5959 27.3789 15.9978C27.3789 18.3996 27.3699 18.6854 27.326 19.6337C27.2866 20.5112 27.1392 20.9871 27.0166 21.3044C26.8713 21.6946 26.6411 22.0478 26.3427 22.3383C26.0277 22.6532 25.7285 22.8479 25.3078 23.011C24.9928 23.1348 24.5157 23.281 23.6371 23.3215C22.6887 23.3643 22.4041 23.3744 20.0011 23.3744C17.5981 23.3744 17.3124 23.3643 16.364 23.3215C15.4865 23.281 15.0106 23.1348 14.6934 23.011C14.3028 22.8662 13.9493 22.6364 13.6584 22.3383C13.3594 22.0476 13.1289 21.694 12.9834 21.3032C12.8607 20.9871 12.7134 20.5101 12.674 19.6326C12.6313 18.6842 12.6223 18.3996 12.6223 15.9955C12.6223 13.5914 12.6313 13.309 12.674 12.3606C12.7145 11.4831 12.8608 11.0061 12.9845 10.6889C13.1476 10.2693 13.3434 9.96887 13.6584 9.65387C13.9734 9.33888 14.2726 9.14425 14.6934 8.98112C15.0106 8.85738 15.4865 8.71113 16.364 8.67062C17.1943 8.63238 17.516 8.62113 19.1934 8.62V8.62225ZM24.8049 10.1163C24.663 10.1163 24.5226 10.1442 24.3916 10.1985C24.2605 10.2527 24.1415 10.3323 24.0412 10.4326C23.9409 10.5329 23.8614 10.6519 23.8071 10.783C23.7528 10.914 23.7249 11.0544 23.7249 11.1962C23.7249 11.3381 23.7528 11.4785 23.8071 11.6095C23.8614 11.7406 23.9409 11.8596 24.0412 11.9599C24.1415 12.0602 24.2605 12.1398 24.3916 12.194C24.5226 12.2483 24.663 12.2762 24.8049 12.2762C25.0913 12.2762 25.366 12.1625 25.5686 11.9599C25.7711 11.7574 25.8849 11.4827 25.8849 11.1962C25.8849 10.9098 25.7711 10.6351 25.5686 10.4326C25.366 10.23 25.0913 10.1163 24.8049 10.1163ZM20.0011 11.3785C19.3881 11.3689 18.7793 11.4814 18.2101 11.7094C17.6409 11.9374 17.1228 12.2763 16.6859 12.7065C16.249 13.1366 15.902 13.6494 15.6652 14.2149C15.4284 14.7804 15.3064 15.3874 15.3064 16.0006C15.3064 16.6137 15.4284 17.2207 15.6652 17.7862C15.902 18.3517 16.249 18.8645 16.6859 19.2946C17.1228 19.7248 17.6409 20.0637 18.2101 20.2917C18.7793 20.5197 19.3881 20.6322 20.0011 20.6226C21.2145 20.6037 22.3717 20.1084 23.2231 19.2437C24.0745 18.3789 24.5516 17.2141 24.5516 16.0006C24.5516 14.7871 24.0745 13.6222 23.2231 12.7575C22.3717 11.8927 21.2145 11.3974 20.0011 11.3785ZM20.0011 12.9996C20.3951 12.9996 20.7853 13.0772 21.1493 13.228C21.5133 13.3788 21.8441 13.5998 22.1227 13.8784C22.4013 14.157 22.6223 14.4878 22.7731 14.8518C22.9239 15.2158 23.0015 15.606 23.0015 16C23.0015 16.394 22.9239 16.7842 22.7731 17.1482C22.6223 17.5122 22.4013 17.843 22.1227 18.1216C21.8441 18.4002 21.5133 18.6212 21.1493 18.772C20.7853 18.9228 20.3951 19.0004 20.0011 19.0004C19.2054 19.0004 18.4422 18.6843 17.8795 18.1216C17.3169 17.5589 17.0008 16.7957 17.0008 16C17.0008 15.2043 17.3169 14.4411 17.8795 13.8784C18.4422 13.3157 19.2054 12.9996 20.0011 12.9996Z" fill="#656C73"/>
</g>
<defs>
<filter id="filter0_d_389_679" x="0" y="0" width="40" height="40" filterUnits="userSpaceOnUse" color-interpolation-filters="sRGB">
<feFlood flood-opacity="0" result="BackgroundImageFix"/>
<feColorMatrix in="SourceAlpha" type="matrix" values="0 0 0 0 0 0 0 0 0 0 0 0 0 0 0 0 0 0 127 0" result="hardAlpha"/>
<feOffset dy="4"/>
<feGaussianBlur stdDeviation="2"/>
<feComposite in2="hardAlpha" operator="out"/>
<feColorMatrix type="matrix" values="0 0 0 0 0 0 0 0 0 0 0 0 0 0 0 0 0 0 0.25 0"/>
<feBlend mode="normal" in2="BackgroundImageFix" result="effect1_dropShadow_389_679"/>
<feBlend mode="normal" in="SourceGraphic" in2="effect1_dropShadow_389_679" result="shape"/>
</filter>
</defs>
</svg>