<svg width="362" height="43" viewBox="0 0 362 43" fill="none" xmlns="http://www.w3.org/2000/svg">
<path d="M11.8678 13.055L20.0003 8.4429C20.9201 7.92104 21.5917 7.06074 21.8674 6.05125C22.1431 5.04176 22.0002 3.96577 21.4703 3.06C20.9404 2.15423 20.0667 1.49286 19.0416 1.22139C18.0165 0.949918 16.9239 1.09059 16.0041 1.61244L2.00439 9.59593L11.8678 13.055Z" fill="#EA4335"/>
<path d="M18.0022 24.8989C18.8822 24.8992 19.7377 24.6135 20.4359 24.0861C21.1342 23.5587 21.6361 22.819 21.8638 21.982C22.0916 21.1449 22.0324 20.2573 21.6954 19.4567C21.3585 18.6562 20.7626 17.9876 20.0003 17.5546L6.00068 9.55858C5.08088 9.03672 3.98824 8.89605 2.96312 9.16752C1.938 9.43899 1.06438 10.1004 0.534442 11.0061C0.00450346 11.9119 -0.138342 12.9879 0.13733 13.9974C0.413002 15.0069 1.08461 15.8672 2.00441 16.389L16.0041 24.3725C16.6098 24.7221 17.3002 24.904 18.0022 24.8989Z" fill="#4285F4"/>
<path d="M31.976 24.8991C32.6777 24.9011 33.3673 24.7195 33.9742 24.3727L47.9738 16.3892L38.225 12.8925L29.9652 17.5924C29.2205 18.0338 28.6422 18.7023 28.3181 19.4965C27.9939 20.2907 27.9416 21.1673 28.1689 21.9934C28.3963 22.8196 28.891 23.5502 29.578 24.0745C30.265 24.5989 31.1069 24.8884 31.976 24.8991Z" fill="#FBBC04"/>
<path d="M46.0147 16.9529C46.8935 16.9478 47.7462 16.6585 48.4416 16.1295C49.1371 15.6005 49.6368 14.8611 49.8639 14.0252C50.0909 13.1892 50.0327 12.3029 49.6983 11.5026C49.3639 10.7024 48.7717 10.0325 48.0129 9.59608L33.975 1.6126C33.5187 1.32802 33.0087 1.13717 32.4756 1.05152C31.9425 0.965871 31.3974 0.987182 30.8729 1.11418C30.3484 1.24117 29.8553 1.47123 29.4233 1.79053C28.9914 2.10984 28.6294 2.51181 28.3591 2.97232C28.0888 3.43283 27.9158 3.94237 27.8505 4.47036C27.7851 4.99834 27.8288 5.53389 27.9789 6.04483C28.129 6.55578 28.3824 7.0316 28.7238 7.44371C29.0653 7.85582 29.4878 8.19574 29.966 8.44305L43.9657 16.4265C44.5744 16.7689 45.2628 16.9503 45.9638 16.9529" fill="#34A853"/>
<path d="M75.32 19.32C73.9733 19.32 72.7333 18.9933 71.6 18.34C70.4667 17.6867 69.5667 16.7867 68.9 15.64C68.2333 14.4933 67.9 13.2267 67.9 11.84C67.9 10.4533 68.2333 9.18667 68.9 8.04C69.5667 6.89333 70.4667 5.99333 71.6 5.34C72.7333 4.68667 73.9733 4.36 75.32 4.36C76.3733 4.36 77.36 4.54667 78.28 4.92C79.2133 5.29333 79.98 5.82 80.58 6.5L79.36 7.72C78.9067 7.16 78.3267 6.73333 77.62 6.44C76.9133 6.13333 76.1533 5.98 75.34 5.98C74.3267 5.98 73.38 6.22667 72.5 6.72C71.6333 7.2 70.9333 7.88667 70.4 8.78C69.88 9.66 69.62 10.68 69.62 11.84C69.62 13 69.88 14.0267 70.4 14.92C70.9333 15.8 71.64 16.4867 72.52 16.98C73.4 17.46 74.34 17.7 75.34 17.7C76.3 17.7 77.1 17.5533 77.74 17.26C78.3933 16.9533 78.9533 16.5533 79.42 16.06C79.7667 15.6867 80.0467 15.24 80.26 14.72C80.4733 14.1867 80.6067 13.6 80.66 12.96H75.36V11.38H82.24C82.3067 11.7533 82.34 12.1 82.34 12.42C82.34 13.3 82.2 14.16 81.92 15C81.64 15.8267 81.1933 16.5533 80.58 17.18C79.26 18.6067 77.5067 19.32 75.32 19.32ZM89.1319 19.32C88.1319 19.32 87.2319 19.08 86.4319 18.6C85.6319 18.12 85.0052 17.4667 84.5519 16.64C84.1119 15.8133 83.8919 14.9 83.8919 13.9C83.8919 12.9 84.1119 11.9867 84.5519 11.16C85.0052 10.3333 85.6319 9.68 86.4319 9.2C87.2319 8.72 88.1319 8.48 89.1319 8.48C90.1319 8.48 91.0319 8.72 91.8319 9.2C92.6319 9.68 93.2519 10.3333 93.6919 11.16C94.1452 11.9867 94.3719 12.9 94.3719 13.9C94.3719 14.9 94.1452 15.8133 93.6919 16.64C93.2519 17.4667 92.6319 18.12 91.8319 18.6C91.0319 19.08 90.1319 19.32 89.1319 19.32ZM89.1319 17.78C89.7585 17.78 90.3385 17.6267 90.8719 17.32C91.4185 17 91.8519 16.5467 92.1719 15.96C92.5052 15.3733 92.6719 14.6867 92.6719 13.9C92.6719 13.1133 92.5052 12.4267 92.1719 11.84C91.8519 11.2533 91.4185 10.8067 90.8719 10.5C90.3385 10.18 89.7585 10.02 89.1319 10.02C88.5052 10.02 87.9185 10.18 87.3719 10.5C86.8252 10.8067 86.3852 11.2533 86.0519 11.84C85.7319 12.4267 85.5719 13.1133 85.5719 13.9C85.5719 14.6867 85.7319 15.3733 86.0519 15.96C86.3852 16.5467 86.8252 17 87.3719 17.32C87.9185 17.6267 88.5052 17.78 89.1319 17.78ZM101.046 19.32C100.046 19.32 99.1459 19.08 98.3459 18.6C97.5459 18.12 96.9193 17.4667 96.4659 16.64C96.0259 15.8133 95.8059 14.9 95.8059 13.9C95.8059 12.9 96.0259 11.9867 96.4659 11.16C96.9193 10.3333 97.5459 9.68 98.3459 9.2C99.1459 8.72 100.046 8.48 101.046 8.48C102.046 8.48 102.946 8.72 103.746 9.2C104.546 9.68 105.166 10.3333 105.606 11.16C106.059 11.9867 106.286 12.9 106.286 13.9C106.286 14.9 106.059 15.8133 105.606 16.64C105.166 17.4667 104.546 18.12 103.746 18.6C102.946 19.08 102.046 19.32 101.046 19.32ZM101.046 17.78C101.673 17.78 102.253 17.6267 102.786 17.32C103.333 17 103.766 16.5467 104.086 15.96C104.419 15.3733 104.586 14.6867 104.586 13.9C104.586 13.1133 104.419 12.4267 104.086 11.84C103.766 11.2533 103.333 10.8067 102.786 10.5C102.253 10.18 101.673 10.02 101.046 10.02C100.419 10.02 99.8326 10.18 99.2859 10.5C98.7393 10.8067 98.2993 11.2533 97.9659 11.84C97.6459 12.4267 97.4859 13.1133 97.4859 13.9C97.4859 14.6867 97.6459 15.3733 97.9659 15.96C98.2993 16.5467 98.7393 17 99.2859 17.32C99.8326 17.6267 100.419 17.78 101.046 17.78ZM112.74 23.64C111.54 23.64 110.547 23.36 109.76 22.8C108.987 22.24 108.467 21.5667 108.2 20.78L109.74 20.12C109.967 20.7067 110.34 21.18 110.86 21.54C111.393 21.9133 112.02 22.1 112.74 22.1C113.793 22.1 114.607 21.7933 115.18 21.18C115.767 20.5667 116.06 19.7 116.06 18.58V17.44H115.98C115.647 17.96 115.173 18.3867 114.56 18.72C113.96 19.04 113.273 19.2 112.5 19.2C111.62 19.2 110.813 18.9733 110.08 18.52C109.36 18.0667 108.787 17.4333 108.36 16.62C107.933 15.8067 107.72 14.88 107.72 13.84C107.72 12.8133 107.933 11.8933 108.36 11.08C108.787 10.2533 109.36 9.61333 110.08 9.16C110.813 8.70667 111.62 8.48 112.5 8.48C113.273 8.48 113.96 8.64667 114.56 8.98C115.173 9.3 115.647 9.72667 115.98 10.26H116.06V8.8H117.68V18.6C117.68 20.24 117.227 21.4867 116.32 22.34C115.413 23.2067 114.22 23.64 112.74 23.64ZM112.74 17.66C113.353 17.66 113.907 17.5067 114.4 17.2C114.907 16.8933 115.307 16.4533 115.6 15.88C115.907 15.3067 116.06 14.6267 116.06 13.84C116.06 13.04 115.907 12.3533 115.6 11.78C115.307 11.2067 114.907 10.7733 114.4 10.48C113.907 10.1733 113.353 10.02 112.74 10.02C112.127 10.02 111.567 10.1733 111.06 10.48C110.553 10.7867 110.147 11.2267 109.84 11.8C109.547 12.3733 109.4 13.0533 109.4 13.84C109.4 14.6267 109.547 15.3133 109.84 15.9C110.147 16.4733 110.553 16.9133 111.06 17.22C111.567 17.5133 112.127 17.66 112.74 17.66ZM120.194 4.68H121.894V19H120.194V4.68ZM128.855 19.32C127.881 19.32 127.008 19.0867 126.235 18.62C125.461 18.1533 124.855 17.5133 124.415 16.7C123.988 15.8733 123.775 14.9467 123.775 13.92C123.775 12.9333 123.975 12.0267 124.375 11.2C124.788 10.3733 125.368 9.71333 126.115 9.22C126.861 8.72667 127.728 8.48 128.715 8.48C129.715 8.48 130.581 8.70667 131.315 9.16C132.048 9.6 132.608 10.2133 132.995 11C133.395 11.7867 133.595 12.6867 133.595 13.7C133.595 13.9 133.575 14.0733 133.535 14.22H125.475C125.515 14.9933 125.701 15.6467 126.035 16.18C126.368 16.7133 126.788 17.1133 127.295 17.38C127.815 17.6467 128.355 17.78 128.915 17.78C130.221 17.78 131.228 17.1667 131.935 15.94L133.375 16.64C132.935 17.4667 132.335 18.12 131.575 18.6C130.828 19.08 129.921 19.32 128.855 19.32ZM131.795 12.82C131.768 12.3933 131.648 11.9667 131.435 11.54C131.221 11.1133 130.881 10.7533 130.415 10.46C129.961 10.1667 129.388 10.02 128.695 10.02C127.895 10.02 127.215 10.28 126.655 10.8C126.108 11.3067 125.748 11.98 125.575 12.82H131.795ZM140.573 4.68H144.893C146.359 4.68 147.639 4.98667 148.733 5.6C149.826 6.2 150.666 7.04 151.253 8.12C151.839 9.2 152.133 10.44 152.133 11.84C152.133 13.24 151.839 14.48 151.253 15.56C150.666 16.64 149.826 17.4867 148.733 18.1C147.639 18.7 146.359 19 144.893 19H140.573V4.68ZM144.893 17.38C146.586 17.38 147.926 16.8933 148.913 15.92C149.913 14.9467 150.413 13.5867 150.413 11.84C150.413 10.0933 149.913 8.73333 148.913 7.76C147.926 6.78667 146.586 6.3 144.893 6.3H142.253V17.38H144.893ZM158.542 19.32C157.569 19.32 156.696 19.0867 155.922 18.62C155.149 18.1533 154.542 17.5133 154.102 16.7C153.676 15.8733 153.462 14.9467 153.462 13.92C153.462 12.9333 153.662 12.0267 154.062 11.2C154.476 10.3733 155.056 9.71333 155.802 9.22C156.549 8.72667 157.416 8.48 158.402 8.48C159.402 8.48 160.269 8.70667 161.002 9.16C161.736 9.6 162.296 10.2133 162.682 11C163.082 11.7867 163.282 12.6867 163.282 13.7C163.282 13.9 163.262 14.0733 163.222 14.22H155.162C155.202 14.9933 155.389 15.6467 155.722 16.18C156.056 16.7133 156.476 17.1133 156.982 17.38C157.502 17.6467 158.042 17.78 158.602 17.78C159.909 17.78 160.916 17.1667 161.622 15.94L163.062 16.64C162.622 17.4667 162.022 18.12 161.262 18.6C160.516 19.08 159.609 19.32 158.542 19.32ZM161.482 12.82C161.456 12.3933 161.336 11.9667 161.122 11.54C160.909 11.1133 160.569 10.7533 160.102 10.46C159.649 10.1667 159.076 10.02 158.382 10.02C157.582 10.02 156.902 10.28 156.342 10.8C155.796 11.3067 155.436 11.98 155.262 12.82H161.482ZM163.956 8.8H165.776L168.936 17H168.976L172.176 8.8H173.956L169.796 19H168.076L163.956 8.8ZM179.597 19.32C178.624 19.32 177.75 19.0867 176.977 18.62C176.204 18.1533 175.597 17.5133 175.157 16.7C174.73 15.8733 174.517 14.9467 174.517 13.92C174.517 12.9333 174.717 12.0267 175.117 11.2C175.53 10.3733 176.11 9.71333 176.857 9.22C177.604 8.72667 178.47 8.48 179.457 8.48C180.457 8.48 181.324 8.70667 182.057 9.16C182.79 9.6 183.35 10.2133 183.737 11C184.137 11.7867 184.337 12.6867 184.337 13.7C184.337 13.9 184.317 14.0733 184.277 14.22H176.217C176.257 14.9933 176.444 15.6467 176.777 16.18C177.11 16.7133 177.53 17.1133 178.037 17.38C178.557 17.6467 179.097 17.78 179.657 17.78C180.964 17.78 181.97 17.1667 182.677 15.94L184.117 16.64C183.677 17.4667 183.077 18.12 182.317 18.6C181.57 19.08 180.664 19.32 179.597 19.32ZM182.537 12.82C182.51 12.3933 182.39 11.9667 182.177 11.54C181.964 11.1133 181.624 10.7533 181.157 10.46C180.704 10.1667 180.13 10.02 179.437 10.02C178.637 10.02 177.957 10.28 177.397 10.8C176.85 11.3067 176.49 11.98 176.317 12.82H182.537ZM186.326 4.68H188.026V19H186.326V4.68ZM195.148 19.32C194.148 19.32 193.248 19.08 192.448 18.6C191.648 18.12 191.021 17.4667 190.568 16.64C190.128 15.8133 189.908 14.9 189.908 13.9C189.908 12.9 190.128 11.9867 190.568 11.16C191.021 10.3333 191.648 9.68 192.448 9.2C193.248 8.72 194.148 8.48 195.148 8.48C196.148 8.48 197.048 8.72 197.848 9.2C198.648 9.68 199.268 10.3333 199.708 11.16C200.161 11.9867 200.388 12.9 200.388 13.9C200.388 14.9 200.161 15.8133 199.708 16.64C199.268 17.4667 198.648 18.12 197.848 18.6C197.048 19.08 196.148 19.32 195.148 19.32ZM195.148 17.78C195.774 17.78 196.354 17.6267 196.888 17.32C197.434 17 197.868 16.5467 198.188 15.96C198.521 15.3733 198.688 14.6867 198.688 13.9C198.688 13.1133 198.521 12.4267 198.188 11.84C197.868 11.2533 197.434 10.8067 196.888 10.5C196.354 10.18 195.774 10.02 195.148 10.02C194.521 10.02 193.934 10.18 193.388 10.5C192.841 10.8067 192.401 11.2533 192.068 11.84C191.748 12.4267 191.588 13.1133 191.588 13.9C191.588 14.6867 191.748 15.3733 192.068 15.96C192.401 16.5467 192.841 17 193.388 17.32C193.934 17.6267 194.521 17.78 195.148 17.78ZM202.184 8.8H203.804V10.32H203.884C204.191 9.8 204.651 9.36667 205.264 9.02C205.891 8.66 206.591 8.48 207.364 8.48C208.271 8.48 209.097 8.71333 209.844 9.18C210.591 9.64667 211.177 10.2933 211.604 11.12C212.031 11.9467 212.244 12.8733 212.244 13.9C212.244 14.94 212.031 15.8733 211.604 16.7C211.177 17.5133 210.591 18.1533 209.844 18.62C209.097 19.0867 208.271 19.32 207.364 19.32C206.591 19.32 205.891 19.1467 205.264 18.8C204.651 18.44 204.191 18.0067 203.884 17.5H203.804L203.884 18.9V23.32H202.184V8.8ZM207.164 17.78C207.751 17.78 208.304 17.62 208.824 17.3C209.344 16.98 209.757 16.5267 210.064 15.94C210.384 15.34 210.544 14.66 210.544 13.9C210.544 13.14 210.384 12.4667 210.064 11.88C209.757 11.28 209.344 10.82 208.824 10.5C208.304 10.18 207.751 10.02 207.164 10.02C206.577 10.02 206.024 10.18 205.504 10.5C204.984 10.82 204.571 11.2733 204.264 11.86C203.957 12.4467 203.804 13.1267 203.804 13.9C203.804 14.6733 203.957 15.3533 204.264 15.94C204.571 16.5267 204.984 16.98 205.504 17.3C206.024 17.62 206.577 17.78 207.164 17.78ZM218.757 19.32C217.784 19.32 216.91 19.0867 216.137 18.62C215.364 18.1533 214.757 17.5133 214.317 16.7C213.89 15.8733 213.677 14.9467 213.677 13.92C213.677 12.9333 213.877 12.0267 214.277 11.2C214.69 10.3733 215.27 9.71333 216.017 9.22C216.764 8.72667 217.63 8.48 218.617 8.48C219.617 8.48 220.484 8.70667 221.217 9.16C221.95 9.6 222.51 10.2133 222.897 11C223.297 11.7867 223.497 12.6867 223.497 13.7C223.497 13.9 223.477 14.0733 223.437 14.22H215.377C215.417 14.9933 215.604 15.6467 215.937 16.18C216.27 16.7133 216.69 17.1133 217.197 17.38C217.717 17.6467 218.257 17.78 218.817 17.78C220.124 17.78 221.13 17.1667 221.837 15.94L223.277 16.64C222.837 17.4667 222.237 18.12 221.477 18.6C220.73 19.08 219.824 19.32 218.757 19.32ZM221.697 12.82C221.67 12.3933 221.55 11.9667 221.337 11.54C221.124 11.1133 220.784 10.7533 220.317 10.46C219.864 10.1667 219.29 10.02 218.597 10.02C217.797 10.02 217.117 10.28 216.557 10.8C216.01 11.3067 215.65 11.98 215.477 12.82H221.697ZM225.487 8.8H227.107V10.44H227.187C227.387 9.88 227.773 9.42 228.347 9.06C228.92 8.68667 229.52 8.5 230.147 8.5C230.613 8.5 231.013 8.56667 231.347 8.7V10.54C230.92 10.3267 230.44 10.22 229.907 10.22C229.413 10.22 228.96 10.36 228.547 10.64C228.133 10.92 227.8 11.3 227.547 11.78C227.307 12.2467 227.187 12.7533 227.187 13.3V19H225.487V8.8ZM241.37 19.32C240.25 19.32 239.223 18.98 238.29 18.3C237.356 17.62 236.716 16.6667 236.37 15.44L237.99 14.78C238.216 15.6333 238.636 16.3333 239.25 16.88C239.863 17.4267 240.583 17.7 241.41 17.7C242.236 17.7 242.936 17.48 243.51 17.04C244.083 16.5867 244.37 15.9733 244.37 15.2C244.37 14.5333 244.123 13.9867 243.63 13.56C243.15 13.12 242.356 12.7133 241.25 12.34L240.35 12.02C239.336 11.66 238.51 11.1867 237.87 10.6C237.23 10.0133 236.91 9.2 236.91 8.16C236.91 7.48 237.096 6.85333 237.47 6.28C237.843 5.69333 238.363 5.22667 239.03 4.88C239.696 4.53333 240.443 4.36 241.27 4.36C242.096 4.36 242.816 4.51333 243.43 4.82C244.043 5.12667 244.53 5.5 244.89 5.94C245.263 6.38 245.523 6.81333 245.67 7.24L244.07 7.92C243.936 7.42667 243.63 6.98 243.15 6.58C242.683 6.18 242.063 5.98 241.29 5.98C240.556 5.98 239.93 6.18667 239.41 6.6C238.89 7.01333 238.63 7.53333 238.63 8.16C238.63 8.72 238.85 9.18 239.29 9.54C239.73 9.88667 240.396 10.2133 241.29 10.52L242.23 10.84C243.443 11.28 244.39 11.8333 245.07 12.5C245.75 13.1533 246.09 14.0467 246.09 15.18C246.09 16.1 245.85 16.8733 245.37 17.5C244.903 18.1267 244.31 18.5867 243.59 18.88C242.87 19.1733 242.13 19.32 241.37 19.32ZM251.653 19.16C251.239 19.16 250.853 19.0933 250.493 18.96C250.146 18.8267 249.853 18.6467 249.613 18.42C249.346 18.1667 249.146 17.8733 249.013 17.54C248.879 17.2067 248.813 16.8 248.813 16.32V10.34H247.033V8.8H248.813V5.92H250.513V8.8H252.993V10.34H250.513V15.9C250.513 16.46 250.619 16.8733 250.833 17.14C251.086 17.4333 251.453 17.58 251.933 17.58C252.319 17.58 252.693 17.4667 253.053 17.24V18.9C252.853 18.9933 252.646 19.06 252.433 19.1C252.233 19.14 251.973 19.16 251.653 19.16ZM258.757 19.32C257.53 19.32 256.59 18.96 255.937 18.24C255.297 17.52 254.977 16.5133 254.977 15.22V8.8H256.677V14.96C256.677 15.9333 256.897 16.6467 257.337 17.1C257.777 17.5533 258.37 17.78 259.117 17.78C259.69 17.78 260.197 17.6267 260.637 17.32C261.09 17.0133 261.437 16.6133 261.677 16.12C261.93 15.6267 262.057 15.1067 262.057 14.56V8.8H263.757V19H262.137V17.52H262.057C261.777 18.0267 261.33 18.4533 260.717 18.8C260.104 19.1467 259.45 19.32 258.757 19.32ZM270.49 19.32C269.583 19.32 268.757 19.0867 268.01 18.62C267.277 18.1533 266.697 17.5133 266.27 16.7C265.843 15.8733 265.63 14.94 265.63 13.9C265.63 12.8733 265.843 11.9467 266.27 11.12C266.697 10.2933 267.277 9.64667 268.01 9.18C268.757 8.71333 269.583 8.48 270.49 8.48C271.277 8.48 271.977 8.66 272.59 9.02C273.203 9.36667 273.67 9.8 273.99 10.32H274.07L273.99 8.9V4.68H275.69V19H274.07V17.5H273.99C273.67 18.0067 273.203 18.44 272.59 18.8C271.977 19.1467 271.277 19.32 270.49 19.32ZM270.69 17.78C271.29 17.78 271.843 17.62 272.35 17.3C272.87 16.98 273.283 16.5267 273.59 15.94C273.91 15.3533 274.07 14.6733 274.07 13.9C274.07 13.1267 273.91 12.4467 273.59 11.86C273.283 11.2733 272.87 10.82 272.35 10.5C271.843 10.18 271.29 10.02 270.69 10.02C270.103 10.02 269.55 10.18 269.03 10.5C268.51 10.82 268.09 11.28 267.77 11.88C267.463 12.4667 267.31 13.14 267.31 13.9C267.31 14.66 267.463 15.34 267.77 15.94C268.09 16.5267 268.51 16.98 269.03 17.3C269.55 17.62 270.103 17.78 270.69 17.78ZM282.644 19.32C281.67 19.32 280.797 19.0867 280.024 18.62C279.25 18.1533 278.644 17.5133 278.204 16.7C277.777 15.8733 277.564 14.9467 277.564 13.92C277.564 12.9333 277.764 12.0267 278.164 11.2C278.577 10.3733 279.157 9.71333 279.904 9.22C280.65 8.72667 281.517 8.48 282.504 8.48C283.504 8.48 284.37 8.70667 285.104 9.16C285.837 9.6 286.397 10.2133 286.784 11C287.184 11.7867 287.384 12.6867 287.384 13.7C287.384 13.9 287.364 14.0733 287.324 14.22H279.264C279.304 14.9933 279.49 15.6467 279.824 16.18C280.157 16.7133 280.577 17.1133 281.084 17.38C281.604 17.6467 282.144 17.78 282.704 17.78C284.01 17.78 285.017 17.1667 285.724 15.94L287.164 16.64C286.724 17.4667 286.124 18.12 285.364 18.6C284.617 19.08 283.71 19.32 282.644 19.32ZM285.584 12.82C285.557 12.3933 285.437 11.9667 285.224 11.54C285.01 11.1133 284.67 10.7533 284.204 10.46C283.75 10.1667 283.177 10.02 282.484 10.02C281.684 10.02 281.004 10.28 280.444 10.8C279.897 11.3067 279.537 11.98 279.364 12.82H285.584ZM289.373 8.8H290.993V10.3H291.073C291.353 9.79333 291.8 9.36667 292.413 9.02C293.027 8.66 293.68 8.48 294.373 8.48C295.6 8.48 296.533 8.84 297.173 9.56C297.827 10.2667 298.153 11.2333 298.153 12.46V19H296.453V12.72C296.453 11.7733 296.227 11.0867 295.773 10.66C295.32 10.2333 294.7 10.02 293.913 10.02C293.367 10.02 292.873 10.1733 292.433 10.48C292.007 10.7867 291.673 11.1933 291.433 11.7C291.193 12.1933 291.073 12.7133 291.073 13.26V19H289.373V8.8ZM303.996 19.16C303.583 19.16 303.196 19.0933 302.836 18.96C302.49 18.8267 302.196 18.6467 301.956 18.42C301.69 18.1667 301.49 17.8733 301.356 17.54C301.223 17.2067 301.156 16.8 301.156 16.32V10.34H299.376V8.8H301.156V5.92H302.856V8.8H305.336V10.34H302.856V15.9C302.856 16.46 302.963 16.8733 303.176 17.14C303.43 17.4333 303.796 17.58 304.276 17.58C304.663 17.58 305.036 17.4667 305.396 17.24V18.9C305.196 18.9933 304.99 19.06 304.776 19.1C304.576 19.14 304.316 19.16 303.996 19.16ZM318.718 19.32C317.332 19.32 316.072 18.9933 314.938 18.34C313.805 17.6867 312.912 16.7933 312.258 15.66C311.618 14.5133 311.298 13.24 311.298 11.84C311.298 10.44 311.618 9.17333 312.258 8.04C312.912 6.89333 313.805 5.99333 314.938 5.34C316.072 4.68667 317.332 4.36 318.718 4.36C319.785 4.36 320.758 4.56667 321.638 4.98C322.532 5.38 323.305 5.95333 323.958 6.7L322.738 7.88C322.192 7.22667 321.592 6.74667 320.938 6.44C320.298 6.13333 319.558 5.98 318.718 5.98C317.678 5.98 316.725 6.22667 315.858 6.72C314.992 7.2 314.298 7.88667 313.778 8.78C313.272 9.66 313.018 10.68 313.018 11.84C313.018 13 313.272 14.0267 313.778 14.92C314.298 15.8 314.992 16.4867 315.858 16.98C316.725 17.46 317.678 17.7 318.718 17.7C320.452 17.7 321.925 16.9867 323.138 15.56L324.378 16.76C323.712 17.5467 322.892 18.1733 321.918 18.64C320.945 19.0933 319.878 19.32 318.718 19.32ZM326.287 4.68H327.987V19H326.287V4.68ZM334.206 19.32C332.979 19.32 332.039 18.96 331.386 18.24C330.746 17.52 330.426 16.5133 330.426 15.22V8.8H332.126V14.96C332.126 15.9333 332.346 16.6467 332.786 17.1C333.226 17.5533 333.819 17.78 334.566 17.78C335.139 17.78 335.646 17.6267 336.086 17.32C336.539 17.0133 336.886 16.6133 337.126 16.12C337.379 15.6267 337.506 15.1067 337.506 14.56V8.8H339.206V19H337.586V17.52H337.506C337.226 18.0267 336.779 18.4533 336.166 18.8C335.553 19.1467 334.899 19.32 334.206 19.32ZM346.897 19.32C346.124 19.32 345.424 19.1467 344.797 18.8C344.184 18.44 343.724 18.0067 343.417 17.5H343.337V19H341.717V4.68H343.417V8.9L343.337 10.32H343.417C343.724 9.8 344.184 9.36667 344.797 9.02C345.424 8.66 346.124 8.48 346.897 8.48C347.804 8.48 348.63 8.71333 349.377 9.18C350.124 9.64667 350.71 10.2933 351.137 11.12C351.564 11.9467 351.777 12.8733 351.777 13.9C351.777 14.94 351.564 15.8733 351.137 16.7C350.71 17.5133 350.124 18.1533 349.377 18.62C348.63 19.0867 347.804 19.32 346.897 19.32ZM346.697 17.78C347.284 17.78 347.837 17.62 348.357 17.3C348.877 16.98 349.29 16.5267 349.597 15.94C349.917 15.34 350.077 14.66 350.077 13.9C350.077 13.14 349.917 12.4667 349.597 11.88C349.29 11.28 348.877 10.82 348.357 10.5C347.837 10.18 347.284 10.02 346.697 10.02C346.11 10.02 345.557 10.18 345.037 10.5C344.517 10.82 344.104 11.2733 343.797 11.86C343.49 12.4467 343.337 13.1267 343.337 13.9C343.337 14.6733 343.49 15.3533 343.797 15.94C344.104 16.5267 344.517 16.98 345.037 17.3C345.557 17.62 346.11 17.78 346.697 17.78ZM357.211 19.32C356.117 19.32 355.204 19.0667 354.471 18.56C353.737 18.04 353.217 17.38 352.911 16.58L354.431 15.9C354.684 16.5133 355.057 16.9867 355.551 17.32C356.057 17.6533 356.611 17.82 357.211 17.82C357.851 17.82 358.397 17.6933 358.851 17.44C359.304 17.1733 359.531 16.8 359.531 16.32C359.531 15.8933 359.351 15.5533 358.991 15.3C358.631 15.0333 358.064 14.8067 357.291 14.62L356.051 14.3C355.237 14.1 354.571 13.76 354.051 13.28C353.531 12.8 353.271 12.18 353.271 11.42C353.271 10.8333 353.444 10.32 353.791 9.88C354.151 9.42667 354.624 9.08 355.211 8.84C355.797 8.6 356.431 8.48 357.111 8.48C358.004 8.48 358.797 8.67333 359.491 9.06C360.197 9.44667 360.697 9.98667 360.991 10.68L359.511 11.36C359.057 10.4533 358.251 10 357.091 10C356.531 10 356.037 10.1333 355.611 10.4C355.197 10.6533 354.991 10.98 354.991 11.38C354.991 11.7533 355.137 12.06 355.431 12.3C355.724 12.5267 356.164 12.7133 356.751 12.86L358.231 13.24C359.231 13.4933 359.984 13.8733 360.491 14.38C360.997 14.8733 361.251 15.48 361.251 16.2C361.251 16.8267 361.071 17.38 360.711 17.86C360.351 18.3267 359.864 18.6867 359.251 18.94C358.637 19.1933 357.957 19.32 357.211 19.32Z" fill="#656C73"/>
<path d="M68.12 28.976H71.144C72.1707 28.976 73.0667 29.1907 73.832 29.62C74.5973 30.04 75.1853 30.628 75.596 31.384C76.0067 32.14 76.212 33.008 76.212 33.988C76.212 34.968 76.0067 35.836 75.596 36.592C75.1853 37.348 74.5973 37.9407 73.832 38.37C73.0667 38.79 72.1707 39 71.144 39H68.12V28.976ZM71.144 37.866C72.3293 37.866 73.2673 37.5253 73.958 36.844C74.658 36.1627 75.008 35.2107 75.008 33.988C75.008 32.7653 74.658 31.8133 73.958 31.132C73.2673 30.4507 72.3293 30.11 71.144 30.11H69.296V37.866H71.144ZM77.9638 28.976H79.1398V33.316H84.3198V28.976H85.4958V39H84.3198V34.436H79.1398V39H77.9638V28.976ZM90.6231 28.976H91.9671L95.7751 39H94.4731L93.4651 36.242H89.1391L88.1311 39H86.8291L90.6231 28.976ZM93.0591 35.122L91.7291 31.51L91.3231 30.432H91.2671L90.8751 31.51L89.5451 35.122H93.0591ZM102.734 39.224C101.95 39.224 101.232 38.986 100.578 38.51C99.9251 38.034 99.4771 37.3667 99.2345 36.508L100.368 36.046C100.527 36.6433 100.821 37.1333 101.25 37.516C101.68 37.8987 102.184 38.09 102.762 38.09C103.341 38.09 103.831 37.936 104.232 37.628C104.634 37.3107 104.834 36.8813 104.834 36.34C104.834 35.8733 104.662 35.4907 104.316 35.192C103.98 34.884 103.425 34.5993 102.65 34.338L102.02 34.114C101.311 33.862 100.732 33.5307 100.284 33.12C99.8365 32.7093 99.6125 32.14 99.6125 31.412C99.6125 30.936 99.7431 30.4973 100.004 30.096C100.266 29.6853 100.63 29.3587 101.096 29.116C101.563 28.8733 102.086 28.752 102.664 28.752C103.243 28.752 103.747 28.8593 104.176 29.074C104.606 29.2887 104.946 29.55 105.198 29.858C105.46 30.166 105.642 30.4693 105.744 30.768L104.624 31.244C104.531 30.8987 104.316 30.586 103.98 30.306C103.654 30.026 103.22 29.886 102.678 29.886C102.165 29.886 101.726 30.0307 101.362 30.32C100.998 30.6093 100.816 30.9733 100.816 31.412C100.816 31.804 100.97 32.126 101.278 32.378C101.586 32.6207 102.053 32.8493 102.678 33.064L103.336 33.288C104.186 33.596 104.848 33.9833 105.324 34.45C105.8 34.9073 106.038 35.5327 106.038 36.326C106.038 36.97 105.87 37.5113 105.534 37.95C105.208 38.3887 104.792 38.7107 104.288 38.916C103.784 39.1213 103.266 39.224 102.734 39.224ZM109.929 39.224C109.07 39.224 108.412 38.972 107.955 38.468C107.507 37.964 107.283 37.2593 107.283 36.354V31.86H108.473V36.172C108.473 36.8533 108.627 37.3527 108.935 37.67C109.243 37.9873 109.658 38.146 110.181 38.146C110.582 38.146 110.937 38.0387 111.245 37.824C111.562 37.6093 111.805 37.3293 111.973 36.984C112.15 36.6387 112.239 36.2747 112.239 35.892V31.86H113.429V39H112.295V37.964H112.239C112.043 38.3187 111.73 38.6173 111.301 38.86C110.872 39.1027 110.414 39.224 109.929 39.224ZM116.081 32.938H114.765V31.86H116.081V31.09C116.081 30.642 116.184 30.25 116.389 29.914C116.594 29.578 116.87 29.3213 117.215 29.144C117.56 28.9573 117.943 28.864 118.363 28.864C118.764 28.864 119.114 28.92 119.413 29.032V30.194C119.245 30.1287 119.086 30.0773 118.937 30.04C118.788 29.9933 118.61 29.97 118.405 29.97C118.097 29.97 117.831 30.082 117.607 30.306C117.383 30.5207 117.271 30.824 117.271 31.216V31.86H120.519V31.09C120.519 30.642 120.617 30.25 120.813 29.914C121.018 29.578 121.294 29.3213 121.639 29.144C121.994 28.9573 122.381 28.864 122.801 28.864C123.184 28.864 123.534 28.92 123.851 29.032V30.194C123.664 30.1193 123.496 30.0633 123.347 30.026C123.207 29.9887 123.034 29.97 122.829 29.97C122.521 29.97 122.255 30.082 122.031 30.306C121.807 30.5207 121.695 30.824 121.695 31.216V31.86H123.529V32.938H121.695V39H120.519V32.938H117.271V39H116.081V32.938ZM126.998 39.224C126.475 39.224 126.009 39.1213 125.598 38.916C125.187 38.7107 124.87 38.4307 124.646 38.076C124.422 37.712 124.31 37.3013 124.31 36.844C124.31 36.088 124.595 35.5 125.164 35.08C125.733 34.6507 126.452 34.436 127.32 34.436C127.749 34.436 128.146 34.4827 128.51 34.576C128.883 34.6693 129.168 34.7767 129.364 34.898V34.464C129.364 33.932 129.177 33.5073 128.804 33.19C128.431 32.8633 127.959 32.7 127.39 32.7C126.989 32.7 126.62 32.7887 126.284 32.966C125.948 33.134 125.682 33.372 125.486 33.68L124.59 33.008C124.87 32.5787 125.253 32.2427 125.738 32C126.233 31.7573 126.779 31.636 127.376 31.636C128.347 31.636 129.107 31.8927 129.658 32.406C130.218 32.91 130.498 33.6007 130.498 34.478V39H129.364V37.978H129.308C129.103 38.3233 128.795 38.6173 128.384 38.86C127.973 39.1027 127.511 39.224 126.998 39.224ZM127.11 38.174C127.511 38.174 127.885 38.0713 128.23 37.866C128.575 37.6607 128.851 37.3853 129.056 37.04C129.261 36.6947 129.364 36.3167 129.364 35.906C129.14 35.7567 128.865 35.6353 128.538 35.542C128.211 35.4487 127.866 35.402 127.502 35.402C126.849 35.402 126.354 35.5373 126.018 35.808C125.691 36.0787 125.528 36.4287 125.528 36.858C125.528 37.25 125.677 37.5673 125.976 37.81C126.275 38.0527 126.653 38.174 127.11 38.174ZM138.872 39.224C138.153 39.224 137.514 39.0607 136.954 38.734C136.394 38.398 135.96 37.936 135.652 37.348C135.344 36.7507 135.19 36.0647 135.19 35.29V28.976H136.38V35.346C136.38 36.158 136.595 36.8207 137.024 37.334C137.453 37.838 138.069 38.09 138.872 38.09C139.675 38.09 140.291 37.838 140.72 37.334C141.159 36.8207 141.378 36.158 141.378 35.346V28.976H142.554V35.29C142.554 36.0647 142.405 36.7507 142.106 37.348C141.817 37.9453 141.392 38.4073 140.832 38.734C140.281 39.0607 139.628 39.224 138.872 39.224ZM144.267 31.86H145.401V32.91H145.457C145.653 32.5553 145.965 32.2567 146.395 32.014C146.824 31.762 147.281 31.636 147.767 31.636C148.625 31.636 149.279 31.888 149.727 32.392C150.184 32.8867 150.413 33.5633 150.413 34.422V39H149.223V34.604C149.223 33.9413 149.064 33.4607 148.747 33.162C148.429 32.8633 147.995 32.714 147.445 32.714C147.062 32.714 146.717 32.8213 146.409 33.036C146.11 33.2507 145.877 33.5353 145.709 33.89C145.541 34.2353 145.457 34.5993 145.457 34.982V39H144.267V31.86ZM152.814 30.544C152.581 30.544 152.38 30.46 152.212 30.292C152.044 30.124 151.96 29.9233 151.96 29.69C151.96 29.4567 152.044 29.2607 152.212 29.102C152.38 28.934 152.581 28.85 152.814 28.85C153.048 28.85 153.248 28.934 153.416 29.102C153.584 29.2607 153.668 29.4567 153.668 29.69C153.668 29.9233 153.584 30.124 153.416 30.292C153.258 30.46 153.057 30.544 152.814 30.544ZM152.226 31.86H153.402V39H152.226V31.86ZM154.489 31.86H155.763L157.975 37.6H158.003L160.243 31.86H161.489L158.577 39H157.373L154.489 31.86ZM165.437 39.224C164.756 39.224 164.144 39.0607 163.603 38.734C163.062 38.4073 162.637 37.9593 162.329 37.39C162.03 36.8113 161.881 36.1627 161.881 35.444C161.881 34.7533 162.021 34.1187 162.301 33.54C162.59 32.9613 162.996 32.4993 163.519 32.154C164.042 31.8087 164.648 31.636 165.339 31.636C166.039 31.636 166.646 31.7947 167.159 32.112C167.672 32.42 168.064 32.8493 168.335 33.4C168.615 33.9507 168.755 34.5807 168.755 35.29C168.755 35.43 168.741 35.5513 168.713 35.654H163.071C163.099 36.1953 163.23 36.6527 163.463 37.026C163.696 37.3993 163.99 37.6793 164.345 37.866C164.709 38.0527 165.087 38.146 165.479 38.146C166.394 38.146 167.098 37.7167 167.593 36.858L168.601 37.348C168.293 37.9267 167.873 38.384 167.341 38.72C166.818 39.056 166.184 39.224 165.437 39.224ZM167.495 34.674C167.476 34.3753 167.392 34.0767 167.243 33.778C167.094 33.4793 166.856 33.2273 166.529 33.022C166.212 32.8167 165.81 32.714 165.325 32.714C164.765 32.714 164.289 32.896 163.897 33.26C163.514 33.6147 163.262 34.086 163.141 34.674H167.495ZM170.148 31.86H171.282V33.008H171.338C171.478 32.616 171.748 32.294 172.15 32.042C172.551 31.7807 172.971 31.65 173.41 31.65C173.736 31.65 174.016 31.6967 174.25 31.79V33.078C173.951 32.9287 173.615 32.854 173.242 32.854C172.896 32.854 172.579 32.952 172.29 33.148C172 33.344 171.767 33.61 171.59 33.946C171.422 34.2727 171.338 34.6273 171.338 35.01V39H170.148V31.86ZM177.616 39.224C176.851 39.224 176.212 39.0467 175.698 38.692C175.185 38.328 174.821 37.866 174.606 37.306L175.67 36.83C175.848 37.2593 176.109 37.5907 176.454 37.824C176.809 38.0573 177.196 38.174 177.616 38.174C178.064 38.174 178.447 38.0853 178.764 37.908C179.082 37.7213 179.24 37.46 179.24 37.124C179.24 36.8253 179.114 36.5873 178.862 36.41C178.61 36.2233 178.214 36.0647 177.672 35.934L176.804 35.71C176.235 35.57 175.768 35.332 175.404 34.996C175.04 34.66 174.858 34.226 174.858 33.694C174.858 33.2833 174.98 32.924 175.222 32.616C175.474 32.2987 175.806 32.056 176.216 31.888C176.627 31.72 177.07 31.636 177.546 31.636C178.172 31.636 178.727 31.7713 179.212 32.042C179.707 32.3127 180.057 32.6907 180.262 33.176L179.226 33.652C178.909 33.0173 178.344 32.7 177.532 32.7C177.14 32.7 176.795 32.7933 176.496 32.98C176.207 33.1573 176.062 33.386 176.062 33.666C176.062 33.9273 176.165 34.142 176.37 34.31C176.576 34.4687 176.884 34.5993 177.294 34.702L178.33 34.968C179.03 35.1453 179.558 35.4113 179.912 35.766C180.267 36.1113 180.444 36.536 180.444 37.04C180.444 37.4787 180.318 37.866 180.066 38.202C179.814 38.5287 179.474 38.7807 179.044 38.958C178.615 39.1353 178.139 39.224 177.616 39.224ZM182.373 30.544C182.14 30.544 181.939 30.46 181.771 30.292C181.603 30.124 181.519 29.9233 181.519 29.69C181.519 29.4567 181.603 29.2607 181.771 29.102C181.939 28.934 182.14 28.85 182.373 28.85C182.606 28.85 182.807 28.934 182.975 29.102C183.143 29.2607 183.227 29.4567 183.227 29.69C183.227 29.9233 183.143 30.124 182.975 30.292C182.816 30.46 182.616 30.544 182.373 30.544ZM181.785 31.86H182.961V39H181.785V31.86ZM187.507 39.112C187.218 39.112 186.947 39.0653 186.695 38.972C186.452 38.8787 186.247 38.7527 186.079 38.594C185.892 38.4167 185.752 38.2113 185.659 37.978C185.566 37.7447 185.519 37.46 185.519 37.124V32.938H184.273V31.86H185.519V29.844H186.709V31.86H188.445V32.938H186.709V36.83C186.709 37.222 186.784 37.5113 186.933 37.698C187.11 37.9033 187.367 38.006 187.703 38.006C187.974 38.006 188.235 37.9267 188.487 37.768V38.93C188.347 38.9953 188.202 39.042 188.053 39.07C187.913 39.098 187.731 39.112 187.507 39.112ZM192.142 38.552L189.188 31.86H190.476L192.716 37.166H192.744L194.9 31.86H196.188L191.778 42.024H190.546L192.142 38.552Z" fill="#656C73"/>
</svg>
