<svg width="164" height="292" viewBox="0 0 164 292" fill="none" xmlns="http://www.w3.org/2000/svg">
<path d="M57.9721 179.236C57.9721 166.575 60.5147 155.628 65.6 146.396C70.9395 137.164 80.093 126.612 93.0605 114.743C100.688 107.621 106.155 101.422 109.46 96.1464C113.02 90.8708 114.8 84.804 114.8 77.9458C114.8 69.7688 111.876 62.9106 106.028 57.3713C100.18 51.5682 92.4248 48.6667 82.7628 48.6667C72.5922 48.6667 64.2016 51.832 57.5907 58.1626C51.2341 64.2295 46.6574 71.879 43.8605 81.1111L0 62.1192C4.83101 45.2376 14.2388 30.7299 28.2233 18.5962C42.462 6.19874 60.2605 0 81.6186 0C97.6372 0 111.876 3.29721 124.335 9.89162C136.794 16.486 146.456 25.5863 153.321 37.1924C160.44 48.5348 164 61.196 164 75.1762C164 88.8925 161.203 100.631 155.609 110.39C150.016 120.15 141.752 130.437 130.819 141.252C122.174 149.693 116.198 156.947 112.893 163.014C109.842 169.08 108.316 176.73 108.316 185.962V192.293H57.9721V179.236ZM82.7628 292C73.6093 292 65.7271 288.703 59.1163 282.108C52.7597 275.25 49.5814 267.073 49.5814 257.577C49.5814 248.081 52.7597 240.036 59.1163 233.442C65.7271 226.847 73.6093 223.55 82.7628 223.55C91.9163 223.55 99.6713 226.847 106.028 233.442C112.384 240.036 115.563 248.081 115.563 257.577C115.563 267.073 112.384 275.25 106.028 282.108C99.6713 288.703 91.9163 292 82.7628 292Z" fill="#EA4335" fill-opacity="0.1"/>
</svg>
