<svg width="21" height="22" viewBox="0 0 21 22" fill="none" xmlns="http://www.w3.org/2000/svg">
<path fill-rule="evenodd" clip-rule="evenodd" d="M10.1791 0C12.5433 0 14.4478 1.90448 14.4478 4.26866C14.4478 6.63284 12.5433 8.53731 10.1791 8.53731C7.81493 8.53731 5.91045 6.63284 5.91045 4.26866C5.91045 1.90448 7.81493 0 10.1791 0ZM19.3075 10.0478C16.2209 9.98209 13.397 10.5731 10.9015 11.9522V22C12.8716 19.8985 15.8269 19.1104 19.3075 19.0448V17.8627C18.7164 17.8627 18.1254 17.6 17.7313 17.1403C17.3373 16.7463 17.0746 16.2209 17.0746 15.5642V13.9224C17.0746 13.2657 17.3373 12.7403 17.7313 12.3463C18.1254 11.8866 18.7164 11.6896 19.3075 11.6896V10.0478ZM1.05075 10.0478C4.13731 9.98209 6.96119 10.5731 9.45672 11.9522V22C7.48657 19.8985 4.53134 19.1104 1.05075 19.0448V17.8627C1.64179 17.8627 2.23284 17.6 2.62687 17.1403C3.0209 16.7463 3.28358 16.2209 3.28358 15.5642V13.9224C3.28358 13.2657 3.0209 12.7403 2.62687 12.3463C2.23284 11.8866 1.64179 11.6896 1.05075 11.6896V10.0478ZM1.05075 12.8716C1.64179 12.8716 2.10149 13.3313 2.10149 13.9224V15.5642C2.10149 16.1552 1.64179 16.6149 1.05075 16.6149C0.459702 16.6149 0 16.1552 0 15.5642V13.9224C0 13.3313 0.459702 12.8716 1.05075 12.8716ZM19.3075 12.8716C18.7164 12.8716 18.2567 13.3313 18.2567 13.9224V15.5642C18.2567 16.1552 18.7164 16.6149 19.3075 16.6149C19.8985 16.6149 20.3582 16.1552 20.3582 15.5642V13.9224C20.3582 13.3313 19.8985 12.8716 19.3075 12.8716ZM13.9881 9.45672C12.609 9.78508 11.4269 10.2448 10.1791 10.9672C8.93134 10.2448 7.74925 9.78508 6.37015 9.45672C8.53731 8.66866 11.8209 8.66866 13.9881 9.45672Z" fill="#EA4335"/>
</svg>
