<svg width="28" height="24" viewBox="0 0 28 24" fill="none" xmlns="http://www.w3.org/2000/svg">
<path d="M25.4047 11.2002H12.9381C11.9114 11.2002 11.1047 12.0802 11.1047 13.2002V19.6002C11.1047 20.7202 11.9114 21.6002 12.9381 21.6002H21.3347L24.3047 24.0002V21.6002H25.4047C26.4314 21.6002 27.238 20.7202 27.238 19.6002V13.2002C27.238 12.0802 26.4314 11.2002 25.4047 11.2002ZM17.9614 18.4802L17.4847 19.0802L14.4047 16.4002L17.4481 13.6802L17.9247 14.2802L15.5047 16.4002L17.9614 18.4802ZM19.1714 18.8802L18.4381 18.7602L19.1714 13.9602L19.9047 14.0802L19.1714 18.8802ZM20.8947 19.1202L20.4181 18.5202L22.838 16.4002L20.3814 14.3202L20.858 13.7202L23.938 16.4002L20.8947 19.1202Z" fill="#DC3545"/>
<path d="M14.3 0H1.83333C0.806665 0 0 0.879998 0 2V8.39998C0 9.51998 0.806665 10.4 1.83333 10.4H2.93333V12.8L5.90332 10.4H14.3C15.3266 10.4 16.1333 9.51998 16.1333 8.39998V2C16.1333 0.879998 15.3266 0 14.3 0ZM7.33332 3.19999H6.59999C6.37999 3.19999 6.23332 3.35999 6.23332 3.59999V4.31999C6.23332 4.67999 6.08665 4.99999 5.86665 5.19999C6.08665 5.43999 6.23332 5.75999 6.23332 6.07999V6.79998C6.23332 7.03998 6.37999 7.19998 6.59999 7.19998H7.33332V7.99998H6.59999C5.97665 7.99998 5.49999 7.47998 5.49999 6.79998V6.39999C5.49999 5.95999 5.16999 5.59999 4.76666 5.59999V4.79999C5.16999 4.79999 5.49999 4.43999 5.49999 3.99999V3.59999C5.49999 2.91999 5.97665 2.39999 6.59999 2.39999H7.33332V3.19999ZM11.3666 5.59999C10.9633 5.59999 10.6333 5.95999 10.6333 6.39999V6.79998C10.6333 7.47998 10.1566 7.99998 9.53331 7.99998H8.79998V7.19998H9.53331C9.75331 7.19998 9.89998 7.03998 9.89998 6.79998V6.07999C9.89998 5.71999 10.0466 5.39999 10.2666 5.19999C10.0466 4.95999 9.89998 4.63999 9.89998 4.31999V3.59999C9.89998 3.35999 9.75331 3.19999 9.53331 3.19999H8.79998V2.39999H9.53331C10.1566 2.39999 10.6333 2.91999 10.6333 3.59999V3.99999C10.6333 4.43999 10.9633 4.79999 11.3666 4.79999V5.59999Z" fill="#DC3545"/>
</svg>
