<svg width="537" height="358" viewBox="0 0 537 358" fill="none" xmlns="http://www.w3.org/2000/svg">
<g filter="url(#filter0_d_465_423)">
<rect x="276" y="259" width="191" height="61" rx="30.5" fill="white"/>
</g>
<path d="M302.624 277.088H310.688C312.139 277.088 313.461 277.397 314.656 278.016C315.851 278.613 316.789 279.467 317.472 280.576C318.155 281.664 318.496 282.912 318.496 284.32C318.496 285.728 318.155 286.987 317.472 288.096C316.789 289.205 315.851 290.069 314.656 290.688C313.461 291.285 312.139 291.584 310.688 291.584H306.944V300H302.624V277.088ZM310.816 287.488C311.883 287.488 312.715 287.179 313.312 286.56C313.931 285.941 314.24 285.195 314.24 284.32C314.24 283.445 313.931 282.709 313.312 282.112C312.715 281.493 311.883 281.184 310.816 281.184H306.944V287.488H310.816ZM327.155 300.512C325.192 300.512 323.699 299.904 322.675 298.688C321.651 297.472 321.139 295.776 321.139 293.6V283.68H325.331V293.088C325.331 294.197 325.597 295.072 326.131 295.712C326.664 296.331 327.368 296.64 328.243 296.64C329.437 296.64 330.387 296.203 331.091 295.328C331.795 294.453 332.147 293.344 332.147 292V283.68H336.339V300H332.403V297.952H332.147C331.656 298.741 330.963 299.371 330.067 299.84C329.192 300.288 328.221 300.512 327.155 300.512ZM340.423 283.68H344.359V285.856H344.615C345.02 285.088 345.65 284.459 346.503 283.968C347.356 283.456 348.295 283.2 349.319 283.2C350.066 283.2 350.748 283.317 351.367 283.552V287.744C350.791 287.531 350.3 287.381 349.895 287.296C349.511 287.189 349.095 287.136 348.647 287.136C347.41 287.136 346.428 287.584 345.703 288.48C344.978 289.376 344.615 290.507 344.615 291.872V300H340.423V283.68ZM353.951 283.68H357.887V285.664H358.143C358.591 284.96 359.242 284.373 360.095 283.904C360.949 283.413 361.93 283.168 363.039 283.168C364.511 283.168 365.845 283.541 367.039 284.288C368.255 285.013 369.205 286.037 369.887 287.36C370.57 288.683 370.911 290.176 370.911 291.84C370.911 293.525 370.57 295.029 369.887 296.352C369.205 297.653 368.255 298.677 367.039 299.424C365.845 300.149 364.511 300.512 363.039 300.512C361.93 300.512 360.938 300.277 360.063 299.808C359.21 299.339 358.57 298.752 358.143 298.048H357.887L358.143 300.352V306.912H353.951V283.68ZM362.303 296.64C363.093 296.64 363.829 296.437 364.511 296.032C365.194 295.627 365.738 295.061 366.143 294.336C366.549 293.611 366.751 292.779 366.751 291.84C366.751 290.901 366.549 290.069 366.143 289.344C365.738 288.619 365.194 288.064 364.511 287.68C363.829 287.275 363.093 287.072 362.303 287.072C361.535 287.072 360.81 287.275 360.127 287.68C359.445 288.064 358.901 288.619 358.495 289.344C358.09 290.069 357.887 290.901 357.887 291.84C357.887 292.779 358.09 293.611 358.495 294.336C358.901 295.061 359.445 295.627 360.127 296.032C360.81 296.437 361.535 296.64 362.303 296.64ZM381.95 300.512C380.264 300.512 378.76 300.139 377.438 299.392C376.115 298.624 375.08 297.589 374.334 296.288C373.608 294.965 373.246 293.483 373.246 291.84C373.246 290.219 373.608 288.747 374.334 287.424C375.08 286.101 376.115 285.067 377.438 284.32C378.76 283.552 380.264 283.168 381.95 283.168C383.614 283.168 385.107 283.552 386.43 284.32C387.752 285.067 388.776 286.101 389.502 287.424C390.248 288.747 390.622 290.219 390.622 291.84C390.622 293.483 390.248 294.965 389.502 296.288C388.776 297.589 387.752 298.624 386.43 299.392C385.107 300.139 383.614 300.512 381.95 300.512ZM381.95 296.64C382.76 296.64 383.507 296.448 384.19 296.064C384.872 295.68 385.416 295.125 385.822 294.4C386.227 293.675 386.43 292.821 386.43 291.84C386.43 290.88 386.227 290.037 385.822 289.312C385.416 288.587 384.872 288.032 384.19 287.648C383.507 287.264 382.76 287.072 381.95 287.072C381.139 287.072 380.392 287.264 379.71 287.648C379.027 288.032 378.472 288.587 378.046 289.312C377.64 290.037 377.438 290.88 377.438 291.84C377.438 292.8 377.64 293.653 378.046 294.4C378.472 295.125 379.027 295.68 379.71 296.064C380.392 296.448 381.139 296.64 381.95 296.64ZM399.881 300.512C397.897 300.512 396.286 300.107 395.049 299.296C393.833 298.485 392.98 297.429 392.489 296.128L396.233 294.496C396.574 295.264 397.054 295.851 397.673 296.256C398.313 296.64 399.049 296.832 399.881 296.832C400.649 296.832 401.289 296.715 401.801 296.48C402.313 296.224 402.569 295.819 402.569 295.264C402.569 294.731 402.334 294.336 401.865 294.08C401.396 293.803 400.692 293.557 399.753 293.344L397.833 292.928C396.51 292.608 395.412 292.032 394.537 291.2C393.662 290.347 393.225 289.291 393.225 288.032C393.225 287.093 393.502 286.251 394.057 285.504C394.633 284.757 395.401 284.181 396.361 283.776C397.342 283.371 398.42 283.168 399.593 283.168C402.964 283.168 405.214 284.352 406.345 286.72L402.761 288.288C402.121 287.136 401.097 286.56 399.689 286.56C398.964 286.56 398.388 286.699 397.961 286.976C397.534 287.232 397.321 287.563 397.321 287.968C397.321 288.736 398.046 289.312 399.497 289.696L401.897 290.272C403.518 290.677 404.734 291.296 405.545 292.128C406.377 292.96 406.793 293.984 406.793 295.2C406.793 296.245 406.484 297.173 405.865 297.984C405.268 298.773 404.436 299.392 403.369 299.84C402.324 300.288 401.161 300.512 399.881 300.512ZM417.634 300.512C416.012 300.512 414.551 300.139 413.25 299.392C411.948 298.645 410.924 297.621 410.178 296.32C409.452 294.997 409.09 293.515 409.09 291.872C409.09 290.315 409.452 288.875 410.178 287.552C410.903 286.208 411.906 285.141 413.186 284.352C414.466 283.563 415.895 283.168 417.474 283.168C419.159 283.168 420.61 283.531 421.826 284.256C423.042 284.981 423.959 285.973 424.578 287.232C425.218 288.491 425.538 289.888 425.538 291.424C425.538 291.915 425.506 292.384 425.442 292.832H413.186C413.399 294.133 413.911 295.125 414.722 295.808C415.554 296.469 416.546 296.8 417.698 296.8C418.658 296.8 419.479 296.597 420.162 296.192C420.866 295.765 421.42 295.2 421.826 294.496L425.218 296.16C423.554 299.061 421.026 300.512 417.634 300.512ZM421.506 289.856C421.463 289.344 421.271 288.843 420.93 288.352C420.61 287.84 420.151 287.424 419.554 287.104C418.978 286.763 418.295 286.592 417.506 286.592C416.503 286.592 415.639 286.891 414.914 287.488C414.21 288.064 413.698 288.853 413.378 289.856H421.506ZM432.991 291.072C432.991 290.048 433.204 289.163 433.631 288.416C434.079 287.669 434.847 286.816 435.935 285.856C436.575 285.28 437.033 284.779 437.311 284.352C437.609 283.925 437.759 283.435 437.759 282.88C437.759 282.219 437.513 281.664 437.023 281.216C436.532 280.747 435.881 280.512 435.071 280.512C434.217 280.512 433.513 280.768 432.959 281.28C432.425 281.771 432.041 282.389 431.807 283.136L428.127 281.6C428.532 280.235 429.321 279.061 430.495 278.08C431.689 277.077 433.183 276.576 434.975 276.576C436.319 276.576 437.513 276.843 438.559 277.376C439.604 277.909 440.415 278.645 440.991 279.584C441.588 280.501 441.887 281.525 441.887 282.656C441.887 283.765 441.652 284.715 441.183 285.504C440.713 286.293 440.02 287.125 439.103 288C438.377 288.683 437.876 289.269 437.599 289.76C437.343 290.251 437.215 290.869 437.215 291.616V292.128H432.991V291.072ZM435.071 300.192C434.303 300.192 433.641 299.925 433.087 299.392C432.553 298.837 432.287 298.176 432.287 297.408C432.287 296.64 432.553 295.989 433.087 295.456C433.641 294.923 434.303 294.656 435.071 294.656C435.839 294.656 436.489 294.923 437.023 295.456C437.556 295.989 437.823 296.64 437.823 297.408C437.823 298.176 437.556 298.837 437.023 299.392C436.489 299.925 435.839 300.192 435.071 300.192Z" fill="#34A853"/>
<g filter="url(#filter1_d_465_423)">
<rect x="286" y="122" width="241" height="79" rx="39.5" fill="white"/>
</g>
<path d="M316.936 142.632H329.032C331.208 142.632 333.192 143.096 334.984 144.024C336.776 144.92 338.184 146.2 339.208 147.864C340.232 149.496 340.744 151.368 340.744 153.48C340.744 155.592 340.232 157.48 339.208 159.144C338.184 160.808 336.776 162.104 334.984 163.032C333.192 163.928 331.208 164.376 329.032 164.376H323.416V177H316.936V142.632ZM329.224 158.232C330.824 158.232 332.072 157.768 332.968 156.84C333.896 155.912 334.36 154.792 334.36 153.48C334.36 152.168 333.896 151.064 332.968 150.168C332.072 149.24 330.824 148.776 329.224 148.776H323.416V158.232H329.224ZM351.919 177.768C349.327 177.768 347.199 177.016 345.535 175.512C343.871 173.976 343.039 171.976 343.039 169.512C343.039 167.88 343.471 166.44 344.335 165.192C345.199 163.944 346.383 162.984 347.887 162.312C349.391 161.64 351.055 161.304 352.879 161.304C355.407 161.304 357.567 161.672 359.359 162.408V161.352C359.359 160.008 358.847 158.92 357.823 158.088C356.831 157.256 355.487 156.84 353.791 156.84C352.639 156.84 351.519 157.112 350.431 157.656C349.375 158.168 348.495 158.856 347.791 159.72L343.759 156.552C344.943 155.016 346.431 153.832 348.223 153C350.015 152.168 351.967 151.752 354.079 151.752C357.823 151.752 360.671 152.616 362.623 154.344C364.575 156.072 365.551 158.6 365.551 161.928V177H359.359V174.504H358.975C358.239 175.464 357.263 176.248 356.047 176.856C354.863 177.464 353.487 177.768 351.919 177.768ZM353.407 172.872C355.231 172.872 356.671 172.296 357.727 171.144C358.815 169.96 359.359 168.584 359.359 167.016C357.727 166.248 356.015 165.864 354.223 165.864C350.959 165.864 349.327 167.08 349.327 169.512C349.327 170.504 349.679 171.32 350.383 171.96C351.087 172.568 352.095 172.872 353.407 172.872ZM371.338 152.52H377.242V155.784H377.626C378.266 154.6 379.242 153.656 380.554 152.952C381.866 152.216 383.274 151.848 384.778 151.848C385.866 151.848 386.634 151.944 387.082 152.136V158.28C386.282 157.96 385.29 157.8 384.106 157.8C382.122 157.8 380.538 158.44 379.354 159.72C378.202 161 377.626 162.744 377.626 164.952V177H371.338V152.52ZM402.73 177.384C401.514 177.384 400.394 177.208 399.37 176.856C398.346 176.472 397.514 175.96 396.874 175.32C395.37 173.88 394.618 171.832 394.618 169.176V157.896H390.346V152.52H394.618V145.608H400.906V152.52H406.906V157.896H400.906V168.024C400.906 169.272 401.178 170.168 401.722 170.712C402.17 171.224 402.938 171.48 404.026 171.48C404.634 171.48 405.13 171.4 405.514 171.24C405.93 171.08 406.458 170.808 407.098 170.424V176.568C405.722 177.112 404.266 177.384 402.73 177.384ZM415.905 149.832C414.785 149.832 413.825 149.432 413.025 148.632C412.225 147.832 411.825 146.872 411.825 145.752C411.825 144.632 412.225 143.688 413.025 142.92C413.825 142.12 414.785 141.72 415.905 141.72C417.025 141.72 417.969 142.12 418.737 142.92C419.537 143.688 419.937 144.632 419.937 145.752C419.937 146.872 419.537 147.832 418.737 148.632C417.969 149.432 417.025 149.832 415.905 149.832ZM412.737 152.52H419.025V177H412.737V152.52ZM436.857 177.768C434.425 177.768 432.233 177.208 430.281 176.088C428.329 174.968 426.793 173.432 425.673 171.48C424.585 169.496 424.041 167.272 424.041 164.808C424.041 162.472 424.585 160.312 425.673 158.328C426.761 156.312 428.265 154.712 430.185 153.528C432.105 152.344 434.249 151.752 436.617 151.752C439.145 151.752 441.321 152.296 443.145 153.384C444.969 154.472 446.345 155.96 447.273 157.848C448.233 159.736 448.713 161.832 448.713 164.136C448.713 164.872 448.665 165.576 448.569 166.248H430.185C430.505 168.2 431.273 169.688 432.489 170.712C433.737 171.704 435.225 172.2 436.953 172.2C438.393 172.2 439.625 171.896 440.649 171.288C441.705 170.648 442.537 169.8 443.145 168.744L448.233 171.24C445.737 175.592 441.945 177.768 436.857 177.768ZM442.665 161.784C442.601 161.016 442.313 160.264 441.801 159.528C441.321 158.76 440.633 158.136 439.737 157.656C438.873 157.144 437.849 156.888 436.665 156.888C435.161 156.888 433.865 157.336 432.777 158.232C431.721 159.096 430.953 160.28 430.473 161.784H442.665ZM463.103 177.768C460.127 177.768 457.711 177.16 455.855 175.944C454.031 174.728 452.751 173.144 452.015 171.192L457.631 168.744C458.143 169.896 458.863 170.776 459.791 171.384C460.751 171.96 461.855 172.248 463.103 172.248C464.255 172.248 465.215 172.072 465.983 171.72C466.751 171.336 467.135 170.728 467.135 169.896C467.135 169.096 466.783 168.504 466.079 168.12C465.375 167.704 464.319 167.336 462.911 167.016L460.031 166.392C458.047 165.912 456.399 165.048 455.087 163.8C453.775 162.52 453.119 160.936 453.119 159.048C453.119 157.64 453.535 156.376 454.367 155.256C455.231 154.136 456.383 153.272 457.823 152.664C459.295 152.056 460.911 151.752 462.671 151.752C467.727 151.752 471.103 153.528 472.799 157.08L467.423 159.432C466.463 157.704 464.927 156.84 462.815 156.84C461.727 156.84 460.863 157.048 460.223 157.464C459.583 157.848 459.263 158.344 459.263 158.952C459.263 160.104 460.351 160.968 462.527 161.544L466.127 162.408C468.559 163.016 470.383 163.944 471.599 165.192C472.847 166.44 473.471 167.976 473.471 169.8C473.471 171.368 473.007 172.76 472.079 173.976C471.183 175.16 469.935 176.088 468.335 176.76C466.767 177.432 465.023 177.768 463.103 177.768ZM484.361 163.608C484.361 162.072 484.681 160.744 485.321 159.624C485.993 158.504 487.145 157.224 488.777 155.784C489.737 154.92 490.425 154.168 490.841 153.528C491.289 152.888 491.513 152.152 491.513 151.32C491.513 150.328 491.145 149.496 490.409 148.824C489.673 148.12 488.697 147.768 487.481 147.768C486.201 147.768 485.145 148.152 484.313 148.92C483.513 149.656 482.937 150.584 482.585 151.704L477.065 149.4C477.673 147.352 478.857 145.592 480.617 144.12C482.409 142.616 484.649 141.864 487.337 141.864C489.353 141.864 491.145 142.264 492.713 143.064C494.281 143.864 495.497 144.968 496.361 146.376C497.257 147.752 497.705 149.288 497.705 150.984C497.705 152.648 497.353 154.072 496.649 155.256C495.945 156.44 494.905 157.688 493.529 159C492.441 160.024 491.689 160.904 491.273 161.64C490.889 162.376 490.697 163.304 490.697 164.424V165.192H484.361V163.608ZM487.481 177.288C486.329 177.288 485.337 176.888 484.505 176.088C483.705 175.256 483.305 174.264 483.305 173.112C483.305 171.96 483.705 170.984 484.505 170.184C485.337 169.384 486.329 168.984 487.481 168.984C488.633 168.984 489.609 169.384 490.409 170.184C491.209 170.984 491.609 171.96 491.609 173.112C491.609 174.264 491.209 175.256 490.409 176.088C489.609 176.888 488.633 177.288 487.481 177.288Z" fill="#4285F4"/>
<g filter="url(#filter2_d_465_423)">
<rect x="34" y="89" width="175" height="40" rx="20" fill="white"/>
</g>
<path d="M48.34 101.68H51.34L53.3 109.72L53.54 111.22H53.7L54.02 109.72L56.54 101.68H59.2L61.66 109.72L61.98 111.18H62.14L62.38 109.72L64.32 101.68H67.32L63.62 116H60.72L58.28 107.36L57.96 105.82H57.8L57.48 107.36L54.92 116H52.14L48.34 101.68ZM68.9675 101.68H71.5875V105.3L71.4275 107.08H71.5875C71.8808 106.6 72.3075 106.213 72.8675 105.92C73.4275 105.627 74.0342 105.48 74.6875 105.48C75.9275 105.48 76.8742 105.853 77.5275 106.6C78.1942 107.333 78.5275 108.353 78.5275 109.66V116H75.9075V109.98C75.9075 109.327 75.7275 108.82 75.3675 108.46C75.0208 108.1 74.5542 107.92 73.9675 107.92C73.2742 107.92 72.7008 108.2 72.2475 108.76C71.8075 109.32 71.5875 110.007 71.5875 110.82V116H68.9675V101.68ZM85.8788 116.32C84.8254 116.32 83.8854 116.087 83.0588 115.62C82.2321 115.14 81.5854 114.493 81.1188 113.68C80.6654 112.853 80.4388 111.927 80.4388 110.9C80.4388 109.887 80.6654 108.967 81.1188 108.14C81.5854 107.313 82.2321 106.667 83.0588 106.2C83.8854 105.72 84.8254 105.48 85.8788 105.48C86.9188 105.48 87.8521 105.72 88.6788 106.2C89.5054 106.667 90.1454 107.313 90.5988 108.14C91.0654 108.967 91.2988 109.887 91.2988 110.9C91.2988 111.927 91.0654 112.853 90.5988 113.68C90.1454 114.493 89.5054 115.14 88.6788 115.62C87.8521 116.087 86.9188 116.32 85.8788 116.32ZM85.8788 113.9C86.3854 113.9 86.8521 113.78 87.2788 113.54C87.7054 113.3 88.0454 112.953 88.2988 112.5C88.5521 112.047 88.6788 111.513 88.6788 110.9C88.6788 110.3 88.5521 109.773 88.2988 109.32C88.0454 108.867 87.7054 108.52 87.2788 108.28C86.8521 108.04 86.3854 107.92 85.8788 107.92C85.3721 107.92 84.9054 108.04 84.4788 108.28C84.0521 108.52 83.7054 108.867 83.4388 109.32C83.1854 109.773 83.0588 110.3 83.0588 110.9C83.0588 111.5 83.1854 112.033 83.4388 112.5C83.7054 112.953 84.0521 113.3 84.4788 113.54C84.9054 113.78 85.3721 113.9 85.8788 113.9ZM99.4709 104.68C99.0043 104.68 98.6043 104.513 98.2709 104.18C97.9376 103.847 97.7709 103.447 97.7709 102.98C97.7709 102.513 97.9376 102.12 98.2709 101.8C98.6043 101.467 99.0043 101.3 99.4709 101.3C99.9376 101.3 100.331 101.467 100.651 101.8C100.984 102.12 101.151 102.513 101.151 102.98C101.151 103.447 100.984 103.847 100.651 104.18C100.331 104.513 99.9376 104.68 99.4709 104.68ZM98.1509 105.8H100.771V116H98.1509V105.8ZM107.398 116.32C106.158 116.32 105.152 116.067 104.378 115.56C103.618 115.053 103.085 114.393 102.778 113.58L105.118 112.56C105.332 113.04 105.632 113.407 106.018 113.66C106.418 113.9 106.878 114.02 107.398 114.02C107.878 114.02 108.278 113.947 108.598 113.8C108.918 113.64 109.078 113.387 109.078 113.04C109.078 112.707 108.932 112.46 108.638 112.3C108.345 112.127 107.905 111.973 107.318 111.84L106.118 111.58C105.292 111.38 104.605 111.02 104.058 110.5C103.512 109.967 103.238 109.307 103.238 108.52C103.238 107.933 103.412 107.407 103.758 106.94C104.118 106.473 104.598 106.113 105.198 105.86C105.812 105.607 106.485 105.48 107.218 105.48C109.325 105.48 110.732 106.22 111.438 107.7L109.198 108.68C108.798 107.96 108.158 107.6 107.278 107.6C106.825 107.6 106.465 107.687 106.198 107.86C105.932 108.02 105.798 108.227 105.798 108.48C105.798 108.96 106.252 109.32 107.158 109.56L108.658 109.92C109.672 110.173 110.432 110.56 110.938 111.08C111.458 111.6 111.718 112.24 111.718 113C111.718 113.653 111.525 114.233 111.138 114.74C110.765 115.233 110.245 115.62 109.578 115.9C108.925 116.18 108.198 116.32 107.398 116.32ZM123.983 116.32C123.29 116.32 122.67 116.173 122.123 115.88C121.59 115.587 121.19 115.22 120.923 114.78H120.763V116H118.303V101.68H120.923V105.6L120.763 107.04H120.923C121.203 106.6 121.61 106.233 122.143 105.94C122.677 105.633 123.29 105.48 123.983 105.48C124.903 105.48 125.737 105.713 126.483 106.18C127.243 106.633 127.837 107.273 128.263 108.1C128.69 108.927 128.903 109.86 128.903 110.9C128.903 111.953 128.69 112.893 128.263 113.72C127.837 114.533 127.243 115.173 126.483 115.64C125.737 116.093 124.903 116.32 123.983 116.32ZM123.523 113.9C124.017 113.9 124.477 113.773 124.903 113.52C125.33 113.267 125.67 112.913 125.923 112.46C126.177 112.007 126.303 111.487 126.303 110.9C126.303 110.313 126.177 109.793 125.923 109.34C125.67 108.887 125.33 108.54 124.903 108.3C124.477 108.047 124.017 107.92 123.523 107.92C123.043 107.92 122.59 108.047 122.163 108.3C121.737 108.54 121.397 108.887 121.143 109.34C120.89 109.793 120.763 110.313 120.763 110.9C120.763 111.487 120.89 112.007 121.143 112.46C121.397 112.913 121.737 113.267 122.163 113.52C122.59 113.773 123.043 113.9 123.523 113.9ZM135.701 116.32C134.687 116.32 133.774 116.087 132.961 115.62C132.147 115.153 131.507 114.513 131.041 113.7C130.587 112.873 130.361 111.947 130.361 110.92C130.361 109.947 130.587 109.047 131.041 108.22C131.494 107.38 132.121 106.713 132.921 106.22C133.721 105.727 134.614 105.48 135.601 105.48C136.654 105.48 137.561 105.707 138.321 106.16C139.081 106.613 139.654 107.233 140.041 108.02C140.441 108.807 140.641 109.68 140.641 110.64C140.641 110.947 140.621 111.24 140.581 111.52H132.921C133.054 112.333 133.374 112.953 133.881 113.38C134.401 113.793 135.021 114 135.741 114C136.341 114 136.854 113.873 137.281 113.62C137.721 113.353 138.067 113 138.321 112.56L140.441 113.6C139.401 115.413 137.821 116.32 135.701 116.32ZM138.121 109.66C138.094 109.34 137.974 109.027 137.761 108.72C137.561 108.4 137.274 108.14 136.901 107.94C136.541 107.727 136.114 107.62 135.621 107.62C134.994 107.62 134.454 107.807 134.001 108.18C133.561 108.54 133.241 109.033 133.041 109.66H138.121ZM142.659 101.68H145.279V105.3L145.119 107.08H145.279C145.572 106.6 145.999 106.213 146.559 105.92C147.119 105.627 147.726 105.48 148.379 105.48C149.619 105.48 150.566 105.853 151.219 106.6C151.886 107.333 152.219 108.353 152.219 109.66V116H149.599V109.98C149.599 109.327 149.419 108.82 149.059 108.46C148.712 108.1 148.246 107.92 147.659 107.92C146.966 107.92 146.392 108.2 145.939 108.76C145.499 109.32 145.279 110.007 145.279 110.82V116H142.659V101.68ZM156.17 104.68C155.703 104.68 155.303 104.513 154.97 104.18C154.637 103.847 154.47 103.447 154.47 102.98C154.47 102.513 154.637 102.12 154.97 101.8C155.303 101.467 155.703 101.3 156.17 101.3C156.637 101.3 157.03 101.467 157.35 101.8C157.683 102.12 157.85 102.513 157.85 102.98C157.85 103.447 157.683 103.847 157.35 104.18C157.03 104.513 156.637 104.68 156.17 104.68ZM154.85 105.8H157.47V116H154.85V105.8ZM160.218 105.8H162.678V107.08H162.838C163.144 106.587 163.578 106.2 164.138 105.92C164.698 105.627 165.304 105.48 165.958 105.48C167.184 105.48 168.118 105.853 168.758 106.6C169.398 107.347 169.718 108.367 169.718 109.66V116H167.098V109.98C167.098 109.327 166.931 108.82 166.598 108.46C166.264 108.1 165.798 107.92 165.198 107.92C164.491 107.92 163.918 108.193 163.478 108.74C163.051 109.287 162.838 109.973 162.838 110.8V116H160.218V105.8ZM176.57 116.32C175.65 116.32 174.81 116.093 174.05 115.64C173.303 115.173 172.71 114.533 172.27 113.72C171.843 112.893 171.63 111.953 171.63 110.9C171.63 109.86 171.843 108.927 172.27 108.1C172.71 107.273 173.303 106.633 174.05 106.18C174.81 105.713 175.65 105.48 176.57 105.48C177.263 105.48 177.877 105.633 178.41 105.94C178.943 106.233 179.35 106.6 179.63 107.04H179.79L179.63 105.6V101.68H182.23V116H179.79V114.78H179.63C179.363 115.22 178.957 115.587 178.41 115.88C177.877 116.173 177.263 116.32 176.57 116.32ZM177.01 113.9C177.503 113.9 177.963 113.773 178.39 113.52C178.817 113.267 179.157 112.913 179.41 112.46C179.663 112.007 179.79 111.487 179.79 110.9C179.79 110.313 179.663 109.793 179.41 109.34C179.157 108.887 178.817 108.54 178.39 108.3C177.963 108.047 177.503 107.92 177.01 107.92C176.53 107.92 176.077 108.047 175.65 108.3C175.223 108.54 174.883 108.887 174.63 109.34C174.377 109.793 174.25 110.313 174.25 110.9C174.25 111.487 174.377 112.007 174.63 112.46C174.883 112.913 175.223 113.267 175.65 113.52C176.077 113.773 176.53 113.9 177.01 113.9ZM187.447 110.42C187.447 109.78 187.581 109.227 187.847 108.76C188.127 108.293 188.607 107.76 189.287 107.16C189.687 106.8 189.974 106.487 190.147 106.22C190.334 105.953 190.427 105.647 190.427 105.3C190.427 104.887 190.274 104.54 189.967 104.26C189.661 103.967 189.254 103.82 188.747 103.82C188.214 103.82 187.774 103.98 187.427 104.3C187.094 104.607 186.854 104.993 186.707 105.46L184.407 104.5C184.661 103.647 185.154 102.913 185.887 102.3C186.634 101.673 187.567 101.36 188.687 101.36C189.527 101.36 190.274 101.527 190.927 101.86C191.581 102.193 192.087 102.653 192.447 103.24C192.821 103.813 193.007 104.453 193.007 105.16C193.007 105.853 192.861 106.447 192.567 106.94C192.274 107.433 191.841 107.953 191.267 108.5C190.814 108.927 190.501 109.293 190.327 109.6C190.167 109.907 190.087 110.293 190.087 110.76V111.08H187.447V110.42ZM188.747 116.12C188.267 116.12 187.854 115.953 187.507 115.62C187.174 115.273 187.007 114.86 187.007 114.38C187.007 113.9 187.174 113.493 187.507 113.16C187.854 112.827 188.267 112.66 188.747 112.66C189.227 112.66 189.634 112.827 189.967 113.16C190.301 113.493 190.467 113.9 190.467 114.38C190.467 114.86 190.301 115.273 189.967 115.62C189.634 115.953 189.227 116.12 188.747 116.12Z" fill="#FBBC04"/>
<g filter="url(#filter3_d_465_423)">
<rect x="33" y="192" width="139" height="36" rx="18" fill="white"/>
</g>
<path d="M49.64 201.68H55.24C56.04 201.68 56.7733 201.847 57.44 202.18C58.12 202.513 58.6533 202.967 59.04 203.54C59.4267 204.113 59.62 204.74 59.62 205.42C59.62 206.14 59.44 206.767 59.08 207.3C58.7333 207.82 58.2733 208.22 57.7 208.5V208.66C58.4467 208.927 59.04 209.353 59.48 209.94C59.92 210.513 60.14 211.207 60.14 212.02C60.14 212.807 59.9267 213.507 59.5 214.12C59.0867 214.72 58.52 215.187 57.8 215.52C57.0933 215.84 56.3067 216 55.44 216H49.64V201.68ZM55.04 207.52C55.6267 207.52 56.0933 207.36 56.44 207.04C56.8 206.707 56.98 206.293 56.98 205.8C56.98 205.32 56.8067 204.92 56.46 204.6C56.1267 204.267 55.68 204.1 55.12 204.1H52.34V207.52H55.04ZM55.34 213.54C55.9933 213.54 56.5 213.373 56.86 213.04C57.2333 212.693 57.42 212.247 57.42 211.7C57.42 211.153 57.2333 210.707 56.86 210.36C56.4867 210.013 55.9533 209.84 55.26 209.84H52.34V213.54H55.34ZM67.1092 216.32C66.0559 216.32 65.1159 216.087 64.2892 215.62C63.4626 215.14 62.8159 214.493 62.3492 213.68C61.8959 212.853 61.6692 211.927 61.6692 210.9C61.6692 209.887 61.8959 208.967 62.3492 208.14C62.8159 207.313 63.4626 206.667 64.2892 206.2C65.1159 205.72 66.0559 205.48 67.1092 205.48C68.1492 205.48 69.0826 205.72 69.9092 206.2C70.7359 206.667 71.3759 207.313 71.8292 208.14C72.2959 208.967 72.5292 209.887 72.5292 210.9C72.5292 211.927 72.2959 212.853 71.8292 213.68C71.3759 214.493 70.7359 215.14 69.9092 215.62C69.0826 216.087 68.1492 216.32 67.1092 216.32ZM67.1092 213.9C67.6159 213.9 68.0826 213.78 68.5092 213.54C68.9359 213.3 69.2759 212.953 69.5292 212.5C69.7826 212.047 69.9092 211.513 69.9092 210.9C69.9092 210.3 69.7826 209.773 69.5292 209.32C69.2759 208.867 68.9359 208.52 68.5092 208.28C68.0826 208.04 67.6159 207.92 67.1092 207.92C66.6026 207.92 66.1359 208.04 65.7092 208.28C65.2826 208.52 64.9359 208.867 64.6692 209.32C64.4159 209.773 64.2892 210.3 64.2892 210.9C64.2892 211.5 64.4159 212.033 64.6692 212.5C64.9359 212.953 65.2826 213.3 65.7092 213.54C66.1359 213.78 66.6026 213.9 67.1092 213.9ZM79.4139 216.32C78.3606 216.32 77.4206 216.087 76.5939 215.62C75.7672 215.14 75.1206 214.493 74.6539 213.68C74.2006 212.853 73.9739 211.927 73.9739 210.9C73.9739 209.887 74.2006 208.967 74.6539 208.14C75.1206 207.313 75.7672 206.667 76.5939 206.2C77.4206 205.72 78.3606 205.48 79.4139 205.48C80.4539 205.48 81.3872 205.72 82.2139 206.2C83.0406 206.667 83.6806 207.313 84.1339 208.14C84.6006 208.967 84.8339 209.887 84.8339 210.9C84.8339 211.927 84.6006 212.853 84.1339 213.68C83.6806 214.493 83.0406 215.14 82.2139 215.62C81.3872 216.087 80.4539 216.32 79.4139 216.32ZM79.4139 213.9C79.9206 213.9 80.3872 213.78 80.8139 213.54C81.2406 213.3 81.5806 212.953 81.8339 212.5C82.0872 212.047 82.2139 211.513 82.2139 210.9C82.2139 210.3 82.0872 209.773 81.8339 209.32C81.5806 208.867 81.2406 208.52 80.8139 208.28C80.3872 208.04 79.9206 207.92 79.4139 207.92C78.9072 207.92 78.4406 208.04 78.0139 208.28C77.5872 208.52 77.2406 208.867 76.9739 209.32C76.7206 209.773 76.5939 210.3 76.5939 210.9C76.5939 211.5 76.7206 212.033 76.9739 212.5C77.2406 212.953 77.5872 213.3 78.0139 213.54C78.4406 213.78 78.9072 213.9 79.4139 213.9ZM90.9856 216.16C90.479 216.16 90.0123 216.087 89.5856 215.94C89.159 215.78 88.8123 215.567 88.5456 215.3C87.919 214.7 87.6056 213.847 87.6056 212.74V208.04H85.8256V205.8H87.6056V202.92H90.2256V205.8H92.7256V208.04H90.2256V212.26C90.2256 212.78 90.339 213.153 90.5656 213.38C90.7523 213.593 91.0723 213.7 91.5256 213.7C91.779 213.7 91.9856 213.667 92.1456 213.6C92.319 213.533 92.539 213.42 92.8056 213.26V215.82C92.2323 216.047 91.6256 216.16 90.9856 216.16ZM99.3534 216.32C98.3268 216.32 97.4068 216.093 96.5934 215.64C95.7801 215.173 95.1401 214.527 94.6734 213.7C94.2201 212.873 93.9934 211.94 93.9934 210.9C93.9934 209.86 94.2201 208.933 94.6734 208.12C95.1401 207.293 95.7801 206.647 96.5934 206.18C97.4068 205.713 98.3268 205.48 99.3534 205.48C100.487 205.48 101.46 205.727 102.273 206.22C103.087 206.7 103.673 207.387 104.033 208.28L101.633 209.28C101.207 208.373 100.447 207.92 99.3534 207.92C98.5534 207.92 97.8934 208.193 97.3734 208.74C96.8668 209.287 96.6134 210.007 96.6134 210.9C96.6134 211.807 96.8668 212.533 97.3734 213.08C97.8934 213.627 98.5534 213.9 99.3534 213.9C100.46 213.9 101.26 213.42 101.753 212.46L104.133 213.5C103.693 214.393 103.067 215.087 102.253 215.58C101.44 216.073 100.473 216.32 99.3534 216.32ZM109.041 216.32C107.961 216.32 107.074 216.007 106.381 215.38C105.687 214.74 105.341 213.907 105.341 212.88C105.341 212.2 105.521 211.6 105.881 211.08C106.241 210.56 106.734 210.16 107.361 209.88C107.987 209.6 108.681 209.46 109.441 209.46C110.494 209.46 111.394 209.613 112.141 209.92V209.48C112.141 208.92 111.927 208.467 111.501 208.12C111.087 207.773 110.527 207.6 109.821 207.6C109.341 207.6 108.874 207.713 108.421 207.94C107.981 208.153 107.614 208.44 107.321 208.8L105.641 207.48C106.134 206.84 106.754 206.347 107.501 206C108.247 205.653 109.061 205.48 109.941 205.48C111.501 205.48 112.687 205.84 113.501 206.56C114.314 207.28 114.721 208.333 114.721 209.72V216H112.141V214.96H111.981C111.674 215.36 111.267 215.687 110.761 215.94C110.267 216.193 109.694 216.32 109.041 216.32ZM109.661 214.28C110.421 214.28 111.021 214.04 111.461 213.56C111.914 213.067 112.141 212.493 112.141 211.84C111.461 211.52 110.747 211.36 110.001 211.36C108.641 211.36 107.961 211.867 107.961 212.88C107.961 213.293 108.107 213.633 108.401 213.9C108.694 214.153 109.114 214.28 109.661 214.28ZM117.132 205.8H119.592V207.08H119.752C120.072 206.587 120.498 206.2 121.032 205.92C121.578 205.627 122.185 205.48 122.852 205.48C123.572 205.48 124.198 205.653 124.732 206C125.265 206.333 125.645 206.76 125.872 207.28C126.205 206.747 126.658 206.313 127.232 205.98C127.818 205.647 128.505 205.48 129.292 205.48C130.452 205.48 131.332 205.84 131.932 206.56C132.545 207.267 132.852 208.227 132.852 209.44V216H130.252V209.92C130.252 209.28 130.098 208.787 129.792 208.44C129.498 208.093 129.085 207.92 128.552 207.92C127.872 207.92 127.325 208.193 126.912 208.74C126.512 209.273 126.312 209.98 126.312 210.86V216H123.692V209.92C123.692 209.28 123.532 208.787 123.212 208.44C122.905 208.093 122.465 207.92 121.892 207.92C121.252 207.92 120.732 208.193 120.332 208.74C119.945 209.273 119.752 209.98 119.752 210.86V216H117.132V205.8ZM135.274 205.8H137.734V207.04H137.894C138.174 206.6 138.581 206.233 139.114 205.94C139.648 205.633 140.261 205.48 140.954 205.48C141.874 205.48 142.708 205.713 143.454 206.18C144.214 206.633 144.808 207.273 145.234 208.1C145.661 208.927 145.874 209.86 145.874 210.9C145.874 211.953 145.661 212.893 145.234 213.72C144.808 214.533 144.214 215.173 143.454 215.64C142.708 216.093 141.874 216.32 140.954 216.32C140.261 216.32 139.641 216.173 139.094 215.88C138.561 215.587 138.161 215.22 137.894 214.78H137.734L137.894 216.22V220.32H135.274V205.8ZM140.494 213.9C140.988 213.9 141.448 213.773 141.874 213.52C142.301 213.267 142.641 212.913 142.894 212.46C143.148 212.007 143.274 211.487 143.274 210.9C143.274 210.313 143.148 209.793 142.894 209.34C142.641 208.887 142.301 208.54 141.874 208.3C141.448 208.047 140.988 207.92 140.494 207.92C140.014 207.92 139.561 208.047 139.134 208.3C138.708 208.54 138.368 208.887 138.114 209.34C137.861 209.793 137.734 210.313 137.734 210.9C137.734 211.487 137.861 212.007 138.114 212.46C138.368 212.913 138.708 213.267 139.134 213.52C139.561 213.773 140.014 213.9 140.494 213.9ZM151.676 216.32C150.436 216.32 149.429 216.067 148.656 215.56C147.896 215.053 147.362 214.393 147.056 213.58L149.396 212.56C149.609 213.04 149.909 213.407 150.296 213.66C150.696 213.9 151.156 214.02 151.676 214.02C152.156 214.02 152.556 213.947 152.876 213.8C153.196 213.64 153.356 213.387 153.356 213.04C153.356 212.707 153.209 212.46 152.916 212.3C152.622 212.127 152.182 211.973 151.596 211.84L150.396 211.58C149.569 211.38 148.882 211.02 148.336 210.5C147.789 209.967 147.516 209.307 147.516 208.52C147.516 207.933 147.689 207.407 148.036 206.94C148.396 206.473 148.876 206.113 149.476 205.86C150.089 205.607 150.762 205.48 151.496 205.48C153.602 205.48 155.009 206.22 155.716 207.7L153.476 208.68C153.076 207.96 152.436 207.6 151.556 207.6C151.102 207.6 150.742 207.687 150.476 207.86C150.209 208.02 150.076 208.227 150.076 208.48C150.076 208.96 150.529 209.32 151.436 209.56L152.936 209.92C153.949 210.173 154.709 210.56 155.216 211.08C155.736 211.6 155.996 212.24 155.996 213C155.996 213.653 155.802 214.233 155.416 214.74C155.042 215.233 154.522 215.62 153.856 215.9C153.202 216.18 152.476 216.32 151.676 216.32Z" fill="#4285F4"/>
<g filter="url(#filter4_d_465_423)">
<rect x="98" y="52" width="87" height="40" rx="20" fill="white"/>
</g>
<path d="M115.64 64.68H118.34V70.4H124.36V64.68H127.06V79H124.36V72.96H118.34V79H115.64V64.68ZM134.867 79.32C133.814 79.32 132.874 79.0867 132.047 78.62C131.22 78.14 130.574 77.4933 130.107 76.68C129.654 75.8533 129.427 74.9267 129.427 73.9C129.427 72.8867 129.654 71.9667 130.107 71.14C130.574 70.3133 131.22 69.6667 132.047 69.2C132.874 68.72 133.814 68.48 134.867 68.48C135.907 68.48 136.84 68.72 137.667 69.2C138.494 69.6667 139.134 70.3133 139.587 71.14C140.054 71.9667 140.287 72.8867 140.287 73.9C140.287 74.9267 140.054 75.8533 139.587 76.68C139.134 77.4933 138.494 78.14 137.667 78.62C136.84 79.0867 135.907 79.32 134.867 79.32ZM134.867 76.9C135.374 76.9 135.84 76.78 136.267 76.54C136.694 76.3 137.034 75.9533 137.287 75.5C137.54 75.0467 137.667 74.5133 137.667 73.9C137.667 73.3 137.54 72.7733 137.287 72.32C137.034 71.8667 136.694 71.52 136.267 71.28C135.84 71.04 135.374 70.92 134.867 70.92C134.36 70.92 133.894 71.04 133.467 71.28C133.04 71.52 132.694 71.8667 132.427 72.32C132.174 72.7733 132.047 73.3 132.047 73.9C132.047 74.5 132.174 75.0333 132.427 75.5C132.694 75.9533 133.04 76.3 133.467 76.54C133.894 76.78 134.36 76.9 134.867 76.9ZM140.956 68.8H143.896L145.656 75.42H145.796L147.836 68.8H150.516L152.556 75.42H152.696L154.456 68.8H157.356L154.096 79H151.276L149.196 72.4H149.056L146.996 79H144.196L140.956 68.8ZM161.397 73.42C161.397 72.78 161.53 72.2267 161.797 71.76C162.077 71.2933 162.557 70.76 163.237 70.16C163.637 69.8 163.923 69.4867 164.097 69.22C164.283 68.9533 164.377 68.6467 164.377 68.3C164.377 67.8867 164.223 67.54 163.917 67.26C163.61 66.9667 163.203 66.82 162.697 66.82C162.163 66.82 161.723 66.98 161.377 67.3C161.043 67.6067 160.803 67.9933 160.657 68.46L158.357 67.5C158.61 66.6467 159.103 65.9133 159.837 65.3C160.583 64.6733 161.517 64.36 162.637 64.36C163.477 64.36 164.223 64.5267 164.877 64.86C165.53 65.1933 166.037 65.6533 166.397 66.24C166.77 66.8133 166.957 67.4533 166.957 68.16C166.957 68.8533 166.81 69.4467 166.517 69.94C166.223 70.4333 165.79 70.9533 165.217 71.5C164.763 71.9267 164.45 72.2933 164.277 72.6C164.117 72.9067 164.037 73.2933 164.037 73.76V74.08H161.397V73.42ZM162.697 79.12C162.217 79.12 161.803 78.9533 161.457 78.62C161.123 78.2733 160.957 77.86 160.957 77.38C160.957 76.9 161.123 76.4933 161.457 76.16C161.803 75.8267 162.217 75.66 162.697 75.66C163.177 75.66 163.583 75.8267 163.917 76.16C164.25 76.4933 164.417 76.9 164.417 77.38C164.417 77.86 164.25 78.2733 163.917 78.62C163.583 78.9533 163.177 79.12 162.697 79.12Z" fill="#4285F4"/>
<g filter="url(#filter5_d_465_423)">
<rect x="93" y="256" width="211" height="91" rx="45.5" fill="white"/>
</g>
<path d="M142.896 324.024C139.269 324.024 136.091 323.043 133.36 321.08C130.672 319.075 128.795 316.365 127.728 312.952L135.664 309.688C136.219 311.693 137.115 313.229 138.352 314.296C139.589 315.32 141.104 315.832 142.896 315.832C144.859 315.832 146.395 315.192 147.504 313.912C148.656 312.632 149.232 310.84 149.232 308.536V277.176H157.872V308.472C157.872 311.8 157.211 314.637 155.888 316.984C154.565 319.288 152.773 321.037 150.512 322.232C148.251 323.427 145.712 324.024 142.896 324.024ZM181.462 324.024C178.091 324.024 175.083 323.277 172.438 321.784C169.793 320.248 167.723 318.179 166.23 315.576C164.779 312.931 164.054 309.965 164.054 306.68C164.054 303.437 164.779 300.493 166.23 297.848C167.723 295.203 169.793 293.133 172.438 291.64C175.083 290.104 178.091 289.336 181.462 289.336C184.79 289.336 187.777 290.104 190.422 291.64C193.067 293.133 195.115 295.203 196.566 297.848C198.059 300.493 198.806 303.437 198.806 306.68C198.806 309.965 198.059 312.931 196.566 315.576C195.115 318.179 193.067 320.248 190.422 321.784C187.777 323.277 184.79 324.024 181.462 324.024ZM181.462 316.28C183.083 316.28 184.577 315.896 185.942 315.128C187.307 314.36 188.395 313.251 189.206 311.8C190.017 310.349 190.422 308.643 190.422 306.68C190.422 304.76 190.017 303.075 189.206 301.624C188.395 300.173 187.307 299.064 185.942 298.296C184.577 297.528 183.083 297.144 181.462 297.144C179.841 297.144 178.347 297.528 176.982 298.296C175.617 299.064 174.507 300.173 173.654 301.624C172.843 303.075 172.438 304.76 172.438 306.68C172.438 308.6 172.843 310.307 173.654 311.8C174.507 313.251 175.617 314.36 176.982 315.128C178.347 315.896 179.841 316.28 181.462 316.28ZM223.085 324.024C220.866 324.024 218.882 323.555 217.133 322.616C215.426 321.677 214.146 320.504 213.293 319.096H212.781V323H204.909V277.176H213.293V289.72L212.781 294.328H213.293C214.189 292.92 215.49 291.747 217.197 290.808C218.903 289.827 220.866 289.336 223.085 289.336C226.029 289.336 228.695 290.083 231.085 291.576C233.517 293.027 235.415 295.075 236.781 297.72C238.146 300.365 238.829 303.352 238.829 306.68C238.829 310.051 238.146 313.059 236.781 315.704C235.415 318.307 233.517 320.355 231.085 321.848C228.695 323.299 226.029 324.024 223.085 324.024ZM221.613 316.28C223.191 316.28 224.663 315.875 226.029 315.064C227.394 314.253 228.482 313.123 229.293 311.672C230.103 310.221 230.509 308.557 230.509 306.68C230.509 304.803 230.103 303.139 229.293 301.688C228.482 300.237 227.394 299.128 226.029 298.36C224.663 297.549 223.191 297.144 221.613 297.144C220.077 297.144 218.626 297.549 217.26 298.36C215.895 299.128 214.807 300.237 213.997 301.688C213.186 303.139 212.781 304.803 212.781 306.68C212.781 308.557 213.186 310.221 213.997 311.672C214.807 313.123 215.895 314.253 217.26 315.064C218.626 315.875 220.077 316.28 221.613 316.28ZM248.982 305.144C248.982 303.096 249.408 301.325 250.262 299.832C251.158 298.339 252.694 296.632 254.87 294.712C256.15 293.56 257.067 292.557 257.622 291.704C258.219 290.851 258.518 289.869 258.518 288.76C258.518 287.437 258.027 286.328 257.046 285.432C256.064 284.493 254.763 284.024 253.142 284.024C251.435 284.024 250.027 284.536 248.918 285.56C247.851 286.541 247.083 287.779 246.614 289.272L239.254 286.2C240.064 283.469 241.643 281.123 243.99 279.16C246.379 277.155 249.366 276.152 252.95 276.152C255.638 276.152 258.027 276.685 260.118 277.752C262.208 278.819 263.83 280.291 264.982 282.168C266.176 284.003 266.774 286.051 266.774 288.312C266.774 290.531 266.304 292.429 265.366 294.008C264.427 295.587 263.04 297.251 261.206 299C259.755 300.365 258.752 301.539 258.198 302.52C257.686 303.501 257.43 304.739 257.43 306.232V307.256H248.982V305.144ZM253.142 323.384C251.606 323.384 250.283 322.851 249.174 321.784C248.107 320.675 247.574 319.352 247.574 317.816C247.574 316.28 248.107 314.979 249.174 313.912C250.283 312.845 251.606 312.312 253.142 312.312C254.678 312.312 255.979 312.845 257.046 313.912C258.112 314.979 258.646 316.28 258.646 317.816C258.646 319.352 258.112 320.675 257.046 321.784C255.979 322.851 254.678 323.384 253.142 323.384Z" fill="#4285F4"/>
<g filter="url(#filter6_d_465_423)">
<rect x="174" y="197" width="315" height="59" rx="29.5" fill="white"/>
</g>
<path d="M204.612 213.224H210.012L213.54 227.696L213.972 230.396H214.26L214.836 227.696L219.372 213.224H224.16L228.588 227.696L229.164 230.324H229.452L229.884 227.696L233.376 213.224H238.776L232.116 239H226.896L222.504 223.448L221.928 220.676H221.64L221.064 223.448L216.456 239H211.452L204.612 213.224ZM241.742 213.224H246.458V219.74L246.17 222.944H246.458C246.986 222.08 247.754 221.384 248.762 220.856C249.77 220.328 250.862 220.064 252.038 220.064C254.27 220.064 255.974 220.736 257.15 222.08C258.35 223.4 258.95 225.236 258.95 227.588V239H254.234V228.164C254.234 226.988 253.91 226.076 253.262 225.428C252.638 224.78 251.798 224.456 250.742 224.456C249.494 224.456 248.462 224.96 247.646 225.968C246.854 226.976 246.458 228.212 246.458 229.676V239H241.742V213.224ZM272.002 239.576C270.178 239.576 268.534 239.156 267.07 238.316C265.606 237.476 264.454 236.324 263.614 234.86C262.798 233.372 262.39 231.704 262.39 229.856C262.39 228.104 262.798 226.484 263.614 224.996C264.43 223.484 265.558 222.284 266.998 221.396C268.438 220.508 270.046 220.064 271.822 220.064C273.718 220.064 275.35 220.472 276.718 221.288C278.086 222.104 279.118 223.22 279.814 224.636C280.534 226.052 280.894 227.624 280.894 229.352C280.894 229.904 280.858 230.432 280.786 230.936H266.998C267.238 232.4 267.814 233.516 268.726 234.284C269.662 235.028 270.778 235.4 272.074 235.4C273.154 235.4 274.078 235.172 274.846 234.716C275.638 234.236 276.262 233.6 276.718 232.808L280.534 234.68C278.662 237.944 275.818 239.576 272.002 239.576ZM276.358 227.588C276.31 227.012 276.094 226.448 275.71 225.896C275.35 225.32 274.834 224.852 274.162 224.492C273.514 224.108 272.746 223.916 271.858 223.916C270.73 223.916 269.758 224.252 268.942 224.924C268.15 225.572 267.574 226.46 267.214 227.588H276.358ZM284.527 220.64H288.955V222.944H289.243C289.795 222.056 290.575 221.36 291.583 220.856C292.591 220.328 293.683 220.064 294.859 220.064C297.067 220.064 298.747 220.736 299.899 222.08C301.051 223.424 301.627 225.26 301.627 227.588V239H296.911V228.164C296.911 226.988 296.611 226.076 296.011 225.428C295.411 224.78 294.571 224.456 293.491 224.456C292.219 224.456 291.187 224.948 290.395 225.932C289.627 226.916 289.243 228.152 289.243 229.64V239H284.527V220.64ZM321.499 239.576C319.267 239.576 317.455 239.12 316.063 238.208C314.695 237.296 313.735 236.108 313.183 234.644L317.395 232.808C317.779 233.672 318.319 234.332 319.015 234.788C319.735 235.22 320.563 235.436 321.499 235.436C322.363 235.436 323.083 235.304 323.659 235.04C324.235 234.752 324.523 234.296 324.523 233.672C324.523 233.072 324.259 232.628 323.731 232.34C323.203 232.028 322.411 231.752 321.355 231.512L319.195 231.044C317.707 230.684 316.471 230.036 315.487 229.1C314.503 228.14 314.011 226.952 314.011 225.536C314.011 224.48 314.323 223.532 314.947 222.692C315.595 221.852 316.459 221.204 317.539 220.748C318.643 220.292 319.855 220.064 321.175 220.064C324.967 220.064 327.499 221.396 328.771 224.06L324.739 225.824C324.019 224.528 322.867 223.88 321.283 223.88C320.467 223.88 319.819 224.036 319.339 224.348C318.859 224.636 318.619 225.008 318.619 225.464C318.619 226.328 319.435 226.976 321.067 227.408L323.767 228.056C325.591 228.512 326.959 229.208 327.871 230.144C328.807 231.08 329.275 232.232 329.275 233.6C329.275 234.776 328.927 235.82 328.231 236.732C327.559 237.62 326.623 238.316 325.423 238.82C324.247 239.324 322.939 239.576 321.499 239.576ZM340.507 239.288C339.595 239.288 338.755 239.156 337.987 238.892C337.219 238.604 336.595 238.22 336.115 237.74C334.987 236.66 334.423 235.124 334.423 233.132V224.672H331.219V220.64H334.423V215.456H339.139V220.64H343.639V224.672H339.139V232.268C339.139 233.204 339.343 233.876 339.751 234.284C340.087 234.668 340.663 234.86 341.479 234.86C341.935 234.86 342.307 234.8 342.595 234.68C342.907 234.56 343.303 234.356 343.783 234.068V238.676C342.751 239.084 341.659 239.288 340.507 239.288ZM352.826 239.576C350.882 239.576 349.286 239.012 348.038 237.884C346.79 236.732 346.166 235.232 346.166 233.384C346.166 232.16 346.49 231.08 347.138 230.144C347.786 229.208 348.674 228.488 349.802 227.984C350.93 227.48 352.178 227.228 353.546 227.228C355.442 227.228 357.062 227.504 358.406 228.056V227.264C358.406 226.256 358.022 225.44 357.254 224.816C356.51 224.192 355.502 223.88 354.23 223.88C353.366 223.88 352.526 224.084 351.71 224.492C350.918 224.876 350.258 225.392 349.73 226.04L346.706 223.664C347.594 222.512 348.71 221.624 350.054 221C351.398 220.376 352.862 220.064 354.446 220.064C357.254 220.064 359.39 220.712 360.854 222.008C362.318 223.304 363.05 225.2 363.05 227.696V239H358.406V237.128H358.118C357.566 237.848 356.834 238.436 355.922 238.892C355.034 239.348 354.002 239.576 352.826 239.576ZM353.942 235.904C355.31 235.904 356.39 235.472 357.182 234.608C357.998 233.72 358.406 232.688 358.406 231.512C357.182 230.936 355.898 230.648 354.554 230.648C352.106 230.648 350.882 231.56 350.882 233.384C350.882 234.128 351.146 234.74 351.674 235.22C352.202 235.676 352.958 235.904 353.942 235.904ZM367.39 220.64H371.818V223.088H372.106C372.586 222.2 373.318 221.492 374.302 220.964C375.286 220.412 376.342 220.136 377.47 220.136C378.286 220.136 378.862 220.208 379.198 220.352V224.96C378.598 224.72 377.854 224.6 376.966 224.6C375.478 224.6 374.29 225.08 373.402 226.04C372.538 227 372.106 228.308 372.106 229.964V239H367.39V220.64ZM390.934 239.288C390.022 239.288 389.182 239.156 388.414 238.892C387.646 238.604 387.022 238.22 386.542 237.74C385.414 236.66 384.85 235.124 384.85 233.132V224.672H381.646V220.64H384.85V215.456H389.566V220.64H394.066V224.672H389.566V232.268C389.566 233.204 389.77 233.876 390.178 234.284C390.514 234.668 391.09 234.86 391.906 234.86C392.362 234.86 392.734 234.8 393.022 234.68C393.334 234.56 393.73 234.356 394.21 234.068V238.676C393.178 239.084 392.086 239.288 390.934 239.288ZM405.947 239.576C404.123 239.576 402.479 239.156 401.015 238.316C399.551 237.476 398.399 236.324 397.559 234.86C396.743 233.372 396.335 231.704 396.335 229.856C396.335 228.104 396.743 226.484 397.559 224.996C398.375 223.484 399.503 222.284 400.943 221.396C402.383 220.508 403.991 220.064 405.767 220.064C407.663 220.064 409.295 220.472 410.663 221.288C412.031 222.104 413.063 223.22 413.759 224.636C414.479 226.052 414.839 227.624 414.839 229.352C414.839 229.904 414.803 230.432 414.731 230.936H400.943C401.183 232.4 401.759 233.516 402.671 234.284C403.607 235.028 404.723 235.4 406.019 235.4C407.099 235.4 408.023 235.172 408.791 234.716C409.583 234.236 410.207 233.6 410.663 232.808L414.479 234.68C412.607 237.944 409.763 239.576 405.947 239.576ZM410.303 227.588C410.255 227.012 410.039 226.448 409.655 225.896C409.295 225.32 408.779 224.852 408.107 224.492C407.459 224.108 406.691 223.916 405.803 223.916C404.675 223.916 403.703 224.252 402.887 224.924C402.095 225.572 401.519 226.46 401.159 227.588H410.303ZM426.532 239.576C424.876 239.576 423.364 239.168 421.996 238.352C420.652 237.512 419.584 236.36 418.792 234.896C418.024 233.408 417.64 231.716 417.64 229.82C417.64 227.948 418.024 226.268 418.792 224.78C419.584 223.292 420.652 222.14 421.996 221.324C423.364 220.484 424.876 220.064 426.532 220.064C427.78 220.064 428.884 220.34 429.844 220.892C430.804 221.42 431.536 222.08 432.04 222.872H432.328L432.04 220.28V213.224H436.72V239H432.328V236.804H432.04C431.56 237.596 430.828 238.256 429.844 238.784C428.884 239.312 427.78 239.576 426.532 239.576ZM427.324 235.22C428.212 235.22 429.04 234.992 429.808 234.536C430.576 234.08 431.188 233.444 431.644 232.628C432.1 231.812 432.328 230.876 432.328 229.82C432.328 228.764 432.1 227.828 431.644 227.012C431.188 226.196 430.576 225.572 429.808 225.14C429.04 224.684 428.212 224.456 427.324 224.456C426.46 224.456 425.644 224.684 424.876 225.14C424.108 225.572 423.496 226.196 423.04 227.012C422.584 227.828 422.356 228.764 422.356 229.82C422.356 230.876 422.584 231.812 423.04 232.628C423.496 233.444 424.108 234.08 424.876 234.536C425.644 234.992 426.46 235.22 427.324 235.22ZM446.111 228.956C446.111 227.804 446.351 226.808 446.831 225.968C447.335 225.128 448.199 224.168 449.423 223.088C450.143 222.44 450.659 221.876 450.971 221.396C451.307 220.916 451.475 220.364 451.475 219.74C451.475 218.996 451.199 218.372 450.647 217.868C450.095 217.34 449.363 217.076 448.451 217.076C447.491 217.076 446.699 217.364 446.075 217.94C445.475 218.492 445.043 219.188 444.779 220.028L440.639 218.3C441.095 216.764 441.983 215.444 443.303 214.34C444.647 213.212 446.327 212.648 448.343 212.648C449.855 212.648 451.199 212.948 452.375 213.548C453.551 214.148 454.463 214.976 455.111 216.032C455.783 217.064 456.119 218.216 456.119 219.488C456.119 220.736 455.855 221.804 455.327 222.692C454.799 223.58 454.019 224.516 452.987 225.5C452.171 226.268 451.607 226.928 451.295 227.48C451.007 228.032 450.863 228.728 450.863 229.568V230.144H446.111V228.956ZM448.451 239.216C447.587 239.216 446.843 238.916 446.219 238.316C445.619 237.692 445.319 236.948 445.319 236.084C445.319 235.22 445.619 234.488 446.219 233.888C446.843 233.288 447.587 232.988 448.451 232.988C449.315 232.988 450.047 233.288 450.647 233.888C451.247 234.488 451.547 235.22 451.547 236.084C451.547 236.948 451.247 237.692 450.647 238.316C450.047 238.916 449.315 239.216 448.451 239.216Z" fill="#FBBC04"/>
<g filter="url(#filter7_d_465_423)">
<rect y="126" width="173" height="70" rx="35" fill="white"/>
</g>
<path d="M27.936 142.632H49.728V148.776H34.416V157.128H48.192V163.272H34.416V177H27.936V142.632ZM62.4821 177.768C59.5381 177.768 57.2981 176.856 55.7621 175.032C54.2261 173.208 53.4581 170.664 53.4581 167.4V152.52H59.7461V166.632C59.7461 168.296 60.1461 169.608 60.9461 170.568C61.7461 171.496 62.8021 171.96 64.1141 171.96C65.9061 171.96 67.3301 171.304 68.3861 169.992C69.4421 168.68 69.9701 167.016 69.9701 165V152.52H76.2581V177H70.3541V173.928H69.9701C69.2341 175.112 68.1941 176.056 66.8501 176.76C65.5381 177.432 64.0821 177.768 62.4821 177.768ZM82.3845 152.52H88.2885V155.592H88.6725C89.4085 154.408 90.4485 153.48 91.7925 152.808C93.1365 152.104 94.5925 151.752 96.1605 151.752C99.1045 151.752 101.345 152.648 102.881 154.44C104.417 156.232 105.185 158.68 105.185 161.784V177H98.8965V162.552C98.8965 160.984 98.4965 159.768 97.6965 158.904C96.8965 158.04 95.7765 157.608 94.3365 157.608C92.6405 157.608 91.2645 158.264 90.2085 159.576C89.1845 160.888 88.6725 162.536 88.6725 164.52V177H82.3845V152.52ZM116.517 163.608C116.517 162.072 116.837 160.744 117.477 159.624C118.149 158.504 119.301 157.224 120.933 155.784C121.893 154.92 122.581 154.168 122.997 153.528C123.445 152.888 123.669 152.152 123.669 151.32C123.669 150.328 123.301 149.496 122.565 148.824C121.829 148.12 120.853 147.768 119.637 147.768C118.357 147.768 117.301 148.152 116.469 148.92C115.669 149.656 115.093 150.584 114.741 151.704L109.221 149.4C109.829 147.352 111.013 145.592 112.773 144.12C114.565 142.616 116.805 141.864 119.493 141.864C121.509 141.864 123.301 142.264 124.869 143.064C126.437 143.864 127.653 144.968 128.517 146.376C129.413 147.752 129.861 149.288 129.861 150.984C129.861 152.648 129.509 154.072 128.805 155.256C128.101 156.44 127.061 157.688 125.685 159C124.597 160.024 123.845 160.904 123.429 161.64C123.045 162.376 122.853 163.304 122.853 164.424V165.192H116.517V163.608ZM119.637 177.288C118.485 177.288 117.493 176.888 116.661 176.088C115.861 175.256 115.461 174.264 115.461 173.112C115.461 171.96 115.861 170.984 116.661 170.184C117.493 169.384 118.485 168.984 119.637 168.984C120.789 168.984 121.765 169.384 122.565 170.184C123.365 170.984 123.765 171.96 123.765 173.112C123.765 174.264 123.365 175.256 122.565 176.088C121.765 176.888 120.789 177.288 119.637 177.288Z" fill="#EA4335"/>
<g filter="url(#filter8_d_465_423)">
<rect x="240" y="6" width="211" height="79" rx="39.5" fill="white"/>
</g>
<path d="M287.352 61.768C284.056 61.768 281.016 61 278.232 59.464C275.48 57.896 273.288 55.752 271.656 53.032C270.024 50.28 269.208 47.208 269.208 43.816C269.208 40.424 270.024 37.368 271.656 34.648C273.288 31.896 275.48 29.752 278.232 28.216C281.016 26.648 284.056 25.864 287.352 25.864C290.04 25.864 292.488 26.344 294.696 27.304C296.936 28.232 298.856 29.56 300.456 31.288L295.992 35.656C294.84 34.44 293.56 33.528 292.152 32.92C290.776 32.312 289.16 32.008 287.304 32.008C285.192 32.008 283.256 32.504 281.496 33.496C279.736 34.456 278.328 35.848 277.272 37.672C276.248 39.464 275.736 41.512 275.736 43.816C275.736 46.12 276.264 48.184 277.32 50.008C278.376 51.8 279.784 53.192 281.544 54.184C283.336 55.144 285.288 55.624 287.4 55.624C290.6 55.624 293.224 54.68 295.272 52.792C295.912 52.216 296.472 51.48 296.952 50.584C297.432 49.688 297.784 48.712 298.008 47.656H287.208V42.136H304.056C304.28 43.032 304.392 44.04 304.392 45.16C304.392 47.432 304.04 49.544 303.336 51.496C302.664 53.448 301.624 55.16 300.216 56.632C298.68 58.296 296.824 59.576 294.648 60.472C292.472 61.336 290.04 61.768 287.352 61.768ZM321.206 61.768C318.678 61.768 316.422 61.208 314.438 60.088C312.454 58.936 310.902 57.384 309.782 55.432C308.694 53.448 308.15 51.224 308.15 48.76C308.15 46.328 308.694 44.12 309.782 42.136C310.902 40.152 312.454 38.6 314.438 37.48C316.422 36.328 318.678 35.752 321.206 35.752C323.702 35.752 325.942 36.328 327.926 37.48C329.91 38.6 331.446 40.152 332.534 42.136C333.654 44.12 334.214 46.328 334.214 48.76C334.214 51.224 333.654 53.448 332.534 55.432C331.446 57.384 329.91 58.936 327.926 60.088C325.942 61.208 323.702 61.768 321.206 61.768ZM321.206 55.96C322.422 55.96 323.542 55.672 324.566 55.096C325.59 54.52 326.406 53.688 327.014 52.6C327.622 51.512 327.926 50.232 327.926 48.76C327.926 47.32 327.622 46.056 327.014 44.968C326.406 43.88 325.59 43.048 324.566 42.472C323.542 41.896 322.422 41.608 321.206 41.608C319.99 41.608 318.87 41.896 317.846 42.472C316.822 43.048 315.99 43.88 315.35 44.968C314.742 46.056 314.438 47.32 314.438 48.76C314.438 50.2 314.742 51.48 315.35 52.6C315.99 53.688 316.822 54.52 317.846 55.096C318.87 55.672 319.99 55.96 321.206 55.96ZM346.513 61.768C343.921 61.768 341.793 61.016 340.129 59.512C338.465 57.976 337.633 55.976 337.633 53.512C337.633 51.88 338.065 50.44 338.929 49.192C339.793 47.944 340.977 46.984 342.481 46.312C343.985 45.64 345.649 45.304 347.473 45.304C350.001 45.304 352.161 45.672 353.953 46.408V45.352C353.953 44.008 353.441 42.92 352.417 42.088C351.425 41.256 350.081 40.84 348.385 40.84C347.233 40.84 346.113 41.112 345.025 41.656C343.969 42.168 343.089 42.856 342.385 43.72L338.353 40.552C339.537 39.016 341.025 37.832 342.817 37C344.609 36.168 346.561 35.752 348.673 35.752C352.417 35.752 355.265 36.616 357.217 38.344C359.169 40.072 360.145 42.6 360.145 45.928V61H353.953V58.504H353.569C352.833 59.464 351.857 60.248 350.641 60.856C349.457 61.464 348.081 61.768 346.513 61.768ZM348.001 56.872C349.825 56.872 351.265 56.296 352.321 55.144C353.409 53.96 353.953 52.584 353.953 51.016C352.321 50.248 350.609 49.864 348.817 49.864C345.553 49.864 343.921 51.08 343.921 53.512C343.921 54.504 344.273 55.32 344.977 55.96C345.681 56.568 346.689 56.872 348.001 56.872ZM365.931 26.632H372.219V61H365.931V26.632ZM387.478 61.768C384.502 61.768 382.086 61.16 380.23 59.944C378.406 58.728 377.126 57.144 376.39 55.192L382.006 52.744C382.518 53.896 383.238 54.776 384.166 55.384C385.126 55.96 386.23 56.248 387.478 56.248C388.63 56.248 389.59 56.072 390.358 55.72C391.126 55.336 391.51 54.728 391.51 53.896C391.51 53.096 391.158 52.504 390.454 52.12C389.75 51.704 388.694 51.336 387.286 51.016L384.406 50.392C382.422 49.912 380.774 49.048 379.462 47.8C378.15 46.52 377.494 44.936 377.494 43.048C377.494 41.64 377.91 40.376 378.742 39.256C379.606 38.136 380.758 37.272 382.198 36.664C383.67 36.056 385.286 35.752 387.046 35.752C392.102 35.752 395.478 37.528 397.174 41.08L391.798 43.432C390.838 41.704 389.302 40.84 387.19 40.84C386.102 40.84 385.238 41.048 384.598 41.464C383.958 41.848 383.638 42.344 383.638 42.952C383.638 44.104 384.726 44.968 386.902 45.544L390.502 46.408C392.934 47.016 394.758 47.944 395.974 49.192C397.222 50.44 397.846 51.976 397.846 53.8C397.846 55.368 397.382 56.76 396.454 57.976C395.558 59.16 394.31 60.088 392.71 60.76C391.142 61.432 389.398 61.768 387.478 61.768ZM408.736 47.608C408.736 46.072 409.056 44.744 409.696 43.624C410.368 42.504 411.52 41.224 413.152 39.784C414.112 38.92 414.8 38.168 415.216 37.528C415.664 36.888 415.888 36.152 415.888 35.32C415.888 34.328 415.52 33.496 414.784 32.824C414.048 32.12 413.072 31.768 411.856 31.768C410.576 31.768 409.52 32.152 408.688 32.92C407.888 33.656 407.312 34.584 406.96 35.704L401.44 33.4C402.048 31.352 403.232 29.592 404.992 28.12C406.784 26.616 409.024 25.864 411.712 25.864C413.728 25.864 415.52 26.264 417.088 27.064C418.656 27.864 419.872 28.968 420.736 30.376C421.632 31.752 422.08 33.288 422.08 34.984C422.08 36.648 421.728 38.072 421.024 39.256C420.32 40.44 419.28 41.688 417.904 43C416.816 44.024 416.064 44.904 415.648 45.64C415.264 46.376 415.072 47.304 415.072 48.424V49.192H408.736V47.608ZM411.856 61.288C410.704 61.288 409.712 60.888 408.88 60.088C408.08 59.256 407.68 58.264 407.68 57.112C407.68 55.96 408.08 54.984 408.88 54.184C409.712 53.384 410.704 52.984 411.856 52.984C413.008 52.984 413.984 53.384 414.784 54.184C415.584 54.984 415.984 55.96 415.984 57.112C415.984 58.264 415.584 59.256 414.784 60.088C413.984 60.888 413.008 61.288 411.856 61.288Z" fill="#EA4335"/>
<g filter="url(#filter9_b_465_423)">
<circle cx="260" cy="167" r="127" transform="rotate(180 260 167)" fill="white" fill-opacity="0.8"/>
<circle cx="260" cy="167" r="128" transform="rotate(180 260 167)" stroke="url(#paint0_linear_465_423)" stroke-width="2"/>
</g>
<path d="M222.817 167.351L245.991 154.209C248.612 152.722 250.526 150.27 251.312 147.394C252.097 144.517 251.69 141.451 250.18 138.87C248.67 136.289 246.181 134.404 243.259 133.631C240.338 132.857 237.225 133.258 234.604 134.745L194.712 157.494L222.817 167.351Z" fill="#EA4335"/>
<path d="M240.298 201.1C242.805 201.101 245.243 200.287 247.233 198.784C249.222 197.281 250.652 195.174 251.301 192.789C251.95 190.403 251.782 187.874 250.822 185.593C249.861 183.312 248.163 181.406 245.991 180.173L206.099 157.388C203.478 155.901 200.365 155.5 197.443 156.274C194.522 157.047 192.033 158.932 190.523 161.513C189.013 164.094 188.606 167.16 189.391 170.036C190.177 172.913 192.091 175.364 194.712 176.851L234.604 199.6C236.33 200.597 238.297 201.115 240.298 201.1Z" fill="#4285F4"/>
<path d="M280.116 201.101C282.116 201.107 284.081 200.589 285.81 199.601L325.702 176.852L297.923 166.888L274.386 180.28C272.264 181.538 270.617 183.443 269.693 185.706C268.769 187.969 268.62 190.467 269.268 192.821C269.916 195.175 271.325 197.257 273.283 198.751C275.241 200.245 277.64 201.07 280.116 201.101Z" fill="#FBBC04"/>
<path d="M320.12 178.458C322.624 178.444 325.054 177.619 327.035 176.112C329.017 174.604 330.441 172.498 331.088 170.115C331.735 167.733 331.569 165.208 330.616 162.927C329.663 160.647 327.976 158.738 325.814 157.495L285.812 134.746C284.512 133.935 283.059 133.391 281.54 133.147C280.021 132.903 278.467 132.963 276.973 133.325C275.478 133.687 274.073 134.343 272.842 135.253C271.611 136.163 270.58 137.308 269.81 138.62C269.04 139.932 268.547 141.384 268.36 142.889C268.174 144.393 268.299 145.919 268.726 147.375C269.154 148.831 269.876 150.187 270.849 151.361C271.822 152.536 273.026 153.504 274.389 154.209L314.281 176.958C316.016 177.934 317.977 178.451 319.975 178.458" fill="#34A853"/>
<g filter="url(#filter10_d_465_423)">
<path d="M399 263C399 291.167 376.167 314 348 314C319.833 314 297 291.167 297 263C297 234.833 319.833 212 348 212C376.167 212 399 234.833 399 263Z" fill="white"/>
</g>
<path d="M342.835 271.281C342.835 268.907 343.33 266.854 344.319 265.123C345.357 263.393 347.138 261.414 349.66 259.189C351.143 257.854 352.207 256.691 352.85 255.702C353.542 254.713 353.888 253.576 353.888 252.29C353.888 250.757 353.319 249.471 352.182 248.433C351.044 247.345 349.536 246.801 347.657 246.801C345.679 246.801 344.047 247.394 342.761 248.581C341.524 249.718 340.634 251.153 340.09 252.883L331.559 249.323C332.499 246.158 334.329 243.438 337.049 241.163C339.818 238.838 343.28 237.676 347.434 237.676C350.55 237.676 353.319 238.294 355.743 239.531C358.166 240.767 360.045 242.473 361.38 244.649C362.765 246.776 363.458 249.15 363.458 251.771C363.458 254.342 362.914 256.543 361.826 258.373C360.738 260.203 359.13 262.131 357.004 264.159C355.322 265.742 354.16 267.102 353.517 268.239C352.924 269.377 352.627 270.811 352.627 272.542V273.729H342.835V271.281ZM347.657 292.422C345.876 292.422 344.343 291.804 343.058 290.568C341.821 289.282 341.203 287.749 341.203 285.969C341.203 284.188 341.821 282.68 343.058 281.443C344.343 280.207 345.876 279.589 347.657 279.589C349.437 279.589 350.946 280.207 352.182 281.443C353.418 282.68 354.036 284.188 354.036 285.969C354.036 287.749 353.418 289.282 352.182 290.568C350.946 291.804 349.437 292.422 347.657 292.422Z" fill="#EA4335"/>
<g filter="url(#filter11_d_465_423)">
<rect x="133" y="23" width="107" height="40" rx="20" fill="white"/>
</g>
<path d="M150.64 35.68H159.72V38.24H153.34V41.56H159.08V44.12H153.34V47.44H159.72V50H150.64V35.68ZM160.605 39.8H163.585L166.165 46.44H166.325L168.945 39.8H171.885L167.525 50H164.925L160.605 39.8ZM177.794 50.32C176.781 50.32 175.868 50.0867 175.054 49.62C174.241 49.1533 173.601 48.5133 173.134 47.7C172.681 46.8733 172.454 45.9467 172.454 44.92C172.454 43.9467 172.681 43.0467 173.134 42.22C173.588 41.38 174.214 40.7133 175.014 40.22C175.814 39.7267 176.708 39.48 177.694 39.48C178.748 39.48 179.654 39.7067 180.414 40.16C181.174 40.6133 181.748 41.2333 182.134 42.02C182.534 42.8067 182.734 43.68 182.734 44.64C182.734 44.9467 182.714 45.24 182.674 45.52H175.014C175.148 46.3333 175.468 46.9533 175.974 47.38C176.494 47.7933 177.114 48 177.834 48C178.434 48 178.948 47.8733 179.374 47.62C179.814 47.3533 180.161 47 180.414 46.56L182.534 47.6C181.494 49.4133 179.914 50.32 177.794 50.32ZM180.214 43.66C180.188 43.34 180.068 43.0267 179.854 42.72C179.654 42.4 179.368 42.14 178.994 41.94C178.634 41.7267 178.208 41.62 177.714 41.62C177.088 41.62 176.548 41.8067 176.094 42.18C175.654 42.54 175.334 43.0333 175.134 43.66H180.214ZM184.753 39.8H187.213V41.08H187.373C187.679 40.5867 188.113 40.2 188.673 39.92C189.233 39.6267 189.839 39.48 190.493 39.48C191.719 39.48 192.653 39.8533 193.293 40.6C193.933 41.3467 194.253 42.3667 194.253 43.66V50H191.633V43.98C191.633 43.3267 191.466 42.82 191.133 42.46C190.799 42.1 190.333 41.92 189.733 41.92C189.026 41.92 188.453 42.1933 188.013 42.74C187.586 43.2867 187.373 43.9733 187.373 44.8V50H184.753V39.8ZM200.658 50.16C200.151 50.16 199.684 50.0867 199.258 49.94C198.831 49.78 198.484 49.5667 198.218 49.3C197.591 48.7 197.278 47.8467 197.278 46.74V42.04H195.498V39.8H197.278V36.92H199.898V39.8H202.398V42.04H199.898V46.26C199.898 46.78 200.011 47.1533 200.238 47.38C200.424 47.5933 200.744 47.7 201.198 47.7C201.451 47.7 201.658 47.6667 201.818 47.6C201.991 47.5333 202.211 47.42 202.478 47.26V49.82C201.904 50.0467 201.298 50.16 200.658 50.16ZM208.652 50.32C207.412 50.32 206.406 50.0667 205.632 49.56C204.872 49.0533 204.339 48.3933 204.032 47.58L206.372 46.56C206.586 47.04 206.886 47.4067 207.272 47.66C207.672 47.9 208.132 48.02 208.652 48.02C209.132 48.02 209.532 47.9467 209.852 47.8C210.172 47.64 210.332 47.3867 210.332 47.04C210.332 46.7067 210.186 46.46 209.892 46.3C209.599 46.1267 209.159 45.9733 208.572 45.84L207.372 45.58C206.546 45.38 205.859 45.02 205.312 44.5C204.766 43.9667 204.492 43.3067 204.492 42.52C204.492 41.9333 204.666 41.4067 205.012 40.94C205.372 40.4733 205.852 40.1133 206.452 39.86C207.066 39.6067 207.739 39.48 208.472 39.48C210.579 39.48 211.986 40.22 212.692 41.7L210.452 42.68C210.052 41.96 209.412 41.6 208.532 41.6C208.079 41.6 207.719 41.6867 207.452 41.86C207.186 42.02 207.052 42.2267 207.052 42.48C207.052 42.96 207.506 43.32 208.412 43.56L209.912 43.92C210.926 44.1733 211.686 44.56 212.192 45.08C212.712 45.6 212.972 46.24 212.972 47C212.972 47.6533 212.779 48.2333 212.392 48.74C212.019 49.2333 211.499 49.62 210.832 49.9C210.179 50.18 209.452 50.32 208.652 50.32ZM217.51 44.42C217.51 43.78 217.643 43.2267 217.91 42.76C218.19 42.2933 218.67 41.76 219.35 41.16C219.75 40.8 220.037 40.4867 220.21 40.22C220.397 39.9533 220.49 39.6467 220.49 39.3C220.49 38.8867 220.337 38.54 220.03 38.26C219.723 37.9667 219.317 37.82 218.81 37.82C218.277 37.82 217.837 37.98 217.49 38.3C217.157 38.6067 216.917 38.9933 216.77 39.46L214.47 38.5C214.723 37.6467 215.217 36.9133 215.95 36.3C216.697 35.6733 217.63 35.36 218.75 35.36C219.59 35.36 220.337 35.5267 220.99 35.86C221.643 36.1933 222.15 36.6533 222.51 37.24C222.883 37.8133 223.07 38.4533 223.07 39.16C223.07 39.8533 222.923 40.4467 222.63 40.94C222.337 41.4333 221.903 41.9533 221.33 42.5C220.877 42.9267 220.563 43.2933 220.39 43.6C220.23 43.9067 220.15 44.2933 220.15 44.76V45.08H217.51V44.42ZM218.81 50.12C218.33 50.12 217.917 49.9533 217.57 49.62C217.237 49.2733 217.07 48.86 217.07 48.38C217.07 47.9 217.237 47.4933 217.57 47.16C217.917 46.8267 218.33 46.66 218.81 46.66C219.29 46.66 219.697 46.8267 220.03 47.16C220.363 47.4933 220.53 47.9 220.53 48.38C220.53 48.86 220.363 49.2733 220.03 49.62C219.697 49.9533 219.29 50.12 218.81 50.12Z" fill="#34A853"/>
<g filter="url(#filter12_d_465_423)">
<rect x="68" y="227" width="129" height="42" rx="21" fill="white"/>
</g>
<path d="M94.104 256.384C92.44 256.384 90.92 255.992 89.544 255.208C88.168 254.408 87.08 253.328 86.28 251.968C85.496 250.592 85.104 249.072 85.104 247.408C85.104 245.744 85.496 244.232 86.28 242.872C87.08 241.496 88.168 240.416 89.544 239.632C90.92 238.832 92.44 238.432 94.104 238.432C96.696 238.432 98.84 239.368 100.536 241.24L98.256 243.448C97.152 242.152 95.776 241.504 94.128 241.504C93.056 241.504 92.08 241.752 91.2 242.248C90.32 242.728 89.624 243.416 89.112 244.312C88.616 245.208 88.368 246.24 88.368 247.408C88.368 248.576 88.616 249.608 89.112 250.504C89.624 251.4 90.32 252.096 91.2 252.592C92.08 253.072 93.056 253.312 94.128 253.312C95.936 253.312 97.448 252.56 98.664 251.056L100.968 253.24C100.12 254.264 99.112 255.048 97.944 255.592C96.792 256.12 95.512 256.384 94.104 256.384ZM108.923 256.384C107.659 256.384 106.531 256.104 105.539 255.544C104.547 254.968 103.771 254.192 103.211 253.216C102.667 252.224 102.395 251.112 102.395 249.88C102.395 248.664 102.667 247.56 103.211 246.568C103.771 245.576 104.547 244.8 105.539 244.24C106.531 243.664 107.659 243.376 108.923 243.376C110.171 243.376 111.291 243.664 112.283 244.24C113.275 244.8 114.043 245.576 114.587 246.568C115.147 247.56 115.427 248.664 115.427 249.88C115.427 251.112 115.147 252.224 114.587 253.216C114.043 254.192 113.275 254.968 112.283 255.544C111.291 256.104 110.171 256.384 108.923 256.384ZM108.923 253.48C109.531 253.48 110.091 253.336 110.603 253.048C111.115 252.76 111.523 252.344 111.827 251.8C112.131 251.256 112.283 250.616 112.283 249.88C112.283 249.16 112.131 248.528 111.827 247.984C111.523 247.44 111.115 247.024 110.603 246.736C110.091 246.448 109.531 246.304 108.923 246.304C108.315 246.304 107.755 246.448 107.243 246.736C106.731 247.024 106.315 247.44 105.995 247.984C105.691 248.528 105.539 249.16 105.539 249.88C105.539 250.6 105.691 251.24 105.995 251.8C106.315 252.344 106.731 252.76 107.243 253.048C107.755 253.336 108.315 253.48 108.923 253.48ZM123.089 256.384C121.985 256.384 120.977 256.112 120.065 255.568C119.169 255.008 118.457 254.24 117.929 253.264C117.417 252.272 117.161 251.144 117.161 249.88C117.161 248.632 117.417 247.512 117.929 246.52C118.457 245.528 119.169 244.76 120.065 244.216C120.977 243.656 121.985 243.376 123.089 243.376C123.921 243.376 124.657 243.56 125.297 243.928C125.937 244.28 126.425 244.72 126.761 245.248H126.953L126.761 243.52V238.816H129.881V256H126.953V254.536H126.761C126.441 255.064 125.953 255.504 125.297 255.856C124.657 256.208 123.921 256.384 123.089 256.384ZM123.617 253.48C124.209 253.48 124.761 253.328 125.273 253.024C125.785 252.72 126.193 252.296 126.497 251.752C126.801 251.208 126.953 250.584 126.953 249.88C126.953 249.176 126.801 248.552 126.497 248.008C126.193 247.464 125.785 247.048 125.273 246.76C124.761 246.456 124.209 246.304 123.617 246.304C123.041 246.304 122.497 246.456 121.985 246.76C121.473 247.048 121.065 247.464 120.761 248.008C120.457 248.552 120.305 249.176 120.305 249.88C120.305 250.584 120.457 251.208 120.761 251.752C121.065 252.296 121.473 252.72 121.985 253.024C122.497 253.328 123.041 253.48 123.617 253.48ZM134.75 242.416C134.19 242.416 133.71 242.216 133.31 241.816C132.91 241.416 132.71 240.936 132.71 240.376C132.71 239.816 132.91 239.344 133.31 238.96C133.71 238.56 134.19 238.36 134.75 238.36C135.31 238.36 135.782 238.56 136.166 238.96C136.566 239.344 136.766 239.816 136.766 240.376C136.766 240.936 136.566 241.416 136.166 241.816C135.782 242.216 135.31 242.416 134.75 242.416ZM133.166 243.76H136.31V256H133.166V243.76ZM139.606 243.76H142.558V245.296H142.75C143.118 244.704 143.638 244.24 144.31 243.904C144.982 243.552 145.71 243.376 146.494 243.376C147.966 243.376 149.086 243.824 149.854 244.72C150.622 245.616 151.006 246.84 151.006 248.392V256H147.862V248.776C147.862 247.992 147.662 247.384 147.262 246.952C146.862 246.52 146.302 246.304 145.582 246.304C144.734 246.304 144.046 246.632 143.518 247.288C143.006 247.944 142.75 248.768 142.75 249.76V256H139.606V243.76ZM159.496 261.568C157.944 261.568 156.656 261.216 155.632 260.512C154.608 259.824 153.92 258.992 153.568 258.016L156.52 256.816C156.776 257.424 157.168 257.904 157.696 258.256C158.224 258.608 158.824 258.784 159.496 258.784C160.488 258.784 161.272 258.48 161.848 257.872C162.44 257.264 162.736 256.4 162.736 255.28V254.32H162.544C162.16 254.864 161.656 255.28 161.032 255.568C160.408 255.856 159.696 256 158.896 256C157.888 256 156.944 255.744 156.064 255.232C155.2 254.704 154.504 253.968 153.976 253.024C153.448 252.064 153.184 250.952 153.184 249.688C153.184 248.424 153.448 247.32 153.976 246.376C154.504 245.416 155.2 244.68 156.064 244.168C156.944 243.64 157.888 243.376 158.896 243.376C159.696 243.376 160.408 243.52 161.032 243.808C161.656 244.096 162.16 244.512 162.544 245.056H162.736V243.76H165.76V255.16C165.76 256.472 165.504 257.608 164.992 258.568C164.48 259.528 163.752 260.264 162.808 260.776C161.864 261.304 160.76 261.568 159.496 261.568ZM159.544 253.144C160.424 253.144 161.176 252.84 161.8 252.232C162.424 251.608 162.736 250.76 162.736 249.688C162.736 248.584 162.424 247.736 161.8 247.144C161.192 246.536 160.44 246.232 159.544 246.232C158.648 246.232 157.888 246.536 157.264 247.144C156.64 247.752 156.328 248.6 156.328 249.688C156.328 250.776 156.64 251.624 157.264 252.232C157.888 252.84 158.648 253.144 159.544 253.144ZM172.001 249.304C172.001 248.536 172.161 247.872 172.481 247.312C172.817 246.752 173.393 246.112 174.209 245.392C174.689 244.96 175.033 244.584 175.241 244.264C175.465 243.944 175.577 243.576 175.577 243.16C175.577 242.664 175.393 242.248 175.025 241.912C174.657 241.56 174.169 241.384 173.561 241.384C172.921 241.384 172.393 241.576 171.977 241.96C171.577 242.328 171.289 242.792 171.113 243.352L168.353 242.2C168.657 241.176 169.249 240.296 170.129 239.56C171.025 238.808 172.145 238.432 173.489 238.432C174.497 238.432 175.393 238.632 176.177 239.032C176.961 239.432 177.569 239.984 178.001 240.688C178.449 241.376 178.673 242.144 178.673 242.992C178.673 243.824 178.497 244.536 178.145 245.128C177.793 245.72 177.273 246.344 176.585 247C176.041 247.512 175.665 247.952 175.457 248.32C175.265 248.688 175.169 249.152 175.169 249.712V250.096H172.001V249.304ZM173.561 256.144C172.985 256.144 172.489 255.944 172.073 255.544C171.673 255.128 171.473 254.632 171.473 254.056C171.473 253.48 171.673 252.992 172.073 252.592C172.489 252.192 172.985 251.992 173.561 251.992C174.137 251.992 174.625 252.192 175.025 252.592C175.425 252.992 175.625 253.48 175.625 254.056C175.625 254.632 175.425 255.128 175.025 255.544C174.625 255.944 174.137 256.144 173.561 256.144Z" fill="#34A853"/>
<g filter="url(#filter13_d_465_423)">
<rect x="328" y="85" width="135" height="37" rx="18.5" fill="white"/>
</g>
<path d="M344.28 95.68H347.2L350.16 104.32L350.68 106.14H350.84L351.4 104.32L354.48 95.68H357.4L352.18 110H349.34L344.28 95.68ZM362.54 110.32C361.527 110.32 360.614 110.087 359.8 109.62C358.987 109.153 358.347 108.513 357.88 107.7C357.427 106.873 357.2 105.947 357.2 104.92C357.2 103.947 357.427 103.047 357.88 102.22C358.334 101.38 358.96 100.713 359.76 100.22C360.56 99.7267 361.454 99.48 362.44 99.48C363.494 99.48 364.4 99.7067 365.16 100.16C365.92 100.613 366.494 101.233 366.88 102.02C367.28 102.807 367.48 103.68 367.48 104.64C367.48 104.947 367.46 105.24 367.42 105.52H359.76C359.894 106.333 360.214 106.953 360.72 107.38C361.24 107.793 361.86 108 362.58 108C363.18 108 363.694 107.873 364.12 107.62C364.56 107.353 364.907 107 365.16 106.56L367.28 107.6C366.24 109.413 364.66 110.32 362.54 110.32ZM364.96 103.66C364.934 103.34 364.814 103.027 364.6 102.72C364.4 102.4 364.114 102.14 363.74 101.94C363.38 101.727 362.954 101.62 362.46 101.62C361.834 101.62 361.294 101.807 360.84 102.18C360.4 102.54 360.08 103.033 359.88 103.66H364.96ZM369.499 99.8H371.959V101.16H372.119C372.372 100.68 372.765 100.287 373.299 99.98C373.832 99.66 374.419 99.5 375.059 99.5C375.525 99.5 375.952 99.5733 376.339 99.72V102.34C375.979 102.207 375.672 102.113 375.419 102.06C375.179 101.993 374.919 101.96 374.639 101.96C373.865 101.96 373.252 102.24 372.799 102.8C372.345 103.36 372.119 104.067 372.119 104.92V110H369.499V99.8ZM381.663 109.52L377.363 99.8H380.343L382.983 106.14H383.143L385.683 99.8H388.603L382.303 114.32H379.483L381.663 109.52ZM394.733 95.68H397.353V99.3L397.193 101.08H397.353C397.646 100.6 398.073 100.213 398.633 99.92C399.193 99.6267 399.8 99.48 400.453 99.48C401.693 99.48 402.64 99.8533 403.293 100.6C403.96 101.333 404.293 102.353 404.293 103.66V110H401.673V103.98C401.673 103.327 401.493 102.82 401.133 102.46C400.786 102.1 400.32 101.92 399.733 101.92C399.04 101.92 398.466 102.2 398.013 102.76C397.573 103.32 397.353 104.007 397.353 104.82V110H394.733V95.68ZM409.787 110.32C408.707 110.32 407.82 110.007 407.127 109.38C406.433 108.74 406.087 107.907 406.087 106.88C406.087 106.2 406.267 105.6 406.627 105.08C406.987 104.56 407.48 104.16 408.107 103.88C408.733 103.6 409.427 103.46 410.187 103.46C411.24 103.46 412.14 103.613 412.887 103.92V103.48C412.887 102.92 412.673 102.467 412.247 102.12C411.833 101.773 411.273 101.6 410.567 101.6C410.087 101.6 409.62 101.713 409.167 101.94C408.727 102.153 408.36 102.44 408.067 102.8L406.387 101.48C406.88 100.84 407.5 100.347 408.247 100C408.993 99.6533 409.807 99.48 410.687 99.48C412.247 99.48 413.433 99.84 414.247 100.56C415.06 101.28 415.467 102.333 415.467 103.72V110H412.887V108.96H412.727C412.42 109.36 412.013 109.687 411.507 109.94C411.013 110.193 410.44 110.32 409.787 110.32ZM410.407 108.28C411.167 108.28 411.767 108.04 412.207 107.56C412.66 107.067 412.887 106.493 412.887 105.84C412.207 105.52 411.493 105.36 410.747 105.36C409.387 105.36 408.707 105.867 408.707 106.88C408.707 107.293 408.853 107.633 409.147 107.9C409.44 108.153 409.86 108.28 410.407 108.28ZM417.878 99.8H420.338V101.16H420.498C420.751 100.68 421.144 100.287 421.678 99.98C422.211 99.66 422.798 99.5 423.438 99.5C423.904 99.5 424.331 99.5733 424.718 99.72V102.34C424.358 102.207 424.051 102.113 423.798 102.06C423.558 101.993 423.298 101.96 423.018 101.96C422.244 101.96 421.631 102.24 421.178 102.8C420.724 103.36 420.498 104.067 420.498 104.92V110H417.878V99.8ZM430.187 110.32C429.267 110.32 428.427 110.093 427.667 109.64C426.921 109.173 426.327 108.533 425.887 107.72C425.461 106.893 425.247 105.953 425.247 104.9C425.247 103.86 425.461 102.927 425.887 102.1C426.327 101.273 426.921 100.633 427.667 100.18C428.427 99.7133 429.267 99.48 430.187 99.48C430.881 99.48 431.494 99.6333 432.027 99.94C432.561 100.233 432.967 100.6 433.247 101.04H433.407L433.247 99.6V95.68H435.847V110H433.407V108.78H433.247C432.981 109.22 432.574 109.587 432.027 109.88C431.494 110.173 430.881 110.32 430.187 110.32ZM430.627 107.9C431.121 107.9 431.581 107.773 432.007 107.52C432.434 107.267 432.774 106.913 433.027 106.46C433.281 106.007 433.407 105.487 433.407 104.9C433.407 104.313 433.281 103.793 433.027 103.34C432.774 102.887 432.434 102.54 432.007 102.3C431.581 102.047 431.121 101.92 430.627 101.92C430.147 101.92 429.694 102.047 429.267 102.3C428.841 102.54 428.501 102.887 428.247 103.34C427.994 103.793 427.867 104.313 427.867 104.9C427.867 105.487 427.994 106.007 428.247 106.46C428.501 106.913 428.841 107.267 429.267 107.52C429.694 107.773 430.147 107.9 430.627 107.9ZM441.065 104.42C441.065 103.78 441.198 103.227 441.465 102.76C441.745 102.293 442.225 101.76 442.905 101.16C443.305 100.8 443.591 100.487 443.765 100.22C443.951 99.9533 444.045 99.6467 444.045 99.3C444.045 98.8867 443.891 98.54 443.585 98.26C443.278 97.9667 442.871 97.82 442.365 97.82C441.831 97.82 441.391 97.98 441.045 98.3C440.711 98.6067 440.471 98.9933 440.325 99.46L438.025 98.5C438.278 97.6467 438.771 96.9133 439.505 96.3C440.251 95.6733 441.185 95.36 442.305 95.36C443.145 95.36 443.891 95.5267 444.545 95.86C445.198 96.1933 445.705 96.6533 446.065 97.24C446.438 97.8133 446.625 98.4533 446.625 99.16C446.625 99.8533 446.478 100.447 446.185 100.94C445.891 101.433 445.458 101.953 444.885 102.5C444.431 102.927 444.118 103.293 443.945 103.6C443.785 103.907 443.705 104.293 443.705 104.76V105.08H441.065V104.42ZM442.365 110.12C441.885 110.12 441.471 109.953 441.125 109.62C440.791 109.273 440.625 108.86 440.625 108.38C440.625 107.9 440.791 107.493 441.125 107.16C441.471 106.827 441.885 106.66 442.365 106.66C442.845 106.66 443.251 106.827 443.585 107.16C443.918 107.493 444.085 107.9 444.085 108.38C444.085 108.86 443.918 109.273 443.585 109.62C443.251 109.953 442.845 110.12 442.365 110.12Z" fill="#FBBC04"/>
<defs>
<filter id="filter0_d_465_423" x="266" y="253" width="211" height="81" filterUnits="userSpaceOnUse" color-interpolation-filters="sRGB">
<feFlood flood-opacity="0" result="BackgroundImageFix"/>
<feColorMatrix in="SourceAlpha" type="matrix" values="0 0 0 0 0 0 0 0 0 0 0 0 0 0 0 0 0 0 127 0" result="hardAlpha"/>
<feMorphology radius="4" operator="dilate" in="SourceAlpha" result="effect1_dropShadow_465_423"/>
<feOffset dy="4"/>
<feGaussianBlur stdDeviation="3"/>
<feComposite in2="hardAlpha" operator="out"/>
<feColorMatrix type="matrix" values="0 0 0 0 0 0 0 0 0 0 0 0 0 0 0 0 0 0 0.08 0"/>
<feBlend mode="normal" in2="BackgroundImageFix" result="effect1_dropShadow_465_423"/>
<feBlend mode="normal" in="SourceGraphic" in2="effect1_dropShadow_465_423" result="shape"/>
</filter>
<filter id="filter1_d_465_423" x="276" y="116" width="261" height="99" filterUnits="userSpaceOnUse" color-interpolation-filters="sRGB">
<feFlood flood-opacity="0" result="BackgroundImageFix"/>
<feColorMatrix in="SourceAlpha" type="matrix" values="0 0 0 0 0 0 0 0 0 0 0 0 0 0 0 0 0 0 127 0" result="hardAlpha"/>
<feMorphology radius="4" operator="dilate" in="SourceAlpha" result="effect1_dropShadow_465_423"/>
<feOffset dy="4"/>
<feGaussianBlur stdDeviation="3"/>
<feComposite in2="hardAlpha" operator="out"/>
<feColorMatrix type="matrix" values="0 0 0 0 0 0 0 0 0 0 0 0 0 0 0 0 0 0 0.08 0"/>
<feBlend mode="normal" in2="BackgroundImageFix" result="effect1_dropShadow_465_423"/>
<feBlend mode="normal" in="SourceGraphic" in2="effect1_dropShadow_465_423" result="shape"/>
</filter>
<filter id="filter2_d_465_423" x="24" y="83" width="195" height="60" filterUnits="userSpaceOnUse" color-interpolation-filters="sRGB">
<feFlood flood-opacity="0" result="BackgroundImageFix"/>
<feColorMatrix in="SourceAlpha" type="matrix" values="0 0 0 0 0 0 0 0 0 0 0 0 0 0 0 0 0 0 127 0" result="hardAlpha"/>
<feMorphology radius="4" operator="dilate" in="SourceAlpha" result="effect1_dropShadow_465_423"/>
<feOffset dy="4"/>
<feGaussianBlur stdDeviation="3"/>
<feComposite in2="hardAlpha" operator="out"/>
<feColorMatrix type="matrix" values="0 0 0 0 0 0 0 0 0 0 0 0 0 0 0 0 0 0 0.08 0"/>
<feBlend mode="normal" in2="BackgroundImageFix" result="effect1_dropShadow_465_423"/>
<feBlend mode="normal" in="SourceGraphic" in2="effect1_dropShadow_465_423" result="shape"/>
</filter>
<filter id="filter3_d_465_423" x="23" y="186" width="159" height="56" filterUnits="userSpaceOnUse" color-interpolation-filters="sRGB">
<feFlood flood-opacity="0" result="BackgroundImageFix"/>
<feColorMatrix in="SourceAlpha" type="matrix" values="0 0 0 0 0 0 0 0 0 0 0 0 0 0 0 0 0 0 127 0" result="hardAlpha"/>
<feMorphology radius="4" operator="dilate" in="SourceAlpha" result="effect1_dropShadow_465_423"/>
<feOffset dy="4"/>
<feGaussianBlur stdDeviation="3"/>
<feComposite in2="hardAlpha" operator="out"/>
<feColorMatrix type="matrix" values="0 0 0 0 0 0 0 0 0 0 0 0 0 0 0 0 0 0 0.08 0"/>
<feBlend mode="normal" in2="BackgroundImageFix" result="effect1_dropShadow_465_423"/>
<feBlend mode="normal" in="SourceGraphic" in2="effect1_dropShadow_465_423" result="shape"/>
</filter>
<filter id="filter4_d_465_423" x="88" y="46" width="107" height="60" filterUnits="userSpaceOnUse" color-interpolation-filters="sRGB">
<feFlood flood-opacity="0" result="BackgroundImageFix"/>
<feColorMatrix in="SourceAlpha" type="matrix" values="0 0 0 0 0 0 0 0 0 0 0 0 0 0 0 0 0 0 127 0" result="hardAlpha"/>
<feMorphology radius="4" operator="dilate" in="SourceAlpha" result="effect1_dropShadow_465_423"/>
<feOffset dy="4"/>
<feGaussianBlur stdDeviation="3"/>
<feComposite in2="hardAlpha" operator="out"/>
<feColorMatrix type="matrix" values="0 0 0 0 0 0 0 0 0 0 0 0 0 0 0 0 0 0 0.08 0"/>
<feBlend mode="normal" in2="BackgroundImageFix" result="effect1_dropShadow_465_423"/>
<feBlend mode="normal" in="SourceGraphic" in2="effect1_dropShadow_465_423" result="shape"/>
</filter>
<filter id="filter5_d_465_423" x="83" y="250" width="231" height="111" filterUnits="userSpaceOnUse" color-interpolation-filters="sRGB">
<feFlood flood-opacity="0" result="BackgroundImageFix"/>
<feColorMatrix in="SourceAlpha" type="matrix" values="0 0 0 0 0 0 0 0 0 0 0 0 0 0 0 0 0 0 127 0" result="hardAlpha"/>
<feMorphology radius="4" operator="dilate" in="SourceAlpha" result="effect1_dropShadow_465_423"/>
<feOffset dy="4"/>
<feGaussianBlur stdDeviation="3"/>
<feComposite in2="hardAlpha" operator="out"/>
<feColorMatrix type="matrix" values="0 0 0 0 0 0 0 0 0 0 0 0 0 0 0 0 0 0 0.08 0"/>
<feBlend mode="normal" in2="BackgroundImageFix" result="effect1_dropShadow_465_423"/>
<feBlend mode="normal" in="SourceGraphic" in2="effect1_dropShadow_465_423" result="shape"/>
</filter>
<filter id="filter6_d_465_423" x="164" y="191" width="335" height="79" filterUnits="userSpaceOnUse" color-interpolation-filters="sRGB">
<feFlood flood-opacity="0" result="BackgroundImageFix"/>
<feColorMatrix in="SourceAlpha" type="matrix" values="0 0 0 0 0 0 0 0 0 0 0 0 0 0 0 0 0 0 127 0" result="hardAlpha"/>
<feMorphology radius="4" operator="dilate" in="SourceAlpha" result="effect1_dropShadow_465_423"/>
<feOffset dy="4"/>
<feGaussianBlur stdDeviation="3"/>
<feComposite in2="hardAlpha" operator="out"/>
<feColorMatrix type="matrix" values="0 0 0 0 0 0 0 0 0 0 0 0 0 0 0 0 0 0 0.08 0"/>
<feBlend mode="normal" in2="BackgroundImageFix" result="effect1_dropShadow_465_423"/>
<feBlend mode="normal" in="SourceGraphic" in2="effect1_dropShadow_465_423" result="shape"/>
</filter>
<filter id="filter7_d_465_423" x="-10" y="120" width="193" height="90" filterUnits="userSpaceOnUse" color-interpolation-filters="sRGB">
<feFlood flood-opacity="0" result="BackgroundImageFix"/>
<feColorMatrix in="SourceAlpha" type="matrix" values="0 0 0 0 0 0 0 0 0 0 0 0 0 0 0 0 0 0 127 0" result="hardAlpha"/>
<feMorphology radius="4" operator="dilate" in="SourceAlpha" result="effect1_dropShadow_465_423"/>
<feOffset dy="4"/>
<feGaussianBlur stdDeviation="3"/>
<feComposite in2="hardAlpha" operator="out"/>
<feColorMatrix type="matrix" values="0 0 0 0 0 0 0 0 0 0 0 0 0 0 0 0 0 0 0.08 0"/>
<feBlend mode="normal" in2="BackgroundImageFix" result="effect1_dropShadow_465_423"/>
<feBlend mode="normal" in="SourceGraphic" in2="effect1_dropShadow_465_423" result="shape"/>
</filter>
<filter id="filter8_d_465_423" x="230" y="0" width="231" height="99" filterUnits="userSpaceOnUse" color-interpolation-filters="sRGB">
<feFlood flood-opacity="0" result="BackgroundImageFix"/>
<feColorMatrix in="SourceAlpha" type="matrix" values="0 0 0 0 0 0 0 0 0 0 0 0 0 0 0 0 0 0 127 0" result="hardAlpha"/>
<feMorphology radius="4" operator="dilate" in="SourceAlpha" result="effect1_dropShadow_465_423"/>
<feOffset dy="4"/>
<feGaussianBlur stdDeviation="3"/>
<feComposite in2="hardAlpha" operator="out"/>
<feColorMatrix type="matrix" values="0 0 0 0 0 0 0 0 0 0 0 0 0 0 0 0 0 0 0.08 0"/>
<feBlend mode="normal" in2="BackgroundImageFix" result="effect1_dropShadow_465_423"/>
<feBlend mode="normal" in="SourceGraphic" in2="effect1_dropShadow_465_423" result="shape"/>
</filter>
<filter id="filter9_b_465_423" x="99" y="6" width="322" height="322" filterUnits="userSpaceOnUse" color-interpolation-filters="sRGB">
<feFlood flood-opacity="0" result="BackgroundImageFix"/>
<feGaussianBlur in="BackgroundImageFix" stdDeviation="16"/>
<feComposite in2="SourceAlpha" operator="in" result="effect1_backgroundBlur_465_423"/>
<feBlend mode="normal" in="SourceGraphic" in2="effect1_backgroundBlur_465_423" result="shape"/>
</filter>
<filter id="filter10_d_465_423" x="281" y="200" width="134" height="134" filterUnits="userSpaceOnUse" color-interpolation-filters="sRGB">
<feFlood flood-opacity="0" result="BackgroundImageFix"/>
<feColorMatrix in="SourceAlpha" type="matrix" values="0 0 0 0 0 0 0 0 0 0 0 0 0 0 0 0 0 0 127 0" result="hardAlpha"/>
<feOffset dy="4"/>
<feGaussianBlur stdDeviation="8"/>
<feComposite in2="hardAlpha" operator="out"/>
<feColorMatrix type="matrix" values="0 0 0 0 0 0 0 0 0 0 0 0 0 0 0 0 0 0 0.16 0"/>
<feBlend mode="normal" in2="BackgroundImageFix" result="effect1_dropShadow_465_423"/>
<feBlend mode="normal" in="SourceGraphic" in2="effect1_dropShadow_465_423" result="shape"/>
</filter>
<filter id="filter11_d_465_423" x="123" y="17" width="127" height="60" filterUnits="userSpaceOnUse" color-interpolation-filters="sRGB">
<feFlood flood-opacity="0" result="BackgroundImageFix"/>
<feColorMatrix in="SourceAlpha" type="matrix" values="0 0 0 0 0 0 0 0 0 0 0 0 0 0 0 0 0 0 127 0" result="hardAlpha"/>
<feMorphology radius="4" operator="dilate" in="SourceAlpha" result="effect1_dropShadow_465_423"/>
<feOffset dy="4"/>
<feGaussianBlur stdDeviation="3"/>
<feComposite in2="hardAlpha" operator="out"/>
<feColorMatrix type="matrix" values="0 0 0 0 0 0 0 0 0 0 0 0 0 0 0 0 0 0 0.08 0"/>
<feBlend mode="normal" in2="BackgroundImageFix" result="effect1_dropShadow_465_423"/>
<feBlend mode="normal" in="SourceGraphic" in2="effect1_dropShadow_465_423" result="shape"/>
</filter>
<filter id="filter12_d_465_423" x="58" y="221" width="149" height="62" filterUnits="userSpaceOnUse" color-interpolation-filters="sRGB">
<feFlood flood-opacity="0" result="BackgroundImageFix"/>
<feColorMatrix in="SourceAlpha" type="matrix" values="0 0 0 0 0 0 0 0 0 0 0 0 0 0 0 0 0 0 127 0" result="hardAlpha"/>
<feMorphology radius="4" operator="dilate" in="SourceAlpha" result="effect1_dropShadow_465_423"/>
<feOffset dy="4"/>
<feGaussianBlur stdDeviation="3"/>
<feComposite in2="hardAlpha" operator="out"/>
<feColorMatrix type="matrix" values="0 0 0 0 0 0 0 0 0 0 0 0 0 0 0 0 0 0 0.08 0"/>
<feBlend mode="normal" in2="BackgroundImageFix" result="effect1_dropShadow_465_423"/>
<feBlend mode="normal" in="SourceGraphic" in2="effect1_dropShadow_465_423" result="shape"/>
</filter>
<filter id="filter13_d_465_423" x="318" y="79" width="155" height="57" filterUnits="userSpaceOnUse" color-interpolation-filters="sRGB">
<feFlood flood-opacity="0" result="BackgroundImageFix"/>
<feColorMatrix in="SourceAlpha" type="matrix" values="0 0 0 0 0 0 0 0 0 0 0 0 0 0 0 0 0 0 127 0" result="hardAlpha"/>
<feMorphology radius="4" operator="dilate" in="SourceAlpha" result="effect1_dropShadow_465_423"/>
<feOffset dy="4"/>
<feGaussianBlur stdDeviation="3"/>
<feComposite in2="hardAlpha" operator="out"/>
<feColorMatrix type="matrix" values="0 0 0 0 0 0 0 0 0 0 0 0 0 0 0 0 0 0 0.08 0"/>
<feBlend mode="normal" in2="BackgroundImageFix" result="effect1_dropShadow_465_423"/>
<feBlend mode="normal" in="SourceGraphic" in2="effect1_dropShadow_465_423" result="shape"/>
</filter>
<linearGradient id="paint0_linear_465_423" x1="164.5" y1="240.5" x2="350.5" y2="75" gradientUnits="userSpaceOnUse">
<stop stop-color="#F4F4F4"/>
<stop offset="1" stop-color="#E8E8E8"/>
</linearGradient>
</defs>
</svg>
