<svg width="31" height="23" viewBox="0 0 31 23" fill="none" xmlns="http://www.w3.org/2000/svg">
<path d="M1.45029 22.842C1.45029 22.842 0 22.842 0 21.3917C0 19.9414 1.45029 15.5905 8.70175 15.5905C15.9532 15.5905 17.4035 19.9414 17.4035 21.3917C17.4035 22.842 15.9532 22.842 15.9532 22.842H1.45029ZM8.70175 14.1402C9.85568 14.1402 10.9623 13.6818 11.7783 12.8659C12.5942 12.0499 13.0526 10.9433 13.0526 9.78935C13.0526 8.63543 12.5942 7.52877 11.7783 6.71282C10.9623 5.89687 9.85568 5.43848 8.70175 5.43848C7.54783 5.43848 6.44117 5.89687 5.62522 6.71282C4.80927 7.52877 4.35088 8.63543 4.35088 9.78935C4.35088 10.9433 4.80927 12.0499 5.62522 12.8659C6.44117 13.6818 7.54783 14.1402 8.70175 14.1402Z" fill="#4285F4"/>
<path fill-rule="evenodd" clip-rule="evenodd" d="M8.15789 2C8.15789 0.895431 9.05332 0 10.1579 0H29C30.1046 0 31 0.895431 31 2V15.4035C31 16.5081 30.1046 17.4035 29 17.4035H16.757C16.6875 17.3279 16.6156 17.2527 16.5411 17.1782C15.37 16.0072 13.6217 15.0447 11.1003 14.6706C11.6313 14.4097 12.1211 14.0615 12.5474 13.6351C13.5674 12.6152 14.1403 11.2319 14.1403 9.78947C14.1403 8.34707 13.5674 6.96374 12.5474 5.94381C11.5275 4.92387 10.1442 4.35088 8.70175 4.35088C8.51931 4.35088 8.33782 4.36004 8.15789 4.37812V2Z" fill="#4285F4"/>
</svg>
